<?xml version="1.0" encoding="utf-8"?>
<!-- Generator: Adobe Illustrator 17.1.0, SVG Export Plug-In . SVG Version: 6.00 Build 0)  -->
<!DOCTYPE svg PUBLIC "-//W3C//DTD SVG 1.1//EN" "http://www.w3.org/Graphics/SVG/1.1/DTD/svg11.dtd">
<svg version="1.1" id="Слой_1" xmlns="http://www.w3.org/2000/svg" xmlns:xlink="http://www.w3.org/1999/xlink" x="0px" y="0px"
	 viewBox="0 0 32 32" enable-background="new 0 0 32 32" xml:space="preserve">
<path id="бюджет_down" fill="#60B78F" d="M24,10L24,10c0,0.5-0.4,0.9-0.9,0.9H8.9C8.4,10.9,8,10.5,8,10v0
	c0-0.5,0.4-0.9,0.9-0.9h14.3C23.6,9.1,24,9.5,24,10z M24,14L24,14c0,0.5-0.4,0.9-0.9,0.9h-6.3v5l1.9-1.9c0.3-0.3,0.9-0.3,1.2,0l0,0
	c0.3,0.3,0.3,0.9,0,1.2l-3.4,3.4c-0.3,0.3-0.9,0.3-1.2,0L12,19.2c-0.3-0.3-0.3-0.9,0-1.2l0,0c0.3-0.3,0.9-0.3,1.2,0l1.9,1.9v-5H8.9
	C8.4,14.9,8,14.5,8,14v0c0-0.5,0.4-0.9,0.9-0.9h14.3C23.6,13.1,24,13.5,24,14z"/>
</svg>
