<?xml version="1.0" encoding="utf-8"?>
<!-- Generator: Adobe Illustrator 17.1.0, SVG Export Plug-In . SVG Version: 6.00 Build 0)  -->
<!DOCTYPE svg PUBLIC "-//W3C//DTD SVG 1.1//EN" "http://www.w3.org/Graphics/SVG/1.1/DTD/svg11.dtd">
<svg version="1.1" id="Слой_1" xmlns="http://www.w3.org/2000/svg" xmlns:xlink="http://www.w3.org/1999/xlink" x="0px" y="0px"
	 viewBox="0 0 32 32" enable-background="new 0 0 32 32" xml:space="preserve">
<path id="понизить_уровень_2_" fill="#5FC6ED" d="M12,25L12,25c-0.4-0.4-0.4-0.9,0-1.2l1.9-1.9h-7
	C6.4,21.9,6,21.5,6,21v0c0-0.5,0.4-0.9,0.9-0.9h7L12,18.3c-0.3-0.3-0.3-0.9,0-1.2l0,0c0.3-0.3,0.9-0.3,1.2,0l3.4,3.4
	c0.3,0.3,0.3,0.9,0,1.2L13.2,25C12.9,25.4,12.3,25.4,12,25z M18,22L18,22c0-0.5,0.4-0.9,0.9-0.9h4.3c0.5,0,0.9,0.4,0.9,0.9v0
	c0,0.5-0.4,0.9-0.9,0.9h-4.3C18.4,22.9,18,22.5,18,22z M18,18L18,18c0-0.5,0.4-0.9,0.9-0.9h4.3c0.5,0,0.9,0.4,0.9,0.9v0
	c0,0.5-0.4,0.9-0.9,0.9h-4.3C18.4,18.9,18,18.5,18,18z M8,14L8,14c0-0.5,0.4-0.9,0.9-0.9h14.3c0.5,0,0.9,0.4,0.9,0.9v0
	c0,0.5-0.4,0.9-0.9,0.9H8.9C8.4,14.9,8,14.5,8,14z M8,10L8,10c0-0.5,0.4-0.9,0.9-0.9h14.3c0.5,0,0.9,0.4,0.9,0.9v0
	c0,0.5-0.4,0.9-0.9,0.9H8.9C8.4,10.9,8,10.5,8,10z"/>
</svg>
