<?xml version="1.0" encoding="utf-8"?>
<!-- Generator: Adobe Illustrator 17.1.0, SVG Export Plug-In . SVG Version: 6.00 Build 0)  -->
<!DOCTYPE svg PUBLIC "-//W3C//DTD SVG 1.1//EN" "http://www.w3.org/Graphics/SVG/1.1/DTD/svg11.dtd">
<svg version="1.1" id="Слой_1" xmlns="http://www.w3.org/2000/svg" xmlns:xlink="http://www.w3.org/1999/xlink" x="0px" y="0px"
	 viewBox="0 0 32 32" enable-background="new 0 0 32 32" xml:space="preserve">
<path id="создать_кт_2_" fill="#4AB59E" d="M15.4,24.6l-7-7c-0.3-0.3-0.3-0.9,0-1.2L9.8,15c0.3-0.3,0.9-0.3,1.2,0l0,0
	c0.3,0.3,0.3,0.9,0,1.2L10.2,17l5.8,5.8l5.8-5.8L20,15.3c-0.3-0.3-0.3-0.9,0-1.2l0,0c0.3-0.3,0.9-0.3,1.2,0l2.4,2.4
	c0.3,0.3,0.3,0.9,0,1.2l-7,7C16.3,25,15.7,25,15.4,24.6z M13.1,16.1l0-3.2H9.9C9.4,12.9,9,12.5,9,12v0c0-0.5,0.4-0.9,0.9-0.9h3.2
	l0-3.3C13.1,7.4,13.5,7,14,7l0,0c0.5,0,0.9,0.4,0.9,0.9l0,3.3h3.3c0.5,0,0.9,0.4,0.9,0.9v0c0,0.5-0.4,0.9-0.9,0.9h-3.2l0,3.2
	c0,0.5-0.4,0.9-0.9,0.9l0,0C13.5,17,13.1,16.6,13.1,16.1z"/>
</svg>
