<?xml version="1.0" encoding="utf-8"?>
<!-- Generator: Adobe Illustrator 17.1.0, SVG Export Plug-In . SVG Version: 6.00 Build 0)  -->
<!DOCTYPE svg PUBLIC "-//W3C//DTD SVG 1.1//EN" "http://www.w3.org/Graphics/SVG/1.1/DTD/svg11.dtd">
<svg version="1.1" id="Слой_1" xmlns="http://www.w3.org/2000/svg" xmlns:xlink="http://www.w3.org/1999/xlink" x="0px" y="0px"
	 viewBox="0 0 32 32" enable-background="new 0 0 32 32" xml:space="preserve">
<path id="профиль" fill="#FFFFFF" d="M10,23.1L10,23.1c-0.4-0.3-0.5-1-0.1-1.4c0.9-0.8,3.2-1.6,3.2-1.6
	c-2.1-1.1-3.3-3.5-2.9-6c0.4-2.6,2.6-4.7,5.2-5c3.5-0.4,6.5,2.4,6.5,5.9c0,2.1-1.2,4.1-3,5.1c0,0,2.3,0.8,3.2,1.6
	c0.4,0.4,0.3,1-0.1,1.3l0,0c-0.3,0.3-0.8,0.2-1.1-0.1c-0.8-0.7-1.8-1.1-2.8-1.1h0c-0.5,0-0.9-0.4-0.9-0.9v-1.6
	c0-0.3,0.2-0.5,0.4-0.6l0,0c1.4-0.6,2.4-1.9,2.6-3.4c0.3-2.7-2.1-4.9-4.8-4.5c-1.9,0.3-3.5,2.3-3.4,4.2c0.1,1.6,1,3,2.5,3.6l0.1,0.1
	c0.2,0.1,0.4,0.3,0.4,0.6V21c0,0.5-0.4,0.9-0.9,0.9h0c-1.1,0-2.1,0.4-2.8,1.1C10.9,23.3,10.4,23.4,10,23.1z"/>
</svg>
