<?xml version="1.0" encoding="utf-8"?>
<!-- Generator: Adobe Illustrator 17.1.0, SVG Export Plug-In . SVG Version: 6.00 Build 0)  -->
<!DOCTYPE svg PUBLIC "-//W3C//DTD SVG 1.1//EN" "http://www.w3.org/Graphics/SVG/1.1/DTD/svg11.dtd">
<svg version="1.1" id="Слой_1" xmlns="http://www.w3.org/2000/svg" xmlns:xlink="http://www.w3.org/1999/xlink" x="0px" y="0px"
	 viewBox="0 0 32 32" enable-background="new 0 0 32 32" xml:space="preserve">
<path id="сохранить" fill="#FFFFFF" d="M22,22.9H10c-0.5,0-0.9-0.4-0.9-0.9V10c0-0.5,0.4-0.9,0.9-0.9h9
	c0.2,0,0.5,0.1,0.6,0.3l3,3c0.2,0.2,0.3,0.4,0.3,0.6v9C22.9,22.5,22.5,22.9,22,22.9z M13.9,10.9v2.2h3.2l0-2.2H13.9z M12.1,10.9
	h-1.2v10.2h1.2V18c0-0.5,0.4-0.9,0.9-0.9h6c0.5,0,0.9,0.4,0.9,0.9v3.1l1.2,0v-7.8l-2.2-2.2l0,0h0V14c0,0.5-0.4,0.9-0.9,0.9h-5
	c-0.5,0-0.9-0.4-0.9-0.9L12.1,10.9z M13.9,21.1l4.2,0v-2.2h-4.2L13.9,21.1z"/>
</svg>
