<?xml version="1.0" encoding="utf-8"?>
<!-- Generator: Adobe Illustrator 17.1.0, SVG Export Plug-In . SVG Version: 6.00 Build 0)  -->
<!DOCTYPE svg PUBLIC "-//W3C//DTD SVG 1.1//EN" "http://www.w3.org/Graphics/SVG/1.1/DTD/svg11.dtd">
<svg version="1.1" id="Слой_1" xmlns="http://www.w3.org/2000/svg" xmlns:xlink="http://www.w3.org/1999/xlink" x="0px" y="0px"
	 viewBox="0 0 32 32" enable-background="new 0 0 32 32" xml:space="preserve">
<path id="удалить_1_" fill="#FFFFFF" d="M22,23.9H10c-0.5,0-0.9-0.4-0.9-0.9v-7.1c0-0.5,0.4-0.9,0.9-0.9h0
	c0.5,0,0.9,0.4,0.9,0.9v6.3h2.2v-6.3c0-0.5,0.4-0.9,0.9-0.9h0c0.5,0,0.9,0.4,0.9,0.9v6.3h2.2v-6.3c0-0.5,0.4-0.9,0.9-0.9h0
	c0.5,0,0.9,0.4,0.9,0.9v6.3h2.2v-6.3c0-0.5,0.4-0.9,0.9-0.9h0c0.5,0,0.9,0.4,0.9,0.9V23C22.9,23.5,22.5,23.9,22,23.9z M23.1,13.9
	H8.9C8.4,13.9,8,13.5,8,13v0c0-0.5,0.4-0.9,0.9-0.9h2.2V9c0-0.5,0.4-0.9,0.9-0.9h8c0.5,0,0.9,0.4,0.9,0.9v3.1h2.2
	c0.5,0,0.9,0.4,0.9,0.9v0C24,13.5,23.6,13.9,23.1,13.9z M12.9,12.1h6.2V9.9h-6.2V12.1z"/>
</svg>
