<?xml version="1.0" encoding="utf-8"?>
<!-- Generator: Adobe Illustrator 15.0.0, SVG Export Plug-In . SVG Version: 6.00 Build 0)  -->
<!DOCTYPE svg PUBLIC "-//W3C//DTD SVG 1.1//EN" "http://www.w3.org/Graphics/SVG/1.1/DTD/svg11.dtd">
<svg version="1.1" id="Слой_1" xmlns="http://www.w3.org/2000/svg" xmlns:xlink="http://www.w3.org/1999/xlink" x="0px" y="0px"
	 width="226.771px" height="226.771px" viewBox="0 0 226.771 226.771" enable-background="new 0 0 226.771 226.771"
	 xml:space="preserve">
<path id="выгрузить_картинку" fill="#333333" d="M57.951,130.768h150.953c9.188,0,16.408-7.222,16.408-16.408
	v-0.656c0-9.188-7.221-16.408-16.408-16.408H57.951l66.944-66.942c6.563-6.564,6.563-16.408,0-22.973l0,0
	c-6.563-6.563-16.408-6.563-22.973,0L6.758,102.547c-6.563,6.563-6.563,16.408,0,22.973l95.166,95.167
	c6.563,6.563,16.409,6.563,22.973,0l0,0c6.563-6.564,6.563-16.409,0-22.974l-66.944-67.601L57.951,130.768L57.951,130.768z"/>
</svg>
