<?xml version="1.0" encoding="utf-8"?>
<!-- Generator: Adobe Illustrator 17.1.0, SVG Export Plug-In . SVG Version: 6.00 Build 0)  -->
<!DOCTYPE svg PUBLIC "-//W3C//DTD SVG 1.1//EN" "http://www.w3.org/Graphics/SVG/1.1/DTD/svg11.dtd">
<svg version="1.1" id="Слой_1" xmlns="http://www.w3.org/2000/svg" xmlns:xlink="http://www.w3.org/1999/xlink" x="0px" y="0px"
	 viewBox="0 0 32 32" enable-background="new 0 0 32 32" xml:space="preserve">
<path id="project_import_2_" fill="#60B78F" d="M14,6L14,6c0.5,0,0.9,0.4,0.9,0.9V11l1.9-1.9c0.3-0.3,0.9-0.3,1.2,0l0,0
	c0.3,0.3,0.3,0.9,0,1.2l-3.4,3.4c-0.3,0.3-0.9,0.3-1.2,0L10,10.4c-0.3-0.3-0.3-0.9,0-1.2l0,0c0.3-0.3,0.9-0.3,1.2,0l1.9,1.9V6.9
	C13.1,6.4,13.5,6,14,6z M20.9,25.1l0-1.1H24c0.5,0,0.9-0.4,0.9-0.9V13c0-0.5-0.4-0.9-0.9-0.9c0,0-3.5,0-4,0l0,0
	c-0.5,0-0.9,0.4-0.9,0.9l0,11L8.9,22.3v-8.3c0-0.5-0.4-0.9-0.9-0.9h0c-0.5,0-0.9,0.4-0.9,0.9v9c0,0.4,0.3,0.8,0.7,0.9l12,2
	C20.4,26,20.9,25.6,20.9,25.1z M20.9,13.9h2.2v8.3h-2.2L20.9,13.9z M12.9,20.6v-0.7h1.6c1.4,0,2.6-1.2,2.4-2.7
	c-0.2-1.2-1.2-2.1-2.4-2.1H12c-0.5,0-0.9,0.4-0.9,0.9v4.6c0,0.5,0.4,0.9,0.9,0.9h0C12.5,21.5,12.9,21.1,12.9,20.6z M12.9,16.9h1.6
	c0.3,0,0.6,0.3,0.6,0.6s-0.3,0.6-0.6,0.6h-1.6V16.9z"/>
</svg>
