<?xml version="1.0" encoding="utf-8"?>
<!-- Generator: Adobe Illustrator 15.0.0, SVG Export Plug-In . SVG Version: 6.00 Build 0)  -->
<!DOCTYPE svg PUBLIC "-//W3C//DTD SVG 1.1//EN" "http://www.w3.org/Graphics/SVG/1.1/DTD/svg11.dtd">
<svg version="1.1"
	 id="svg2" sodipodi:docname="Coat_of_Arms_of_Khanty-Mansia.svg" inkscape:version="0.47 r22583" xmlns:dc="http://purl.org/dc/elements/1.1/" xmlns:cc="http://creativecommons.org/ns#" xmlns:rdf="http://www.w3.org/1999/02/22-rdf-syntax-ns#" xmlns:svg="http://www.w3.org/2000/svg" xmlns:sodipodi="http://sodipodi.sourceforge.net/DTD/sodipodi-0.dtd" xmlns:inkscape="http://www.inkscape.org/namespaces/inkscape"
	 xmlns="http://www.w3.org/2000/svg" xmlns:xlink="http://www.w3.org/1999/xlink" x="0px" y="0px" width="250px" height="290px"
	 viewBox="-0.5 3.167 250 290" enable-background="new -0.5 3.167 250 290" xml:space="preserve">
<path id="path8" fill="#D71B3B" stroke="#000000" stroke-width="1.4477" stroke-miterlimit="10" d="M134.731,13.61l0.339-0.086
	c2.828-2.58,5.909-5.444,9.922-4.592c2.064,0.566,3.589,2.778,4.691,4.508c1.132-0.341,2.148-0.965,3.308-1.221
	c2.742-0.651,5.935-0.311,7.689,2.155c1.726,2.184,1.243,5.672-0.085,7.855l-1.642,2.325l-11.983,14.887v0.169l2.316,0.085h29.88
	c-0.1,1.509,1.268,3.93,1.018,4.055l-20.552,0.029l-0.141,0.284c-0.058,2.41,0.084,5.188-2.204,6.579
	c-1.074,0.624-2.743,0.596-3.762-0.142c-1.694-1.673-1.301-4.339-1.07-6.58l-0.144-0.141H91.197
	c-0.196,1.701,0.51,3.714-0.255,5.302c-0.282,0.652-0.648,1.392-1.355,1.702c-1.215,0.596-2.826,0.284-3.845-0.454
	c-1.667-1.701-1.696-4.055-1.726-6.41l-0.14-0.141L63.126,43.77c0.563-1.132,1.409-3.368,1.302-4.074l32.082-0.029v-0.368
	l-13.117-16.39c-1.44-2.098-2.262-5.189-1.048-7.657c1.33-2.58,4.1-3.686,6.927-3.26c1.609,0.055,2.938,0.822,4.324,1.445
	l0.312-0.058c1.186-2.042,3.109-4.337,5.567-4.623c3.761-0.226,6.389,2.496,9.129,4.85h0.227c4.947-3.886,11.25-7.032,17.752-4.565
	C129.502,10.036,132.273,11.455,134.731,13.61L134.731,13.61L134.731,13.61z"/>
<path id="path10" d="M109.346,18.431c0.48,0.51,1.047,1.19,1.668,1.588l5.795-5.417c0.99-0.682,2.517-0.852,3.561-0.169
	c0.622,0.283,0.933,0.963,1.357,1.444c0.622-0.878,1.469-1.644,2.487-1.842c0.934-0.142,1.809,0.14,2.544,0.566l5.794,5.417
	c2.064-1.785,3.931-4.111,5.966-5.956c0.961-0.766,2.488-0.851,3.677-0.452c1.102,0.311,1.921,1.445,2.202,2.495
	c0.199,0.852-0.111,1.617-0.45,2.269l-13.606,15.629h3.273l4.17-4.229l12.41-13.017c1.074-0.88,2.885-0.964,4.07-0.227
	c0.99,0.425,1.499,1.475,1.809,2.382c0.144,0.853-0.196,1.531-0.593,2.155l-18.373,20.956l-30.755-0.057L88.035,21.011
	c-0.48-0.68-0.681-1.587-0.452-2.438c0.282-1.134,1.413-1.957,2.4-2.382c1.356-0.424,2.855-0.113,3.816,0.964l15.913,16.849
	c1.112,0,2.249,0,3.401,0l-2.353-2.841L99.565,18.344c-0.678-1.049-0.479-2.552,0.199-3.544c1.018-1.189,2.347-1.673,3.93-1.36
	C105.982,14.29,107.454,16.757,109.346,18.431L109.346,18.431z"/>
<path id="path12" fill="#FFFFFF" stroke="#1B1445" stroke-width="1.4477" stroke-miterlimit="10" d="M104.684,14.886
	c2.119,2.1,4.183,4.283,6.247,6.297l0.282-0.086l6.105-5.813c0.622-0.34,1.442-0.682,2.205-0.34c1.161,0.453,1.781,1.701,1.81,2.95
	c-0.028,0.82-0.254,1.559-0.677,2.212l-5.288,6.181l0.313,0.54l6.092,6.83l6.401-7.254l-0.141-0.397l-5.175-5.955
	c-0.452-0.964-0.903-2.24-0.396-3.345c0.227-0.825,1.018-1.646,1.867-1.873c0.791-0.143,1.496,0.197,2.119,0.595l6.049,5.758
	l0.313-0.114l6.22-6.324c0.764-0.623,2.118-0.708,3.022-0.255c0.878,0.341,1.498,1.248,1.583,2.156l-0.31,1.133l-5.797,6.722
	l-9.056,10.22c1.3,0,3.481,0,5.713,0l4.785-4.917l11.902-12.478c0.649-0.34,1.412-0.652,2.204-0.396
	c0.764,0.227,1.584,0.71,1.951,1.503c0.281,0.481,0.226,1.077,0.058,1.588l-1.103,1.445l-16.905,19.425l-0.401,0.447l-29.752-0.026
	l-0.374-0.394L88.6,20.248c-0.283-0.425-0.369-1.049-0.197-1.559c0.394-1.022,1.497-1.702,2.542-1.843
	c0.678-0.03,1.273,0.196,1.809,0.48l16.474,17.395c1.083,0.013,3.636,0,5.665,0l-14.532-16.744
	c-0.396-0.598-0.595-1.478-0.228-2.127c0.396-0.908,1.329-1.532,2.263-1.646C103.298,14.034,104.033,14.433,104.684,14.886
	L104.684,14.886L104.684,14.886z"/>
<path id="path14" fill="#E11D3E" d="M126.985,26.171l-0.056,0.341c-1.752,1.93-3.336,3.999-5.202,5.786l-5.201-5.927l0.11-0.284
	c1.754-1.957,3.648-3.883,5.09-5.981C123.312,22.146,125.232,24.158,126.985,26.171L126.985,26.171L126.985,26.171z"/>
<path id="path16" fill="#F9BD1F" stroke="#F9BD1F" stroke-width="0.7239" stroke-miterlimit="10" d="M82.974,45.425
	c0.142,2.695,0.564,5.899,3.477,6.835c1.696,0.482,3.731,0.284,4.862-1.22c1.216-1.532,1.019-3.771,1.019-5.7l0.197-0.142h58.597
	l0.143,0.142c-0.057,2.468-0.198,5.246,2.093,6.664c1.497,0.851,3.646,0.511,5.002-0.37c1.894-1.645,2.035-4.026,2.317-6.352
	l0.454-0.085h20.89l3.167,2.751l0.168,0.425l0.113,13.611c0.142,7.401,0.536,14.717,1.019,22.005
	c-1.134,2.354-2.294,4.652-3.255,7.061c-3.335,8.962-4.465,19.851-2.656,29.86l0.85,4.68l3.591,17.1
	c4.064,19.566,6.5,45.709-12.213,58.7c-6.275,4.311-13.172,7.031-20.804,7.996c-10.969,1.645-22.643,2.098-30.048,11.854
	l-0.17,0.113c-6.588-8.564-16.451-10.15-26.29-11.428c-10.57-0.938-20.183-4.227-28.211-11.344
	c-14.499-13.326-12.634-36.153-9.101-53.935l2.601-12.619c2.205-9.755,4.354-20.701,2.146-31.166
	c-1.043-5.955-2.938-11.569-5.906-16.731l0.706-12.392l0.283-7.771l0.142-13.609c0.113-0.823-0.312-1.844,0.366-2.439l3.025-2.723
	h21.201L82.974,45.425L82.974,45.425z"/>
<path id="path18" fill="#D71B3B" stroke="#000000" stroke-width="1.4477" stroke-miterlimit="10" d="M56.825,68.281
	c-0.142,5.19-0.564,10.294-0.847,15.427c0.227,1.475,1.301,2.58,1.81,3.914c4.183,8.876,5.881,19.397,4.522,29.974
	c-0.51,3.602-1.131,7.175-1.893,10.66l-3.251,15.626c-3.957,19.37-5.597,44.716,12.297,57.621c7.433,5.248,15.858,8.197,25.128,9.02
	c10.12,1.334,20.606,2.809,26.966,12.107c0.086,0.199,0.341,0.199,0.452,0.057c5.031-7.344,12.834-10.094,20.862-11.313
	l11.024-1.588c7.604-1.162,14.472-4.141,20.719-8.648c20.24-15.428,14.418-45.569,9.838-66.752l-2.288-10.975
	c-2.546-11.287-1.5-24.273,2.937-34.341c0.622-1.645,1.583-3.177,2.402-4.763c0-4.028-0.534-7.94-0.592-11.969l-0.423-13.129
	c-0.058-1.559-0.086-3.345,0.054-4.933c1.048,0.991,2.319,1.872,3.308,2.949c-0.847,0.481-2.006,1.189-2.035,2.296
	c-0.17,1.673,0.312,3.175,1.611,4.281l0.45,0.623v119.836c-0.141,10.918-4.521,22.404-15.404,26.543
	c-4.637,1.844-9.81,2.467-15.236,2.385l-16.423,0.055c-8.228,0.709-16.905,3.857-20.637,11.883c-0.057,0.342-0.198,0.65-0.397,0.965
	c-0.789-2.016-1.836-3.943-3.474-5.586c-4.834-4.652-10.771-6.609-17.272-7.205l-8.594-0.111l-11.449-0.027
	c-10.317-0.086-21-5.021-24.704-15.285c-2.264-5.529-2.745-11.824-2.715-18.263l0.057-115.102c0.82-1.077,1.781-2.098,2.062-3.403
	c0.145-0.908,0.228-1.985-0.394-2.722c-0.425-0.625-1.074-0.738-1.583-1.163c0.959-1.136,2.177-2.1,3.25-3.147l0.141,0.199
	L56.825,68.281L56.825,68.281L56.825,68.281z"/>
<path id="path20" fill="#008A42" stroke="#02572B" stroke-width="4.3432" stroke-miterlimit="10" d="M68.868,23.139
	c-0.706,1.161-1.979,2.099-3.025,3.005c-8.255,6.776-13.99,15.596-19.335,24.076h0.2c6.528-5.955,12.323-13.611,19.841-17.27
	c0.228-0.085,0.452-0.029,0.651,0.085c0.057,0.511-0.396,0.935-0.792,1.304c-4.919,3.318-9.272,7.686-13.453,12.309l-8.481,9.472
	c0.056,0.085,0.139,0.056,0.199,0.056l1.975-1.898l8.792-8.31c2.289-1.928,4.579-4.083,7.237-5.301
	c0.139-0.03,0.282,0.057,0.311,0.169l-0.199,0.512C54.396,49.54,44.841,57.48,37.971,66.923c0.031,0.083,0.114,0.028,0.171,0.057
	c6.189-5.584,11.788-12.334,18.825-16.107c0.085-0.028,0.169,0,0.227,0.084l-0.058,0.285c-3.391,3.573-7.18,6.466-10.402,10.322
	L35.344,75.401c-0.253,0.17-0.339,0.341-0.48,0.595h0.169l10.09-9.557c2.434-2.241,5.004-4.337,7.69-6.097
	c0.424-0.17,0.819-0.453,1.357-0.397c0.679,0.228,0.225,0.795,0.083,1.163c-3.024,3.035-6.386,5.557-9.554,8.538
	c-5.511,5.216-11.561,10.717-15.094,17.211c-0.229,0.624-0.681,1.249-0.51,1.929l0.45-0.341c3.14-3.743,5.994-7.712,9.837-11.002
	c0.452-0.171,1.047-0.794,1.526-0.313l-0.14,0.512c-5.258,5.415-8.933,11.598-12.128,17.863c0.029,0.086-0.027,0.199,0.057,0.285
	l0.142-0.058c4.608-7.288,9.414-15.625,17.129-20.502l0.452-0.143v0.369c-3.448,3.97-7.348,7.884-10.175,12.165
	c-5.175,7.458-9.274,15.341-12.439,23.624l-5.652,14.66c-1.273,14.207,0.058,28.584,2.713,41.797l1.667,8.934
	c0.139,0.029,0.083,0.227,0.227,0.172l0.224-2.582l0.425-13.609c0.651-11.572,4.239-21.894,8.283-32.044
	c1.215-2.609,2.29-5.275,4.098-7.658c0.113-0.055,0.369-0.283,0.424,0c-0.479,2.836-2.035,5.218-3.054,7.855
	c-3.42,8.393-5.906,17.155-7.632,26.259c-1.385,9.643-1.33,20.418,0.144,30.001c0.195,1.162,0.449,2.299,1.128,3.264l0.142-0.285
	l-0.142-16.587c0.113-4.34,0.509-8.537,1.583-12.479l0.084-0.084l0.285,0.254c0.395,3.631-0.17,7.176-0.06,10.861
	c0.116,6.947,0.622,13.751,0.963,20.644c0.651-5.559,0.367-11.483,0.765-17.214c0.281-5.813,1.214-11.342,2.627-16.701
	c0.113-0.453,0.285-0.852,0.538-1.248c0.282,0.029,0.31,0.342,0.366,0.566l-0.058,2.607l-1.3,13.271
	c-0.537,9.131-0.706,18.999,0.678,27.788l0.253,0.854l0.086-0.057c0.906-9.896,0.395-20.39,2.912-29.604l0.17-0.199
	c0.366,0.709,0.311,1.563,0.311,2.412c-1.019,10.718-0.679,22.06,0.594,32.497c-1.355,0.453-2.77,0.736-4.21,1.02
	c-1.583-3.432-2.715-7.031-4.637-10.322l-2.176-3.402l-7.915-11.341c-7.321-10.238-12.467-21.354-16.593-32.895
	c-0.029-0.284-0.197-0.708,0.115-0.879c0.536,0.196,0.763,0.793,1.044,1.219c1.61,3.432,3.392,6.807,5.429,10.04l8.142,12.791
	c0.197,0.426,0.507,0.68,0.647,1.135h0.088c0.199-0.344-0.255-0.482-0.228-0.822l-3.478-7.574l-4.945-10.574
	c-2.063-4.936-4.016-9.898-5.231-15.202H3.91c1.667,3.148,3.251,6.296,4.806,9.444l6.727,12.902
	c0.339,0.113,0.086,0.539,0.423,0.564c0.172-0.34-0.166-0.564-0.225-0.85l-6.246-16.561c-1.782-4.878-3.533-9.785-4.807-14.888
	c-0.029-0.596-0.14-1.39,0.283-1.815l0.368,0.37l2.828,6.208l6.246,15.257c0.369,0.652,0.537,1.419,0.904,2.07
	c0.282-0.085,0.028-0.397,0.058-0.566c-0.312-0.284-0.143-0.737-0.369-1.05c-1.499-4.538-2.941-9.103-3.762-13.925
	c0.029-0.538-0.111-1.189,0.425-1.476c0.425,0.114,0.509,0.597,0.707,0.909c0.792,3.005,1.95,5.841,3.363,8.592l0.084-0.058
	c-0.565-8.366-3.308-15.794-6.557-23.053c-1.583-4.822-2.686-9.869-4.042-14.831c-0.085-0.482-0.197-1.164,0.141-1.587
	c0.538,0.14,0.764,0.764,1.046,1.189l2.573,6.522l4.664,12.619c0.199,0.681,0.564,1.275,0.764,1.958h0.086v-0.539l-4.468-19.51
	c-1.074-4.879-1.922-9.84-2.318-15.03c0.058-0.142,0.112-0.255,0.227-0.367c0.875,0.935,0.934,2.268,1.186,3.516
	c0.791,4.934,2.176,9.613,3.166,14.461l3.25,13.414l0.088,0.114c0.169-2.212-0.397-4.367-0.68-6.494
	c-1.329-8.593-3.449-16.816-3.421-25.946c0.029-4.141-0.057-8.338-0.084-12.337c0.057-0.367,0-0.768,0.338-1.021
	c0.396,0.029,0.367,0.456,0.568,0.681c0.563,3.007,0.676,6.184,1.016,9.273c0.508,4.536,1.159,9.017,1.724,13.525l2.487,17.582
	l0.059,0.059l0.141-0.964l-0.199-21.778c-0.112-2.667-0.338-5.444-0.084-8.111c0.084-0.027,0.169-0.112,0.285-0.085
	c0.677,1.418,0.732,3.12,0.791,4.792l1.328,20.502c0.086,0.058,0.028,0.256,0.168,0.198c1.725-6.494,2.883-13.214,4.948-19.565
	l4.466-12.875c3.023-8.989,7.208-17.525,12.127-25.719c3.165-5.417,6.36-10.861,10.656-15.796l8.566-9.356
	c2.374-2.354,4.889-4.935,7.771-6.354C68.64,22.996,68.812,23.023,68.868,23.139L68.868,23.139L68.868,23.139z"/>
<path id="path22" fill="#00A651" stroke="#02572B" stroke-width="4.3432" stroke-miterlimit="10" d="M55.921,26.313
	c-0.055,0.822-0.677,1.503-1.047,2.239c-6.331,8.877-9.667,19-15.941,27.905c-0.905,1.445-1.838,2.921-2.715,4.338
	c0,0.084-0.056,0.084-0.113,0.143c-0.282-0.284,0.227-0.397,0.198-0.682c3.279-9.132,7.52-17.864,13.116-26.031
	c1.894-2.75,3.676-5.672,6.419-7.912H55.921L55.921,26.313L55.921,26.313z"/>
<path id="path24" fill="#00A651" stroke="#02572B" stroke-width="4.3432" stroke-miterlimit="10" d="M45.942,30.852l-0.14,0.765
	c-1.839,3.969-4.156,7.77-5.344,11.996c-2.234,8.394-6.217,16.05-7.917,24.67l-3.986,8.933l-0.141,0.283
	c1.78-13.611,5.37-26.428,11.362-38.281c1.752-2.95,3.393-5.954,5.966-8.508C45.829,30.709,45.886,30.823,45.942,30.852
	L45.942,30.852z"/>
<path id="path26" fill="#00A651" stroke="#02572B" stroke-width="4.3432" stroke-miterlimit="10" d="M33.308,39.668
	c-0.424,2.496-1.302,4.821-1.838,7.288l-2.826,13.018c-1.046,6.067-1.386,12.42-2.064,18.603c-0.143,1.559,0.057,3.063,0.085,4.593
	c-0.737,1.7-1.356,3.432-2.122,5.131c-1.129-12.393,1.019-24.13,3.648-35.304c1.271-4.479,2.431-8.96,4.494-13.101
	C32.91,39.726,33.054,39.3,33.308,39.668L33.308,39.668z"/>
<path id="path28" fill="#00A651" stroke="#02572B" stroke-width="4.3432" stroke-miterlimit="10" d="M22.198,58.3
	c-0.707,9.583-0.734,19.509,0.34,28.896c0.168,2.042,0.508,4.055,0.508,6.098c-0.565,1.786-0.988,3.657-1.582,5.444l-0.141-0.141
	l-1.159-13.244l-0.284-4.169L19.652,69.5c0.143-3.629,0.312-7.258,1.272-10.548c0.114-0.454,0.452-0.964,0.905-1.134
	C22.112,57.791,22.143,58.102,22.198,58.3L22.198,58.3z"/>
<path id="path30" fill="#00A651" stroke="#02572B" stroke-width="4.3432" stroke-miterlimit="10" d="M35.569,95.818
	c-0.255,1.983-1.725,3.458-2.403,5.273c-2.769,5.757-4.777,11.854-7.349,17.694c-2.062,5.673-3.705,11.514-5.766,17.186
	l-0.085-0.029c0.141-2.155-0.708-4.592,0.369-6.464c2.941-8.422,4.408-17.44,9.215-25.068c1.949-2.921,3.506-5.984,5.655-8.762
	C35.372,95.59,35.483,95.73,35.569,95.818L35.569,95.818z"/>
<polygon id="polygon32" stroke="#02572B" stroke-width="6" stroke-miterlimit="10" points="28.529,95.958 28.558,95.958 
	28.558,96.158 28.529,96.158 "/>
<path id="path34" fill="#00A651" stroke="#02572B" stroke-width="4.3432" stroke-miterlimit="10" d="M34.749,105.174
	c-0.507,1.899-1.413,3.659-2.148,5.474l-4.862,12.392c-2.94,7.431-4.86,15.285-7.405,22.883l-0.142-0.112l-0.028-5.332l5.511-17.382
	c2.374-6.238,4.212-12.704,8.537-18.121C34.409,104.833,34.665,104.948,34.749,105.174L34.749,105.174z"/>
<path id="path36" fill="#00A651" stroke="#02572B" stroke-width="4.3432" stroke-miterlimit="10" d="M37.577,105.997
	c-1.388,6.295-3.28,12.394-5.427,18.376l-2.94,6.238l-4.353,11.853c-2.037,6.097-2.177,12.99-2.855,19.65
	c-0.479-0.65-0.339-1.557-0.623-2.268l-0.96-4.963c1.104-10.35,4.269-19.85,7.775-29.208c3.023-6.465,5.568-13.101,8.791-19.453
	C37.123,106.054,37.378,105.515,37.577,105.997L37.577,105.997L37.577,105.997z"/>
<path id="path38" fill="#00A651" stroke="#02572B" stroke-width="4.3432" stroke-miterlimit="10" d="M11.343,174.452l5.144,6.947
	l10.855,15.511c0.339,0.992,0.678,2.07,0.85,3.092l-1.527-1.816L15.583,183.98c-2.881-3.829-5.087-7.911-7.066-12.108l0.055-0.313
	C9.591,172.411,10.495,173.403,11.343,174.452L11.343,174.452z"/>
<path id="path40" fill="#00A651" stroke="#02572B" stroke-width="4.3432" stroke-miterlimit="10" d="M10.552,181.428l8.51,9.952
	c3.729,5.473,7.941,10.773,13.116,15.566c-0.678,0.428-1.555,0.398-2.29,0.709c-3.845-3.629-7.574-7.656-10.685-11.824l-7.52-10.662
	c-1.526-2.27-2.911-4.593-4.298-6.948c-0.113-0.281-0.31-0.68,0.059-0.877C8.772,178.479,9.337,180.151,10.552,181.428
	L10.552,181.428z"/>
<path id="path42" fill="#00A651" stroke="#02572B" stroke-width="4.3432" stroke-miterlimit="10" d="M40.288,186.417
	c-0.055,6.127-0.396,12.422,0.452,18.291c-0.395,0.369-0.93,0.342-1.411,0.455l-0.284-0.256c-0.48-4.51-1.044-9.643-0.028-14.064
	c0.283-1.563,0.651-3.092,1.076-4.594L40.288,186.417L40.288,186.417z"/>
<path id="path44" fill="#00A651" stroke="#02572B" stroke-width="4.3432" stroke-miterlimit="10" d="M15.528,195.775
	c4.721,3.402,8.196,8.141,12.098,12.309c0.084,0.283-0.284,0.283-0.425,0.396l-1.668,0.369
	c-5.032-5.248-10.402-10.238-13.851-16.336l0.142-0.281C13.096,193.253,14.227,194.783,15.528,195.775L15.528,195.775z"/>
<path id="path46" fill="#00A651" stroke="#02572B" stroke-width="4.3432" stroke-miterlimit="10" d="M44.475,194.246
	c0.253,3.119,0.281,6.465,0.339,9.557c-0.397,0.256-0.936,0.34-1.358,0.369c-0.677-3.375-0.819-7.289,0.621-10.352
	C44.331,193.791,44.443,194.048,44.475,194.246L44.475,194.246z"/>
<path id="path48" fill="#00A651" stroke="#02572B" stroke-width="4.3432" stroke-miterlimit="10" d="M15.98,202.667
	c2.629,1.844,5.031,4.311,6.924,6.889c-0.424,0.457-1.131,0.514-1.724,0.682l-0.312-0.086c-2.063-2.182-4.92-4.168-5.823-6.945
	C14.765,202.638,15.612,202.439,15.98,202.667L15.98,202.667L15.98,202.667z"/>
<path id="path50" fill="#008A42" d="M68.868,23.139c-0.706,1.161-1.979,2.099-3.025,3.005c-8.255,6.776-13.99,15.596-19.335,24.076
	h0.2c6.528-5.955,12.323-13.611,19.841-17.27c0.228-0.085,0.452-0.029,0.651,0.085c0.057,0.511-0.396,0.935-0.792,1.304
	c-4.919,3.318-9.272,7.686-13.453,12.309l-8.481,9.472c0.056,0.085,0.139,0.056,0.199,0.056l1.975-1.898l8.792-8.31
	c2.289-1.928,4.579-4.083,7.237-5.301c0.139-0.03,0.282,0.057,0.311,0.169l-0.199,0.512C54.396,49.54,44.841,57.48,37.971,66.923
	c0.031,0.083,0.114,0.028,0.171,0.057c6.189-5.584,11.788-12.334,18.825-16.107c0.085-0.028,0.169,0,0.227,0.084l-0.058,0.285
	c-3.391,3.573-7.18,6.466-10.402,10.322L35.344,75.401c-0.253,0.17-0.339,0.341-0.48,0.595h0.169l10.09-9.557
	c2.434-2.241,5.004-4.337,7.69-6.097c0.424-0.17,0.819-0.453,1.357-0.397c0.679,0.228,0.225,0.795,0.083,1.163
	c-3.024,3.035-6.386,5.557-9.554,8.538c-5.511,5.216-11.561,10.717-15.094,17.211c-0.229,0.624-0.681,1.249-0.51,1.929l0.45-0.341
	c3.14-3.743,5.994-7.712,9.837-11.002c0.452-0.171,1.047-0.794,1.526-0.313l-0.14,0.512c-5.258,5.415-8.933,11.598-12.128,17.863
	c0.029,0.086-0.027,0.199,0.057,0.285l0.142-0.058c4.608-7.288,9.414-15.625,17.129-20.502l0.452-0.143v0.369
	c-3.448,3.97-7.348,7.884-10.175,12.165c-5.175,7.458-9.274,15.341-12.439,23.624l-5.652,14.66
	c-1.273,14.207,0.058,28.584,2.713,41.797l1.667,8.934c0.139,0.029,0.083,0.227,0.227,0.172l0.224-2.582l0.425-13.609
	c0.651-11.572,4.239-21.894,8.283-32.044c1.215-2.609,2.29-5.275,4.098-7.658c0.113-0.055,0.369-0.283,0.424,0
	c-0.479,2.836-2.035,5.218-3.054,7.855c-3.42,8.393-5.906,17.155-7.632,26.259c-1.385,9.643-1.33,20.418,0.144,30.001
	c0.195,1.162,0.449,2.299,1.128,3.264l0.142-0.285l-0.142-16.587c0.113-4.34,0.509-8.537,1.583-12.479l0.084-0.084l0.285,0.254
	c0.395,3.631-0.17,7.176-0.06,10.861c0.116,6.947,0.622,13.751,0.963,20.644c0.651-5.559,0.367-11.483,0.765-17.214
	c0.281-5.813,1.214-11.342,2.627-16.701c0.113-0.453,0.285-0.852,0.538-1.248c0.282,0.029,0.31,0.342,0.366,0.566l-0.058,2.607
	l-1.3,13.271c-0.537,9.131-0.706,18.999,0.678,27.788l0.253,0.854l0.086-0.057c0.906-9.896,0.395-20.39,2.912-29.604l0.17-0.199
	c0.366,0.709,0.311,1.563,0.311,2.412c-1.019,10.718-0.679,22.06,0.594,32.497c-1.355,0.453-2.77,0.736-4.21,1.02
	c-1.583-3.432-2.715-7.031-4.637-10.322l-2.176-3.402l-7.915-11.341c-7.321-10.238-12.467-21.354-16.593-32.895
	c-0.029-0.284-0.197-0.708,0.115-0.879c0.536,0.196,0.763,0.793,1.044,1.219c1.61,3.432,3.392,6.807,5.429,10.04l8.142,12.791
	c0.197,0.426,0.507,0.68,0.647,1.135h0.088c0.199-0.344-0.255-0.482-0.228-0.822l-3.478-7.574l-4.945-10.574
	c-2.063-4.936-4.016-9.898-5.231-15.202H3.91c1.667,3.148,3.251,6.296,4.806,9.444l6.727,12.902
	c0.339,0.113,0.086,0.539,0.423,0.564c0.172-0.34-0.166-0.564-0.225-0.85l-6.246-16.561c-1.782-4.878-3.533-9.785-4.807-14.888
	c-0.029-0.596-0.14-1.39,0.283-1.815l0.368,0.37l2.828,6.208l6.246,15.257c0.369,0.652,0.537,1.419,0.904,2.07
	c0.282-0.085,0.028-0.397,0.058-0.566c-0.312-0.284-0.143-0.737-0.369-1.05c-1.499-4.538-2.941-9.103-3.762-13.925
	c0.029-0.538-0.111-1.189,0.425-1.476c0.425,0.114,0.509,0.597,0.707,0.909c0.792,3.005,1.95,5.841,3.363,8.592l0.084-0.058
	c-0.565-8.366-3.308-15.794-6.557-23.053c-1.583-4.822-2.686-9.869-4.042-14.831c-0.085-0.482-0.197-1.164,0.141-1.587
	c0.538,0.14,0.764,0.764,1.046,1.189l2.573,6.522l4.664,12.619c0.199,0.681,0.564,1.275,0.764,1.958h0.086v-0.539l-4.468-19.51
	c-1.074-4.879-1.922-9.84-2.318-15.03c0.058-0.142,0.112-0.255,0.227-0.367c0.875,0.935,0.934,2.268,1.186,3.516
	c0.791,4.934,2.176,9.613,3.166,14.461l3.25,13.414l0.088,0.114c0.169-2.212-0.397-4.367-0.68-6.494
	c-1.329-8.593-3.449-16.816-3.421-25.946c0.029-4.141-0.057-8.338-0.084-12.337c0.057-0.367,0-0.768,0.338-1.021
	c0.396,0.029,0.367,0.456,0.568,0.681c0.563,3.007,0.676,6.184,1.016,9.273c0.508,4.536,1.159,9.017,1.724,13.525l2.487,17.582
	l0.059,0.059l0.141-0.964l-0.199-21.778c-0.112-2.667-0.338-5.444-0.084-8.111c0.084-0.027,0.169-0.112,0.285-0.085
	c0.677,1.418,0.732,3.12,0.791,4.792l1.328,20.502c0.086,0.058,0.028,0.256,0.168,0.198c1.725-6.494,2.883-13.214,4.948-19.565
	l4.466-12.875c3.023-8.989,7.208-17.525,12.127-25.719c3.165-5.417,6.36-10.861,10.656-15.796l8.566-9.356
	c2.374-2.354,4.889-4.935,7.771-6.354C68.64,22.996,68.812,23.023,68.868,23.139L68.868,23.139L68.868,23.139z"/>
<path id="path52" fill="#00A651" d="M55.921,26.313c-0.055,0.822-0.677,1.503-1.047,2.239c-6.331,8.877-9.667,19-15.941,27.905
	c-0.905,1.445-1.838,2.921-2.715,4.338c0,0.084-0.056,0.084-0.113,0.143c-0.282-0.284,0.227-0.397,0.198-0.682
	c3.279-9.132,7.52-17.864,13.116-26.031c1.894-2.75,3.676-5.672,6.419-7.912H55.921L55.921,26.313L55.921,26.313z"/>
<path id="path54" fill="#00A651" d="M45.942,30.852l-0.14,0.765c-1.839,3.969-4.156,7.77-5.344,11.996
	c-2.234,8.394-6.217,16.05-7.917,24.67l-3.986,8.933l-0.141,0.283c1.78-13.611,5.37-26.428,11.362-38.281
	c1.752-2.95,3.393-5.954,5.966-8.508C45.829,30.709,45.886,30.823,45.942,30.852L45.942,30.852z"/>
<path id="path56" fill="#00A651" d="M33.308,39.668c-0.424,2.496-1.302,4.821-1.838,7.288l-2.826,13.018
	c-1.046,6.067-1.386,12.42-2.064,18.603c-0.143,1.559,0.057,3.063,0.085,4.593c-0.737,1.7-1.356,3.432-2.122,5.131
	c-1.129-12.393,1.019-24.13,3.648-35.304c1.271-4.479,2.431-8.96,4.494-13.101C32.91,39.726,33.054,39.3,33.308,39.668
	L33.308,39.668z"/>
<path id="path58" fill="#00A651" d="M22.198,58.3c-0.707,9.583-0.734,19.509,0.34,28.896c0.168,2.042,0.508,4.055,0.508,6.098
	c-0.565,1.786-0.988,3.657-1.582,5.444l-0.141-0.141l-1.159-13.244l-0.284-4.169L19.652,69.5c0.143-3.629,0.312-7.258,1.272-10.548
	c0.114-0.454,0.452-0.964,0.905-1.134C22.112,57.791,22.143,58.102,22.198,58.3L22.198,58.3z"/>
<path id="path60" fill="#00A651" d="M35.569,95.818c-0.255,1.983-1.725,3.458-2.403,5.273c-2.769,5.757-4.777,11.854-7.349,17.694
	c-2.062,5.673-3.705,11.514-5.766,17.186l-0.085-0.029c0.141-2.155-0.708-4.592,0.369-6.464c2.941-8.422,4.408-17.44,9.215-25.068
	c1.949-2.921,3.506-5.984,5.655-8.762C35.372,95.59,35.483,95.73,35.569,95.818L35.569,95.818z"/>
<polygon id="polygon62" points="28.529,95.958 28.558,95.958 28.558,96.158 28.529,96.158 "/>
<path id="path64" fill="#00A651" d="M34.749,105.174c-0.507,1.899-1.413,3.659-2.148,5.474l-4.862,12.392
	c-2.94,7.431-4.86,15.285-7.405,22.883l-0.142-0.112l-0.028-5.332l5.511-17.382c2.374-6.238,4.212-12.704,8.537-18.121
	C34.409,104.833,34.665,104.948,34.749,105.174L34.749,105.174z"/>
<path id="path66" fill="#00A651" d="M37.577,105.997c-1.388,6.295-3.28,12.394-5.427,18.376l-2.94,6.238l-4.353,11.853
	c-2.037,6.097-2.177,12.99-2.855,19.65c-0.479-0.65-0.339-1.557-0.623-2.268l-0.96-4.963c1.104-10.35,4.269-19.85,7.775-29.208
	c3.023-6.465,5.568-13.101,8.791-19.453C37.123,106.054,37.378,105.515,37.577,105.997L37.577,105.997L37.577,105.997z"/>
<path id="path68" fill="#00A651" d="M11.343,174.452l5.144,6.947l10.855,15.511c0.339,0.992,0.678,2.07,0.85,3.092l-1.527-1.816
	L15.583,183.98c-2.881-3.829-5.087-7.911-7.066-12.108l0.055-0.313C9.591,172.411,10.495,173.403,11.343,174.452L11.343,174.452z"/>
<path id="path70" fill="#00A651" d="M10.552,181.428l8.51,9.952c3.729,5.473,7.941,10.773,13.116,15.566
	c-0.678,0.428-1.555,0.398-2.29,0.709c-3.845-3.629-7.574-7.656-10.685-11.824l-7.52-10.662c-1.526-2.27-2.911-4.593-4.298-6.948
	c-0.113-0.281-0.31-0.68,0.059-0.877C8.772,178.479,9.337,180.151,10.552,181.428L10.552,181.428z"/>
<path id="path72" fill="#00A651" d="M40.288,186.417c-0.055,6.127-0.396,12.422,0.452,18.291c-0.395,0.369-0.93,0.342-1.411,0.455
	l-0.284-0.256c-0.48-4.51-1.044-9.643-0.028-14.064c0.283-1.563,0.651-3.092,1.076-4.594L40.288,186.417L40.288,186.417z"/>
<path id="path74" fill="#00A651" d="M15.528,195.775c4.721,3.402,8.196,8.141,12.098,12.309c0.084,0.283-0.284,0.283-0.425,0.396
	l-1.668,0.369c-5.032-5.248-10.402-10.238-13.851-16.336l0.142-0.281C13.096,193.253,14.227,194.783,15.528,195.775L15.528,195.775z
	"/>
<path id="path76" fill="#00A651" d="M44.475,194.246c0.253,3.119,0.281,6.465,0.339,9.557c-0.397,0.256-0.936,0.34-1.358,0.369
	c-0.677-3.375-0.819-7.289,0.621-10.352C44.331,193.791,44.443,194.048,44.475,194.246L44.475,194.246z"/>
<path id="path78" fill="#00A651" d="M15.98,202.667c2.629,1.844,5.031,4.311,6.924,6.889c-0.424,0.457-1.131,0.514-1.724,0.682
	l-0.312-0.086c-2.063-2.182-4.92-4.168-5.823-6.945C14.765,202.638,15.612,202.439,15.98,202.667L15.98,202.667L15.98,202.667z"/>
<path id="path80" fill="#008A42" stroke="#02572B" stroke-width="4.3432" stroke-miterlimit="10" d="M183.047,28.055
	c5.342,4.253,9.892,9.811,14.472,14.887c6.644,8.167,11.223,17.213,16.085,26.117c4.636,9.33,7.631,19.311,11.053,29.124
	c1.64,5.925,2.913,11.996,4.437,17.978l0.171-0.284l1.441-22.713c0.168-0.879,0.196-1.815,0.678-2.496
	c0.282-0.114,0.256,0.226,0.312,0.369c0.227,4.083-0.196,8.222-0.254,12.363l-0.058,17.837c0.113,0.14-0.084,0.226,0.084,0.369
	l0.143-0.143l0.283-2.325l1.666-11.91l0.737-5.189l1.384-11.116c0.423-3.346,0.367-6.863,1.271-10.01
	c0.112-0.143,0.112-0.37,0.313-0.425c0.253,0,0.367,0.283,0.424,0.455c0.396,2.637-0.171,5.33-0.057,8.08
	c0.168,8.197-0.652,16.08-2.206,23.594c-0.765,4.312-1.639,8.535-2.034,12.988l0.028,0.624h0.083l0.795-3.006l3.927-16.278
	l2.403-11.201c0.111-0.339,0.255-0.793,0.621-0.906c0.452,0.595,0.083,1.417,0.142,2.125c-0.623,5.417-1.781,10.634-2.855,15.824
	l-3.76,16.675c0.028,0.085-0.027,0.198,0.057,0.254l0.256-0.311l6.896-18.518c0.453-0.992,0.794-2.126,1.612-2.949
	c0.226,0,0.339,0.226,0.366,0.424l-0.141,1.673l-2.939,11.061c-1.726,5.983-4.89,11.37-6.134,17.524
	c-0.735,2.807-1.188,5.7-1.471,8.706c0.085,0.17,0.199,0.028,0.282,0c1.273-2.865,2.573-5.728,3.392-8.792
	c0.112-0.228,0.228-0.455,0.453-0.568c0.765,0.284,0.452,1.276,0.452,1.929c-0.85,4.991-2.544,9.613-3.929,14.377
	c0.028,0.086,0.111,0.027,0.169,0.027l2.401-5.67l5.203-12.648l2.206-4.764c0.111-0.114,0.254-0.17,0.368-0.084
	c0.31,0.595,0.197,1.503,0.085,2.183c-1.782,6.41-3.902,12.677-6.333,18.83l-4.693,12.335c-0.057,0.227-0.283,0.453-0.141,0.707
	c0.253,0,0.111-0.311,0.283-0.453l6.699-12.649l4.833-9.669l0.255-0.226c0.169,0.51-0.055,1.105-0.17,1.588
	c-1.387,5.274-3.391,10.293-5.596,15.2l-7.803,16.646c0.113,0.342-0.537,0.623-0.112,0.82c4.778-8.166,10.658-15.963,14.558-24.529
	c0.256-0.227,0.452-0.766,0.82-0.566c0.086,0.37,0.028,0.907-0.142,1.276c-4.607,13.215-11.166,25.607-19.674,37.175
	c-3.194,4.707-6.954,9.188-9.018,14.379l-2.29,5.813l-0.226,0.172c-1.417-0.398-2.854-0.652-4.212-1.191
	c1.413-10.721,1.554-22.176,0.592-33.147c0.144-0.539-0.083-1.221,0.313-1.645c1.047,1.729,0.933,4.023,1.499,5.982
	c1.072,7.739,1.017,15.937,1.608,23.874c0.65-1.586,0.622-3.572,0.905-5.357c0.766-8.168,0.565-16.901,0-25.097l-1.216-12.108
	c-0.027-0.795-0.171-1.729,0.142-2.438c0.057-0.084,0.143-0.113,0.227-0.084c0.594,1.189,0.933,2.522,1.216,3.855
	c0.99,4.764,1.581,9.668,1.95,14.688l0.508,13.696c0.144,0.963,0.029,2.014,0.256,2.949l0.144-2.58l0.761-16.419
	c0.086-3.658,0.059-7.373-0.141-10.975c0.113-0.625-0.057-1.361,0.342-1.873c0.819,1.985,1.016,4.369,1.299,6.637
	c0.283,3.318,0.565,6.693,0.453,10.152l-0.143,12.419c0.028,0.086-0.027,0.199,0.057,0.227c0.256-0.025,0.339-0.367,0.481-0.564
	c1.639-6.125,1.752-12.847,1.809-19.622c0.368-12.223-3.08-23-6.444-33.747c-1.386-3.857-2.998-7.599-4.663-11.342
	c-0.227-0.681-0.652-1.474-0.425-2.183c0.649,0.226,0.904,0.935,1.27,1.417c4.947,8.763,7.605,18.459,10.149,28.215
	c1.073,4.312,1.217,8.991,1.442,13.669l0.366,12.137c0.058,0.197,0.058,0.426,0.171,0.598l0.168-0.258l2.94-16.107
	c1.95-11.031,2.399-23.196,1.355-34.767l-5.511-14.236c-5.004-12.958-11.928-25.152-22.471-35.7
	c-0.113-0.199-0.285-0.341-0.228-0.596l0.368,0.028c7.942,4.934,12.578,13.328,17.271,20.616l0.143-0.199
	c0.11-1.271-10.373-16.218-12.213-18.176c0-0.143-0.14-0.369,0.084-0.453c2.036,0.311,3.393,2.41,4.892,3.856
	c2.289,2.58,4.381,5.247,6.587,7.883l0.226,0.086c0.143-0.964-0.537-1.702-0.793-2.581c-4.833-7.883-12.437-14.321-19.419-20.644
	c-1.725-1.758-4.154-2.92-5.229-5.133c-0.028-0.228,0.226-0.369,0.396-0.483c0.848-0.028,1.47,0.538,2.178,0.909
	c6.077,4.225,11.391,10.152,17.044,15.2l0.059-0.057c-5.484-6.183-10.037-12.932-15.973-18.83c-2.091-2.071-4.636-3.716-6.388-6.125
	c-0.028-0.255,0.281-0.199,0.423-0.141c7.01,3.914,12.58,10.633,18.771,16.105c0.056-0.028,0.028-0.113,0.028-0.169
	c-4.552-6.153-10.262-11.797-15.972-17.155l-8.621-8.166c-0.228-0.199-0.284-0.455-0.313-0.71c0.397-0.34,0.794,0.114,1.16,0.255
	c6.134,4.056,11.392,9.897,16.935,14.888c0.026-0.227-0.229-0.453-0.454-0.624l-9.163-10.267c-3.76-4.027-7.715-7.884-12.153-10.888
	c-0.339-0.285-0.595-0.625-0.679-1.05c0.256-0.369,0.679-0.141,0.988-0.085c7.407,3.885,13.229,11.4,19.675,17.24v-0.168
	c-5.173-8.281-10.685-16.647-18.628-23.48c-1.215-1.104-2.656-2.07-3.617-3.345c0-0.115,0-0.256,0.141-0.285
	C181.35,26.751,182.198,27.403,183.047,28.055L183.047,28.055L183.047,28.055z"/>
<path id="path82" fill="#00A651" stroke="#02572B" stroke-width="4.3432" stroke-miterlimit="10" d="M193.589,30.012
	c5.372,5.529,8.538,11.996,12.383,18.177c2.741,5.047,4.748,10.379,6.841,15.71c0.112,0.083,0.167,0.253,0.225,0.396
	c-0.084,0.143-0.141,0.028-0.225,0c0.141-0.396-0.425-0.481-0.425-0.822c-2.63-4.083-5.201-8.224-7.604-12.421l-5.146-9.983
	c-1.979-3.77-4.492-7.315-6.614-11.03l0.113-0.227L193.589,30.012L193.589,30.012z"/>
<path id="path84" fill="#00A651" stroke="#02572B" stroke-width="4.3432" stroke-miterlimit="10" d="M211.032,46.231
	c4.832,10.748,7.886,22.231,9.47,34.312c0.084,0.143,0.17,0.342,0.084,0.511c-0.227-0.027-0.144-0.369-0.227-0.511
	c-1.782-4.253-4.184-8.25-4.947-12.93c-1.978-7.458-5.228-14.405-7.264-21.834c-1.217-3.573-3.083-6.89-4.748-10.293
	c-0.171-0.37-0.425-0.879-0.143-1.276C206.649,37.781,208.995,42.006,211.032,46.231L211.032,46.231L211.032,46.231z"/>
<path id="path86" fill="#00A651" stroke="#02572B" stroke-width="4.3432" stroke-miterlimit="10" d="M216.769,44.163
	c3.59,8.534,5.456,17.779,7.011,27.136c1.073,6.466,1.245,13.612,0.734,20.418c-0.82-1.646-1.47-3.461-2.178-5.19
	c0.481-6.266-0.734-12.28-1.216-18.376c-1.386-8.365-3.138-16.589-5.371-24.644c0.028-0.198-0.11-0.34,0.085-0.482
	C216.316,43.168,216.517,43.765,216.769,44.163L216.769,44.163L216.769,44.163z"/>
<path id="path88" stroke="#02572B" stroke-width="4.3432" stroke-miterlimit="10" d="M204.472,59.616l-0.169-0.114
	C204.359,59.532,204.502,59.502,204.472,59.616L204.472,59.616z"/>
<polygon id="polygon90" stroke="#02572B" stroke-width="6" stroke-miterlimit="10" points="204.615,59.759 204.755,59.815 
	204.755,59.958 204.755,59.958 "/>
<path id="path92" fill="#00A651" stroke="#02572B" stroke-width="4.3432" stroke-miterlimit="10" d="M228.585,64.125
	c1.725,12.59,0.396,25.776-0.961,38.112c-0.679-1.844-1.272-3.799-1.668-5.813c1.244-10.407,1.808-21.155,1.103-31.987
	c-0.113-0.963-0.281-1.958-0.143-2.949c0.143-0.228,0.341-0.113,0.539-0.085C228.245,62.141,228.358,63.162,228.585,64.125
	L228.585,64.125L228.585,64.125z"/>
<path id="path94" fill="#00A651" stroke="#02572B" stroke-width="4.3432" stroke-miterlimit="10" d="M214.792,100.422l5.879,9.556
	c3.702,6.892,5.201,14.689,7.746,22.063l0.934,2.947c-0.085,1.474-0.143,2.978-0.313,4.452c-2.119-5.529-3.675-11.371-5.735-16.927
	c-3.197-7.459-5.627-15.256-9.726-22.318c-0.028-0.312-0.37-0.823,0.083-1.049C214.281,99.317,214.423,99.997,214.792,100.422
	L214.792,100.422z"/>
<path id="path96" fill="#00A651" stroke="#02572B" stroke-width="4.3432" stroke-miterlimit="10" d="M215.64,109.583
	c3.958,5.585,5.878,11.995,8.141,18.291l3.981,12.561l1.189,4l-0.142,4.877l-0.084,0.113c-2.996-9.073-5.397-18.402-9.103-27.194
	l-4.155-10.435c-0.426-1.021-0.961-1.985-1.217-3.092C214.733,107.88,215.385,109.156,215.64,109.583L215.64,109.583z"/>
<path id="path98" fill="#00A651" stroke="#02572B" stroke-width="4.3432" stroke-miterlimit="10" d="M212.248,110.121
	c3.138,6.324,5.736,12.846,8.705,19.226c2.855,8.167,5.936,16.277,7.096,25.152l0.594,4.028c-0.342,2.354-0.989,4.563-1.357,6.892
	l-0.196-0.455l-1.217-11.342c-0.425-5.813-3.024-10.749-4.692-16.051c-1.527-4.992-4.663-9.331-5.936-14.433
	c-1.244-4.565-2.995-8.96-3.761-13.754C211.908,109.186,212.105,109.837,212.248,110.121L212.248,110.121L212.248,110.121z"/>
<path id="path100" stroke="#02572B" stroke-width="4.3432" stroke-miterlimit="10" d="M234.69,130.31
	c-0.198-0.112-0.029-0.367,0.057-0.509L234.69,130.31L234.69,130.31z"/>
<path id="path102" stroke="#02572B" stroke-width="4.3432" stroke-miterlimit="10" d="M233.787,154.982
	c-0.057-0.112-0.112-0.454,0.082-0.565C233.844,154.499,233.956,154.87,233.787,154.982L233.787,154.982z"/>
<path id="path104" fill="#00A651" stroke="#02572B" stroke-width="4.3432" stroke-miterlimit="10" d="M240.401,175.627
	c-2.348,4.85-4.975,9.556-8.48,13.894l-10.799,13.697l-0.31,0.283c0.423-1.219,0.509-2.725,1.385-3.83l7.378-10.549l7.322-10.179
	c1.018-1.359,2.262-2.723,3.505-3.885C240.515,175.145,240.515,175.512,240.401,175.627L240.401,175.627L240.401,175.627z"/>
<polygon id="polygon106" stroke="#02572B" stroke-width="6" stroke-miterlimit="10" points="231.242,176.676 231.3,176.676 
	231.3,176.874 231.242,176.874 "/>
<path id="path108" fill="#00A651" stroke="#02572B" stroke-width="4.3432" stroke-miterlimit="10" d="M241.843,181.127
	c-0.764,1.958-2.035,3.714-3.136,5.528l-7.127,10.268c-3.42,4.934-7.52,9.471-11.956,13.867l-0.481,0.367
	c-0.735-0.283-1.581-0.283-2.261-0.707c5.454-5.049,9.837-10.721,13.794-16.477l7.857-9.133c1.158-1.248,1.753-2.778,2.94-3.997
	C241.645,180.844,241.843,180.958,241.843,181.127L241.843,181.127L241.843,181.127z"/>
<path id="path110" fill="#00A651" stroke="#02572B" stroke-width="4.3432" stroke-miterlimit="10" d="M209.051,189.89
	c0.989,3.43,1.61,7.063,1.583,10.832c-0.056,2.693-0.367,5.301-0.763,7.854c-0.395,0.143-0.876-0.057-1.271-0.17
	c-0.536-0.086-0.141-0.623-0.197-0.906c0.818-5.672,0.396-11.824,0.367-17.668l0.085-0.143L209.051,189.89L209.051,189.89
	L209.051,189.89z"/>
<path id="path112" fill="#00A651" stroke="#02572B" stroke-width="4.3432" stroke-miterlimit="10" d="M237.235,196.242
	c-3.419,5.869-8.679,10.746-13.541,16.021c-0.762,0.283-1.439-0.313-2.177-0.426l-0.109-0.17l7.771-8.678
	c2.654-2.381,5.541-4.594,8.056-7.26C237.348,195.843,237.348,196.128,237.235,196.242L237.235,196.242z"/>
<path id="path114" fill="#00A651" stroke="#02572B" stroke-width="4.3432" stroke-miterlimit="10" d="M205.377,198.199
	c0.905,2.922,0.82,6.408,0.226,9.471c-0.451-0.027-1.159-0.057-1.383-0.51c0.169-3.092-0.059-6.467,0.339-9.529
	C204.981,196.753,205.236,197.916,205.377,198.199L205.377,198.199z"/>
<path id="path116" fill="#00A651" stroke="#02572B" stroke-width="4.3432" stroke-miterlimit="10" d="M234.068,206.478
	c-0.254,1.078-0.96,1.957-1.582,2.863c-1.301,1.617-2.912,2.922-4.438,4.367c-0.649,0-1.329-0.227-1.894-0.596
	c2.007-2.664,4.297-5.33,7.123-7.031C233.617,206.023,234.012,206.138,234.068,206.478L234.068,206.478z"/>
<path id="path118" fill="#008A42" d="M183.047,28.055c5.342,4.253,9.892,9.811,14.472,14.887
	c6.644,8.167,11.223,17.213,16.085,26.117c4.636,9.33,7.631,19.311,11.053,29.124c1.64,5.925,2.913,11.996,4.437,17.978l0.171-0.284
	l1.441-22.713c0.168-0.879,0.196-1.815,0.678-2.496c0.282-0.114,0.256,0.226,0.312,0.369c0.227,4.083-0.196,8.222-0.254,12.363
	l-0.058,17.837c0.113,0.14-0.084,0.226,0.084,0.369l0.143-0.143l0.283-2.325l1.666-11.91l0.737-5.189l1.384-11.116
	c0.423-3.346,0.367-6.863,1.271-10.01c0.112-0.143,0.112-0.37,0.313-0.425c0.253,0,0.367,0.283,0.424,0.455
	c0.396,2.637-0.171,5.33-0.057,8.08c0.168,8.197-0.652,16.08-2.206,23.594c-0.765,4.312-1.639,8.535-2.034,12.988l0.028,0.624h0.083
	l0.795-3.006l3.927-16.278l2.403-11.201c0.111-0.339,0.255-0.793,0.621-0.906c0.452,0.595,0.083,1.417,0.142,2.125
	c-0.623,5.417-1.781,10.634-2.855,15.824l-3.76,16.675c0.028,0.085-0.027,0.198,0.057,0.254l0.256-0.311l6.896-18.518
	c0.453-0.992,0.794-2.126,1.612-2.949c0.226,0,0.339,0.226,0.366,0.424l-0.141,1.673l-2.939,11.061
	c-1.726,5.983-4.89,11.37-6.134,17.524c-0.735,2.807-1.188,5.7-1.471,8.706c0.085,0.17,0.199,0.028,0.282,0
	c1.273-2.865,2.573-5.728,3.392-8.792c0.112-0.228,0.228-0.455,0.453-0.568c0.765,0.284,0.452,1.276,0.452,1.929
	c-0.85,4.991-2.544,9.613-3.929,14.377c0.028,0.086,0.111,0.027,0.169,0.027l2.401-5.67l5.203-12.648l2.206-4.764
	c0.111-0.114,0.254-0.17,0.368-0.084c0.31,0.595,0.197,1.503,0.085,2.183c-1.782,6.41-3.902,12.677-6.333,18.83l-4.693,12.335
	c-0.057,0.227-0.283,0.453-0.141,0.707c0.253,0,0.111-0.311,0.283-0.453l6.699-12.649l4.833-9.669l0.255-0.226
	c0.169,0.51-0.055,1.105-0.17,1.588c-1.387,5.274-3.391,10.293-5.596,15.2l-7.803,16.646c0.113,0.342-0.537,0.623-0.112,0.82
	c4.778-8.166,10.658-15.963,14.558-24.529c0.256-0.227,0.452-0.766,0.82-0.566c0.086,0.37,0.028,0.907-0.142,1.276
	c-4.607,13.215-11.166,25.607-19.674,37.175c-3.194,4.707-6.954,9.188-9.018,14.379l-2.29,5.813l-0.226,0.172
	c-1.417-0.398-2.854-0.652-4.212-1.191c1.413-10.721,1.554-22.176,0.592-33.147c0.144-0.539-0.083-1.221,0.313-1.645
	c1.047,1.729,0.933,4.023,1.499,5.982c1.072,7.739,1.017,15.937,1.608,23.874c0.65-1.586,0.622-3.572,0.905-5.357
	c0.766-8.168,0.565-16.901,0-25.097l-1.216-12.108c-0.027-0.795-0.171-1.729,0.142-2.438c0.057-0.084,0.143-0.113,0.227-0.084
	c0.594,1.189,0.933,2.522,1.216,3.855c0.99,4.764,1.581,9.668,1.95,14.688l0.508,13.696c0.144,0.963,0.029,2.014,0.256,2.949
	l0.144-2.58l0.761-16.419c0.086-3.658,0.059-7.373-0.141-10.975c0.113-0.625-0.057-1.361,0.342-1.873
	c0.819,1.985,1.016,4.369,1.299,6.637c0.283,3.318,0.565,6.693,0.453,10.152l-0.143,12.419c0.028,0.086-0.027,0.199,0.057,0.227
	c0.256-0.025,0.339-0.367,0.481-0.564c1.639-6.125,1.752-12.847,1.809-19.622c0.368-12.223-3.08-23-6.444-33.747
	c-1.386-3.857-2.998-7.599-4.663-11.342c-0.227-0.681-0.652-1.474-0.425-2.183c0.649,0.226,0.904,0.935,1.27,1.417
	c4.947,8.763,7.605,18.459,10.149,28.215c1.073,4.312,1.217,8.991,1.442,13.669l0.366,12.137c0.058,0.197,0.058,0.426,0.171,0.598
	l0.168-0.258l2.94-16.107c1.95-11.031,2.399-23.196,1.355-34.767l-5.511-14.236c-5.004-12.958-11.928-25.152-22.471-35.7
	c-0.113-0.199-0.285-0.341-0.228-0.596l0.368,0.028c7.942,4.934,12.578,13.328,17.271,20.616l0.143-0.199
	c0.11-1.271-10.373-16.218-12.213-18.176c0-0.143-0.14-0.369,0.084-0.453c2.036,0.311,3.393,2.41,4.892,3.856
	c2.289,2.58,4.381,5.247,6.587,7.883l0.226,0.086c0.143-0.964-0.537-1.702-0.793-2.581c-4.833-7.883-12.437-14.321-19.419-20.644
	c-1.725-1.758-4.154-2.92-5.229-5.133c-0.028-0.228,0.226-0.369,0.396-0.483c0.848-0.028,1.47,0.538,2.178,0.909
	c6.077,4.225,11.391,10.152,17.044,15.2l0.059-0.057c-5.484-6.183-10.037-12.932-15.973-18.83c-2.091-2.071-4.636-3.716-6.388-6.125
	c-0.028-0.255,0.281-0.199,0.423-0.141c7.01,3.914,12.58,10.633,18.771,16.105c0.056-0.028,0.028-0.113,0.028-0.169
	c-4.552-6.153-10.262-11.797-15.972-17.155l-8.621-8.166c-0.228-0.199-0.284-0.455-0.313-0.71c0.397-0.34,0.794,0.114,1.16,0.255
	c6.134,4.056,11.392,9.897,16.935,14.888c0.026-0.227-0.229-0.453-0.454-0.624l-9.163-10.267c-3.76-4.027-7.715-7.884-12.153-10.888
	c-0.339-0.285-0.595-0.625-0.679-1.05c0.256-0.369,0.679-0.141,0.988-0.085c7.407,3.885,13.229,11.4,19.675,17.24v-0.168
	c-5.173-8.281-10.685-16.647-18.628-23.48c-1.215-1.104-2.656-2.07-3.617-3.345c0-0.115,0-0.256,0.141-0.285
	C181.35,26.751,182.198,27.403,183.047,28.055L183.047,28.055L183.047,28.055z"/>
<path id="path120" fill="#00A651" d="M193.589,30.012c5.372,5.529,8.538,11.996,12.383,18.177c2.741,5.047,4.748,10.379,6.841,15.71
	c0.112,0.083,0.167,0.253,0.225,0.396c-0.084,0.143-0.141,0.028-0.225,0c0.141-0.396-0.425-0.481-0.425-0.822
	c-2.63-4.083-5.201-8.224-7.604-12.421l-5.146-9.983c-1.979-3.77-4.492-7.315-6.614-11.03l0.113-0.227L193.589,30.012
	L193.589,30.012z"/>
<path id="path122" fill="#00A651" d="M211.032,46.231c4.832,10.748,7.886,22.231,9.47,34.312c0.084,0.143,0.17,0.342,0.084,0.511
	c-0.227-0.027-0.144-0.369-0.227-0.511c-1.782-4.253-4.184-8.25-4.947-12.93c-1.978-7.458-5.228-14.405-7.264-21.834
	c-1.217-3.573-3.083-6.89-4.748-10.293c-0.171-0.37-0.425-0.879-0.143-1.276C206.649,37.781,208.995,42.006,211.032,46.231
	L211.032,46.231L211.032,46.231z"/>
<path id="path124" fill="#00A651" d="M216.769,44.163c3.59,8.534,5.456,17.779,7.011,27.136c1.073,6.466,1.245,13.612,0.734,20.418
	c-0.82-1.646-1.47-3.461-2.178-5.19c0.481-6.266-0.734-12.28-1.216-18.376c-1.386-8.365-3.138-16.589-5.371-24.644
	c0.028-0.198-0.11-0.34,0.085-0.482C216.316,43.168,216.517,43.765,216.769,44.163L216.769,44.163L216.769,44.163z"/>
<path id="path126" d="M204.472,59.616l-0.169-0.114C204.359,59.532,204.502,59.502,204.472,59.616L204.472,59.616z"/>
<polygon id="polygon128" points="204.615,59.759 204.755,59.815 204.755,59.958 204.755,59.958 "/>
<path id="path130" fill="#00A651" d="M228.585,64.125c1.725,12.59,0.396,25.776-0.961,38.112c-0.679-1.844-1.272-3.799-1.668-5.813
	c1.244-10.407,1.808-21.155,1.103-31.987c-0.113-0.963-0.281-1.958-0.143-2.949c0.143-0.228,0.341-0.113,0.539-0.085
	C228.245,62.141,228.358,63.162,228.585,64.125L228.585,64.125L228.585,64.125z"/>
<path id="path132" fill="#00A651" d="M214.792,100.422l5.879,9.556c3.702,6.892,5.201,14.689,7.746,22.063l0.934,2.947
	c-0.085,1.474-0.143,2.978-0.313,4.452c-2.119-5.529-3.675-11.371-5.735-16.927c-3.197-7.459-5.627-15.256-9.726-22.318
	c-0.028-0.312-0.37-0.823,0.083-1.049C214.281,99.317,214.423,99.997,214.792,100.422L214.792,100.422z"/>
<path id="path134" fill="#00A651" d="M215.64,109.583c3.958,5.585,5.878,11.995,8.141,18.291l3.981,12.561l1.189,4l-0.142,4.877
	l-0.084,0.113c-2.996-9.073-5.397-18.402-9.103-27.194l-4.155-10.435c-0.426-1.021-0.961-1.985-1.217-3.092
	C214.733,107.88,215.385,109.156,215.64,109.583L215.64,109.583z"/>
<path id="path136" fill="#00A651" d="M212.248,110.121c3.138,6.324,5.736,12.846,8.705,19.226
	c2.855,8.167,5.936,16.277,7.096,25.152l0.594,4.028c-0.342,2.354-0.989,4.563-1.357,6.892l-0.196-0.455l-1.217-11.342
	c-0.425-5.813-3.024-10.749-4.692-16.051c-1.527-4.992-4.663-9.331-5.936-14.433c-1.244-4.565-2.995-8.96-3.761-13.754
	C211.908,109.186,212.105,109.837,212.248,110.121L212.248,110.121L212.248,110.121z"/>
<path id="path138" d="M234.69,130.31c-0.198-0.112-0.029-0.367,0.057-0.509L234.69,130.31L234.69,130.31z"/>
<path id="path140" d="M233.787,154.982c-0.057-0.112-0.112-0.454,0.082-0.565C233.844,154.499,233.956,154.87,233.787,154.982
	L233.787,154.982z"/>
<path id="path142" fill="#00A651" d="M240.401,175.627c-2.348,4.85-4.975,9.556-8.48,13.894l-10.799,13.697l-0.31,0.283
	c0.423-1.219,0.509-2.725,1.385-3.83l7.378-10.549l7.322-10.179c1.018-1.359,2.262-2.723,3.505-3.885
	C240.515,175.145,240.515,175.512,240.401,175.627L240.401,175.627L240.401,175.627z"/>
<polygon id="polygon144" points="231.242,176.676 231.3,176.676 231.3,176.874 231.242,176.874 "/>
<path id="path146" fill="#00A651" d="M241.843,181.127c-0.764,1.958-2.035,3.714-3.136,5.528l-7.127,10.268
	c-3.42,4.934-7.52,9.471-11.956,13.867l-0.481,0.367c-0.735-0.283-1.581-0.283-2.261-0.707c5.454-5.049,9.837-10.721,13.794-16.477
	l7.857-9.133c1.158-1.248,1.753-2.778,2.94-3.997C241.645,180.844,241.843,180.958,241.843,181.127L241.843,181.127L241.843,181.127
	z"/>
<path id="path148" fill="#00A651" d="M209.051,189.89c0.989,3.43,1.61,7.063,1.583,10.832c-0.056,2.693-0.367,5.301-0.763,7.854
	c-0.395,0.143-0.876-0.057-1.271-0.17c-0.536-0.086-0.141-0.623-0.197-0.906c0.818-5.672,0.396-11.824,0.367-17.668l0.085-0.143
	L209.051,189.89L209.051,189.89L209.051,189.89z"/>
<path id="path150" fill="#00A651" d="M237.235,196.242c-3.419,5.869-8.679,10.746-13.541,16.021
	c-0.762,0.283-1.439-0.313-2.177-0.426l-0.109-0.17l7.771-8.678c2.654-2.381,5.541-4.594,8.056-7.26
	C237.348,195.843,237.348,196.128,237.235,196.242L237.235,196.242z"/>
<path id="path152" fill="#00A651" d="M205.377,198.199c0.905,2.922,0.82,6.408,0.226,9.471c-0.451-0.027-1.159-0.057-1.383-0.51
	c0.169-3.092-0.059-6.467,0.339-9.529C204.981,196.753,205.236,197.916,205.377,198.199L205.377,198.199z"/>
<path id="path154" fill="#00A651" d="M234.068,206.478c-0.254,1.078-0.96,1.957-1.582,2.863c-1.301,1.617-2.912,2.922-4.438,4.367
	c-0.649,0-1.329-0.227-1.894-0.596c2.007-2.664,4.297-5.33,7.123-7.031C233.617,206.023,234.012,206.138,234.068,206.478
	L234.068,206.478z"/>
<path id="path156" fill="none" d="M58.777,205.388c5.824,6.607,13.455,8.961,21.851,9.357l20.721,0.143
	c7.04,0.795,13.993,3.232,18.035,9.756c0.338,0.68,0.479,1.615,1.046,2.211h2.657c0.595-0.453,0.538-1.275,0.903-1.871
	c2.829-5.359,8.452-7.998,13.768-9.385c2.007-0.484,4.128-0.74,6.333-0.824l19.136-0.027c8.368-0.396,16.058-2.979,21.652-9.529
	c-3.193,6.666-8.902,13.611-15.658,17.555c-2.516,1.645-5.175,2.947-7.802,4.311c-0.648,0.256,0.056,0.625,0.112,0.906
	c0.99,1.107,1.584,2.383,2.487,3.488c0,0.143,0.255,0.453-0.029,0.453c-26.597-5.018-57.721-5.018-84.321,0l-0.226-0.027
	c0.171-0.936,1.102-1.531,1.472-2.381c0.396-0.709,0.904-1.391,1.47-2.043c-0.113-0.51-0.733-0.566-1.13-0.852
	c-6.616-3.316-13.428-7.514-18.12-14.148c-1.696-2.355-3.223-4.736-4.495-7.262C58.777,205.164,58.805,205.304,58.777,205.388
	L58.777,205.388L58.777,205.388z"/>
<path id="path158" fill="#00A651" stroke="#02572B" stroke-width="4.3432" stroke-miterlimit="10" d="M69.603,230.712
	c0.396,0.994,0.679,2.014,0.763,3.119c-0.876,0.342-1.808,0.566-2.769,0.738l-0.143-0.086l0.198-4.68
	c0.196-0.256,0.622-0.256,0.933-0.17C69.094,229.804,69.32,230.314,69.603,230.712L69.603,230.712L69.603,230.712z"/>
<path id="path160" fill="#00A651" stroke="#02572B" stroke-width="4.3432" stroke-miterlimit="10" d="M66.069,230.316
	c0.197,1.418,0.197,2.92,0.17,4.424l-0.141,0.227l-5.428,1.561c-1.753-1.447-3.421-3.178-5.286-4.596
	c0.367-0.283,0.903-0.367,1.412-0.453c0.708-0.084,1.386-0.369,2.121-0.256c0.368,0.623-0.17,1.418,0.283,2.043
	c0.226,0.113,0.452-0.17,0.536-0.369c0.172-0.596,0.255-1.248,0.228-1.873c0.762-0.227,1.497-0.453,2.345-0.48
	c0.396,0.539,0.029,1.361,0.143,1.982c0,0.568,0.086,1.25,0.593,1.506c0.254,0.027,0.453-0.229,0.564-0.428l0.228-3.174
	c0.511-0.514,1.329-0.283,2.008-0.455L66.069,230.316L66.069,230.316z"/>
<path id="path162" fill="#00A651" stroke="#02572B" stroke-width="4.3432" stroke-miterlimit="10" d="M74.154,232.896l-0.253,0.254
	l-2.403,0.568c-0.45-0.453-0.083-1.248-0.142-1.873c0.426-0.281,1.02-0.424,1.528-0.227
	C73.449,231.791,73.87,232.414,74.154,232.896L74.154,232.896L74.154,232.896z"/>
<path id="path164" fill="#00A651" stroke="#02572B" stroke-width="4.3432" stroke-miterlimit="10" d="M55.583,234.654
	c0.875,0.795,1.779,1.645,2.487,2.553c-0.536,0.254-1.131,0.594-1.809,0.594c-2.091-0.621-4.015-1.559-6.22-1.813
	c-1.667-0.342-3.42-0.482-5.202-0.598c-0.168-0.168-0.195-0.395-0.082-0.594l0.676-0.453c2.121-0.625,4.495-0.908,6.785-0.455
	L55.583,234.654L55.583,234.654z"/>
<path id="path166" fill="#00A651" stroke="#02572B" stroke-width="4.3432" stroke-miterlimit="10" d="M43.851,236.611l10.235,1.76
	c-1.218,0.736-2.801,1.131-4.269,1.586c-3.731-1.105-8.03-0.963-11.476-2.75c-0.171-0.057-0.285-0.283-0.171-0.453
	C39.811,235.816,42.071,236.384,43.851,236.611L43.851,236.611z"/>
<path id="path168" fill="#00A651" stroke="#02572B" stroke-width="4.3432" stroke-miterlimit="10" d="M47.301,240.978
	c-1.386,0.254-2.627,1.561-4.155,0.793c-1.103-0.311-2.347-0.195-3.223-1.02c0.227-0.768,1.215-0.426,1.81-0.652
	C43.654,240.183,45.605,240.298,47.301,240.978L47.301,240.978z"/>
<path id="path170" fill="#00A651" d="M69.603,230.712c0.396,0.994,0.679,2.014,0.763,3.119c-0.876,0.342-1.808,0.566-2.769,0.738
	l-0.143-0.086l0.198-4.68c0.196-0.256,0.622-0.256,0.933-0.17C69.094,229.804,69.32,230.314,69.603,230.712L69.603,230.712
	L69.603,230.712z"/>
<path id="path172" fill="#00A651" d="M66.069,230.316c0.197,1.418,0.197,2.92,0.17,4.424l-0.141,0.227l-5.428,1.561
	c-1.753-1.447-3.421-3.178-5.286-4.596c0.367-0.283,0.903-0.367,1.412-0.453c0.708-0.084,1.386-0.369,2.121-0.256
	c0.368,0.623-0.17,1.418,0.283,2.043c0.226,0.113,0.452-0.17,0.536-0.369c0.172-0.596,0.255-1.248,0.228-1.873
	c0.762-0.227,1.497-0.453,2.345-0.48c0.396,0.539,0.029,1.361,0.143,1.982c0,0.568,0.086,1.25,0.593,1.506
	c0.254,0.027,0.453-0.229,0.564-0.428l0.228-3.174c0.511-0.514,1.329-0.283,2.008-0.455L66.069,230.316L66.069,230.316z"/>
<path id="path174" fill="#00A651" d="M74.154,232.896l-0.253,0.254l-2.403,0.568c-0.45-0.453-0.083-1.248-0.142-1.873
	c0.426-0.281,1.02-0.424,1.528-0.227C73.449,231.791,73.87,232.414,74.154,232.896L74.154,232.896L74.154,232.896z"/>
<path id="path176" fill="#00A651" d="M55.583,234.654c0.875,0.795,1.779,1.645,2.487,2.553c-0.536,0.254-1.131,0.594-1.809,0.594
	c-2.091-0.621-4.015-1.559-6.22-1.813c-1.667-0.342-3.42-0.482-5.202-0.598c-0.168-0.168-0.195-0.395-0.082-0.594l0.676-0.453
	c2.121-0.625,4.495-0.908,6.785-0.455L55.583,234.654L55.583,234.654z"/>
<path id="path178" fill="#00A651" d="M43.851,236.611l10.235,1.76c-1.218,0.736-2.801,1.131-4.269,1.586
	c-3.731-1.105-8.03-0.963-11.476-2.75c-0.171-0.057-0.285-0.283-0.171-0.453C39.811,235.816,42.071,236.384,43.851,236.611
	L43.851,236.611z"/>
<path id="path180" fill="#00A651" d="M47.301,240.978c-1.386,0.254-2.627,1.561-4.155,0.793c-1.103-0.311-2.347-0.195-3.223-1.02
	c0.227-0.768,1.215-0.426,1.81-0.652C43.654,240.183,45.605,240.298,47.301,240.978L47.301,240.978z"/>
<path id="path182" fill="#00A651" stroke="#02572B" stroke-width="4.3432" stroke-miterlimit="10" d="M181.49,233.474
	c-0.056,1.561,0.142,3.119,0,4.594c-0.905-0.143-1.809-0.426-2.715-0.623l-0.084-0.283c0.312-1.477,0.536-3.119,1.81-4.084
	C180.897,233.078,181.378,233.021,181.49,233.474L181.49,233.474L181.49,233.474z"/>
<path id="path184" fill="#00A651" stroke="#02572B" stroke-width="4.3432" stroke-miterlimit="10" d="M185.25,234.042l0.197,3.035
	c0.142,0.141,0.198,0.426,0.454,0.453c0.452,0.057,0.452-0.482,0.622-0.738c0.167-0.822,0.055-1.871,0.081-2.637
	c0.821-0.172,1.669,0.084,2.403,0.342c0.112,0.793,0.057,1.758,0.679,2.297c0.228,0.027,0.341-0.229,0.368-0.396
	c0.17-0.596-0.396-1.477,0.311-1.73c1.103,0.227,2.29,0.227,3.31,0.736c-1.811,1.445-3.506,3.119-5.286,4.623l-5.401-1.504
	l-0.168-0.227c0.055-1.645-0.198-3.402,0.395-4.82C183.896,233.673,184.771,233.447,185.25,234.042L185.25,234.042z"/>
<path id="path186" fill="#00A651" stroke="#02572B" stroke-width="4.3432" stroke-miterlimit="10" d="M177.703,235.404
	c0.027,0.51,0.142,1.332-0.084,1.814l-2.685-0.652c-0.029-0.51,0.48-0.906,0.876-1.305
	C176.347,234.892,177.251,234.978,177.703,235.404L177.703,235.404L177.703,235.404z"/>
<path id="path188" fill="#00A651" stroke="#02572B" stroke-width="4.3432" stroke-miterlimit="10" d="M204.19,238.212
	c0.169,0.141,0.282,0.424,0.111,0.594c-0.962,0.283-2.119,0.143-3.136,0.314c-2.941,0.283-5.628,1.16-8.285,2.182
	c-0.705,0-1.243-0.367-1.893-0.564l0.059-0.227l2.485-2.383C196.84,237.134,201.024,236.593,204.19,238.212L204.19,238.212
	L204.19,238.212z"/>
<path id="path190" fill="#00A651" stroke="#02572B" stroke-width="4.3432" stroke-miterlimit="10" d="M210.889,240.337
	c-0.057,0.426-0.594,0.539-0.904,0.738c-3.336,1.334-7.209,1.391-10.714,2.383c-1.471-0.396-2.939-0.822-4.296-1.477l0.057-0.111
	c4.298-0.623,8.422-1.617,12.777-2.127C208.909,239.769,210.153,239.572,210.889,240.337L210.889,240.337L210.889,240.337z"/>
<path id="path192" fill="#00A651" stroke="#02572B" stroke-width="4.3432" stroke-miterlimit="10" d="M208.939,243.882
	c0.225,0.199,0.195,0.455-0.086,0.625c-1.328,0.596-2.884,0.68-4.326,0.992l-2.713-0.992c0.111-0.283,0.648-0.369,1.02-0.455
	C204.755,243.742,206.989,243.314,208.939,243.882L208.939,243.882L208.939,243.882z"/>
<path id="path194" fill="#00A651" d="M181.49,233.474c-0.056,1.561,0.142,3.119,0,4.594c-0.905-0.143-1.809-0.426-2.715-0.623
	l-0.084-0.283c0.312-1.477,0.536-3.119,1.81-4.084C180.897,233.078,181.378,233.021,181.49,233.474L181.49,233.474L181.49,233.474z"
	/>
<path id="path196" fill="#00A651" d="M185.25,234.042l0.197,3.035c0.142,0.141,0.198,0.426,0.454,0.453
	c0.452,0.057,0.452-0.482,0.622-0.738c0.167-0.822,0.055-1.871,0.081-2.637c0.821-0.172,1.669,0.084,2.403,0.342
	c0.112,0.793,0.057,1.758,0.679,2.297c0.228,0.027,0.341-0.229,0.368-0.396c0.17-0.596-0.396-1.477,0.311-1.73
	c1.103,0.227,2.29,0.227,3.31,0.736c-1.811,1.445-3.506,3.119-5.286,4.623l-5.401-1.504l-0.168-0.227
	c0.055-1.645-0.198-3.402,0.395-4.82C183.896,233.673,184.771,233.447,185.25,234.042L185.25,234.042z"/>
<path id="path198" fill="#00A651" d="M177.703,235.404c0.027,0.51,0.142,1.332-0.084,1.814l-2.685-0.652
	c-0.029-0.51,0.48-0.906,0.876-1.305C176.347,234.892,177.251,234.978,177.703,235.404L177.703,235.404L177.703,235.404z"/>
<path id="path200" fill="#00A651" d="M204.19,238.212c0.169,0.141,0.282,0.424,0.111,0.594c-0.962,0.283-2.119,0.143-3.136,0.314
	c-2.941,0.283-5.628,1.16-8.285,2.182c-0.705,0-1.243-0.367-1.893-0.564l0.059-0.227l2.485-2.383
	C196.84,237.134,201.024,236.593,204.19,238.212L204.19,238.212L204.19,238.212z"/>
<path id="path202" fill="#00A651" d="M210.889,240.337c-0.057,0.426-0.594,0.539-0.904,0.738c-3.336,1.334-7.209,1.391-10.714,2.383
	c-1.471-0.396-2.939-0.822-4.296-1.477l0.057-0.111c4.298-0.623,8.422-1.617,12.777-2.127
	C208.909,239.769,210.153,239.572,210.889,240.337L210.889,240.337L210.889,240.337z"/>
<path id="path204" fill="#00A651" d="M208.939,243.882c0.225,0.199,0.195,0.455-0.086,0.625c-1.328,0.596-2.884,0.68-4.326,0.992
	l-2.713-0.992c0.111-0.283,0.648-0.369,1.02-0.455C204.755,243.742,206.989,243.314,208.939,243.882L208.939,243.882
	L208.939,243.882z"/>
<path id="path206" fill="#00A651" stroke="#02572B" stroke-width="4.3432" stroke-miterlimit="10" d="M113.192,263.01
	c2.431,1.729,4.805,3.631,7.095,5.645v0.17l-4.92,4.451l-0.423,0.17c-6.473-0.48-12.126,1.529-17.412,4.227
	c-0.17-0.029-0.371,0.084-0.481-0.084c0.142-0.854,1.076-1.135,1.612-1.674c3.42-2.553,7.348-3.744,11.448-4.596
	c-6.305-0.195-12.072,1.42-17.442,3.688c-2.432,0.91-4.579,2.469-6.982,3.49l-0.225-0.229c1.471-1.445,3.25-2.326,4.89-3.402
	c5.032-2.949,10.657-4.537,16.737-4.961c0.083-0.059-0.173-0.199,0.054-0.258c-8.198-0.424-16.281,0.539-23.491,3.035
	c-0.168,0.027-0.337-0.027-0.451-0.17c0.792-0.936,2.064-1.051,3.082-1.588c5.907-2.24,12.352-3.178,19.08-3.404l0.14-0.111
	c-3.787-1.277-8.254-1.135-12.522-0.992c-6.219,0.453-12.155,1.561-18.148,2.494c-0.169,0.029-0.311-0.168-0.396-0.313
	c-0.17-0.453,0.283-0.68,0.594-0.766c9.157-1.984,18.515-3.486,28.154-4.311l1.27,0.084c3.309,1.021,6.503,2.27,9.33,4.396
	l0.028-0.027c-1.356-1.76-3.024-3.291-4.636-4.822C110.45,262.983,111.89,262.926,113.192,263.01L113.192,263.01L113.192,263.01z"/>
<path id="path208" fill="#00A651" stroke="#02572B" stroke-width="4.3432" stroke-miterlimit="10" d="M134.28,263.323
	c-1.726,1.445-3.138,2.865-4.437,4.65h0.167c2.799-2.125,5.965-3.461,9.272-4.424c4.409,0.113,8.677,0.822,12.974,1.334
	c5.596,0.822,11.14,1.729,16.508,3.035c0.341,0.141,0.482,0.537,0.284,0.82l-0.395,0.17c-9.16-1.332-18.543-3.516-28.183-2.125
	c-0.82,0.111-1.611,0.281-2.348,0.596c-0.026,0.311,0.312,0.084,0.454,0.225c7.518,0.029,14.499,1.447,20.916,4.227
	c0.312,0.17,0.734,0.313,0.818,0.709c-0.366,0.256-0.9,0.029-1.299-0.084c-6.896-2.383-14.672-3.119-22.473-2.865l-0.112,0.285
	c7.913,0.566,14.925,3.26,21.172,7.854c0.198,0.229,0.566,0.398,0.424,0.711c-1.695-0.539-3.25-1.674-4.889-2.439
	c-6.049-2.836-12.439-4.936-19.675-4.736v0.113c4.777,0.965,9.497,2.439,13.06,6.068c0,0.113-0.113,0.283-0.255,0.229
	c-3.279-1.334-6.417-3.006-9.951-3.689c-4.24-0.965-9.383-0.936-13.002,1.418c-5.031,2.779-9.468,7.912-12.521,12.762
	c-1.639-1.447-3.929-1.361-6.05-1.645l0.17-0.369c7.689-8.363,16.283-16.361,25.157-22.941l0.622-0.283l3.619,0.143L134.28,263.323
	L134.28,263.323z"/>
<path id="path210" fill="#00A651" stroke="#02572B" stroke-width="4.3432" stroke-miterlimit="10" d="M128.06,275.461
	c3.845,3.572,7.379,7.061,10.771,11.002l-0.172,0.141c-2.146,0.029-4.212,0.285-5.85,1.563c-2.487-3.803-5.543-7.656-9.3-10.637
	l-0.142-0.227c1.357-0.879,2.715-1.615,4.298-1.955L128.06,275.461L128.06,275.461z"/>
<path id="path212" fill="#00A651" d="M113.192,263.01c2.431,1.729,4.805,3.631,7.095,5.645v0.17l-4.92,4.451l-0.423,0.17
	c-6.473-0.48-12.126,1.529-17.412,4.227c-0.17-0.029-0.371,0.084-0.481-0.084c0.142-0.854,1.076-1.135,1.612-1.674
	c3.42-2.553,7.348-3.744,11.448-4.596c-6.305-0.195-12.072,1.42-17.442,3.688c-2.432,0.91-4.579,2.469-6.982,3.49l-0.225-0.229
	c1.471-1.445,3.25-2.326,4.89-3.402c5.032-2.949,10.657-4.537,16.737-4.961c0.083-0.059-0.173-0.199,0.054-0.258
	c-8.198-0.424-16.281,0.539-23.491,3.035c-0.168,0.027-0.337-0.027-0.451-0.17c0.792-0.936,2.064-1.051,3.082-1.588
	c5.907-2.24,12.352-3.178,19.08-3.404l0.14-0.111c-3.787-1.277-8.254-1.135-12.522-0.992c-6.219,0.453-12.155,1.561-18.148,2.494
	c-0.169,0.029-0.311-0.168-0.396-0.313c-0.17-0.453,0.283-0.68,0.594-0.766c9.157-1.984,18.515-3.486,28.154-4.311l1.27,0.084
	c3.309,1.021,6.503,2.27,9.33,4.396l0.028-0.027c-1.356-1.76-3.024-3.291-4.636-4.822C110.45,262.983,111.89,262.926,113.192,263.01
	L113.192,263.01L113.192,263.01z"/>
<path id="path214" fill="#00A651" d="M134.28,263.323c-1.726,1.445-3.138,2.865-4.437,4.65h0.167
	c2.799-2.125,5.965-3.461,9.272-4.424c4.409,0.113,8.677,0.822,12.974,1.334c5.596,0.822,11.14,1.729,16.508,3.035
	c0.341,0.141,0.482,0.537,0.284,0.82l-0.395,0.17c-9.16-1.332-18.543-3.516-28.183-2.125c-0.82,0.111-1.611,0.281-2.348,0.596
	c-0.026,0.311,0.312,0.084,0.454,0.225c7.518,0.029,14.499,1.447,20.916,4.227c0.312,0.17,0.734,0.313,0.818,0.709
	c-0.366,0.256-0.9,0.029-1.299-0.084c-6.896-2.383-14.672-3.119-22.473-2.865l-0.112,0.285c7.913,0.566,14.925,3.26,21.172,7.854
	c0.198,0.229,0.566,0.398,0.424,0.711c-1.695-0.539-3.25-1.674-4.889-2.439c-6.049-2.836-12.439-4.936-19.675-4.736v0.113
	c4.777,0.965,9.497,2.439,13.06,6.068c0,0.113-0.113,0.283-0.255,0.229c-3.279-1.334-6.417-3.006-9.951-3.689
	c-4.24-0.965-9.383-0.936-13.002,1.418c-5.031,2.779-9.468,7.912-12.521,12.762c-1.639-1.447-3.929-1.361-6.05-1.645l0.17-0.369
	c7.689-8.363,16.283-16.361,25.157-22.941l0.622-0.283l3.619,0.143L134.28,263.323L134.28,263.323z"/>
<path id="path216" fill="#00A651" d="M128.06,275.461c3.845,3.572,7.379,7.061,10.771,11.002l-0.172,0.141
	c-2.146,0.029-4.212,0.285-5.85,1.563c-2.487-3.803-5.543-7.656-9.3-10.637l-0.142-0.227c1.357-0.879,2.715-1.615,4.298-1.955
	L128.06,275.461L128.06,275.461z"/>
<path id="path218" fill="#0076BD" stroke="#1B1445" stroke-width="3.6194" stroke-miterlimit="10" d="M178.212,232.568
	c-0.481,0.537-0.819,1.334-1.497,1.645c-0.961,0-2.292-0.738-2.771,0.625c-0.367,0.453,0.058,1.104-0.538,1.418
	c-0.564-0.115-1.385-0.199-1.584-0.965c-0.565-1.248-1.327-2.469-1.524-3.801C172.898,231.916,175.525,232.285,178.212,232.568
	L178.212,232.568z"/>
<path id="path220" fill="#0076BD" stroke="#1B1445" stroke-width="3.6194" stroke-miterlimit="10" d="M238.45,218.333
	c-5.286,3.912-10.827,7.43-16.424,10.662l-0.142,0.17c1.046,4.734,1.638,9.781,1.95,14.717c-1.073-0.398-2.12-1.248-3.223-1.814
	c-15.011-7.43-32.197-9.84-49.184-12.309c1.072-0.709,2.315-1.305,3.475-1.957c8.027-4.564,14.585-12.277,18.487-20.359l0.367-0.283
	C209.278,209.398,224.089,213.312,238.45,218.333L238.45,218.333z"/>
<path id="path222" fill="#0076BD" stroke="#1B1445" stroke-width="3.6194" stroke-miterlimit="10" d="M78.762,228.046
	c-0.367,1.561-1.13,3.092-2.12,4.479c-0.424-0.055-1.188,0.568-1.301-0.168c-0.027-0.596-0.255-1.105-0.649-1.559
	c-0.764-0.91-1.753,0.227-2.6-0.172c-0.453-0.482-0.904-0.992-1.243-1.561C73.562,228.869,76.133,228.246,78.762,228.046
	L78.762,228.046z"/>
<path id="path224" fill="#0076BD" stroke="#1B1445" stroke-width="3.6194" stroke-miterlimit="10" d="M55.752,204
	c4.156,9.271,12.551,17.811,21.851,22.176v0.084c-16.509,2.525-33.158,4.682-47.8,11.629c-1.527,0.82-3.108,1.613-4.522,2.58
	l-0.114-0.086c0.426-4.961,0.906-10.01,1.953-14.746c-5.626-3.316-11.168-6.891-16.538-10.746c0.313-0.396,0.905-0.342,1.302-0.596
	c14.075-4.623,28.493-8.621,43.589-10.576L55.752,204L55.752,204L55.752,204z"/>
<path id="path226" fill="#0076BD" stroke="#1B1445" stroke-width="3.6194" stroke-miterlimit="10" d="M127.891,230.117
	c26.738,0.738,52.124,5.758,75.305,15.654l0.255,0.283c-7.717,6.86-12.949,15.624-16.284,24.755h-0.396
	c-34.686-11.482-78.272-13.242-114.653-4.254c-5.313,1.248-10.516,2.723-15.688,4.313c-1.246-2.895-2.318-5.873-3.845-8.68
	c-3.054-5.869-7.235-11.398-12.496-16.104c0.369-0.568,1.328-0.568,1.924-0.992c21.566-9.02,44.944-13.811,69.763-14.775l4.86-0.227
	L127.891,230.117L127.891,230.117L127.891,230.117z"/>
<linearGradient id="path243_1_" gradientUnits="userSpaceOnUse" x1="178.6289" y1="1118.3228" x2="404.2969" y2="1118.3228" gradientTransform="matrix(0.7239 0 0 0.7239 -89.2204 -559.0747)">
	<stop  offset="0" style="stop-color:#0076BD"/>
	<stop  offset="0.1091" style="stop-color:#0076BD"/>
	<stop  offset="0.3212" style="stop-color:#A4CAEC"/>
	<stop  offset="0.503" style="stop-color:#0076BD"/>
	<stop  offset="0.6727" style="stop-color:#A4CAEC"/>
	<stop  offset="0.8727" style="stop-color:#0076BD"/>
	<stop  offset="0.9455" style="stop-color:#0076BD"/>
</linearGradient>
<path id="path243" fill="url(#path243_1_)" d="M127.891,230.117c26.738,0.738,52.124,5.758,75.305,15.654l0.255,0.283
	c-7.717,6.86-12.949,15.624-16.284,24.755h-0.396c-34.686-11.482-78.272-13.242-114.653-4.254
	c-5.313,1.248-10.516,2.723-15.688,4.313c-1.246-2.895-2.318-5.873-3.845-8.68c-3.054-5.869-7.235-11.398-12.496-16.104
	c0.369-0.568,1.328-0.568,1.924-0.992c21.566-9.02,44.944-13.811,69.763-14.775l4.86-0.227L127.891,230.117L127.891,230.117
	L127.891,230.117z"/>
<linearGradient id="path252_1_" gradientUnits="userSpaceOnUse" x1="137.8691" y1="1079.1099" x2="230.4512" y2="1079.1099" gradientTransform="matrix(0.7239 0 0 0.7239 -89.2204 -559.0747)">
	<stop  offset="0.0545" style="stop-color:#0076BD"/>
	<stop  offset="0.1394" style="stop-color:#0076BD"/>
	<stop  offset="0.8545" style="stop-color:#A4CAEC"/>
</linearGradient>
<path id="path252" fill="url(#path252_1_)" d="M55.752,204c4.156,9.271,12.551,17.811,21.851,22.176v0.084
	c-16.509,2.525-33.158,4.682-47.8,11.629c-1.527,0.82-3.108,1.613-4.522,2.58l-0.114-0.086c0.426-4.961,0.906-10.01,1.953-14.746
	c-5.626-3.316-11.168-6.891-16.538-10.746c0.313-0.396,0.905-0.342,1.302-0.596c14.075-4.623,28.493-8.621,43.589-10.576L55.752,204
	L55.752,204L55.752,204z"/>
<path id="path254" fill="#0076BD" d="M78.762,228.046c-0.367,1.561-1.13,3.092-2.12,4.479c-0.424-0.055-1.188,0.568-1.301-0.168
	c-0.027-0.596-0.255-1.105-0.649-1.559c-0.764-0.91-1.753,0.227-2.6-0.172c-0.453-0.482-0.904-0.992-1.243-1.561
	C73.562,228.869,76.133,228.246,78.762,228.046L78.762,228.046z"/>
<linearGradient id="path263_1_" gradientUnits="userSpaceOnUse" x1="360.0625" y1="1083.8462" x2="452.6465" y2="1083.8462" gradientTransform="matrix(0.7239 0 0 0.7239 -89.2204 -559.0747)">
	<stop  offset="0.1212" style="stop-color:#A4CAEC"/>
	<stop  offset="0.8606" style="stop-color:#0076BD"/>
	<stop  offset="0.9455" style="stop-color:#0076BD"/>
</linearGradient>
<path id="path263" fill="url(#path263_1_)" d="M238.45,218.333c-5.286,3.912-10.827,7.43-16.424,10.662l-0.142,0.17
	c1.046,4.734,1.638,9.781,1.95,14.717c-1.073-0.398-2.12-1.248-3.223-1.814c-15.011-7.43-32.197-9.84-49.184-12.309
	c1.072-0.709,2.315-1.305,3.475-1.957c8.027-4.564,14.585-12.277,18.487-20.359l0.367-0.283
	C209.278,209.398,224.089,213.312,238.45,218.333L238.45,218.333z"/>
<path id="path265" fill="#0076BD" d="M178.212,232.568c-0.481,0.537-0.819,1.334-1.497,1.645c-0.961,0-2.292-0.738-2.771,0.625
	c-0.367,0.453,0.058,1.104-0.538,1.418c-0.564-0.115-1.385-0.199-1.584-0.965c-0.565-1.248-1.327-2.469-1.524-3.801
	C172.898,231.916,175.525,232.285,178.212,232.568L178.212,232.568z"/>
<path fill="#FCF8FB" stroke="#1B1445" stroke-width="1.8097" stroke-miterlimit="10" d="M77.949,260.471l-0.223-0.307l-0.173-0.414
	c-0.933-5.592-2.539-11.476-4.91-17.989l-0.059-0.334v-0.307l0.681-0.932c1.979-0.631,3.791-1.053,5.534-1.289l0.821,0.277
	l0.359,0.361l0.207,0.309c0.875,2.064,1.711,4.176,2.491,6.289c0.476-0.049,0.939-0.141,1.408-0.25
	c-0.024-0.182-0.026-0.398,0.034-0.633c0.119-0.865,0.651-1.629,1.405-2.01c0.228-0.115,0.466-0.172,0.713-0.172
	c0.372,0,0.667,0.131,0.881,0.227c0.031,0.012,0.39,0.33,0.423,0.344c0.7-0.264,1.764-1.402,1.349-2.381
	c-0.528,0.844-1.366,1.236-1.738,1.299c-0.413,0.07-0.761,0.102-1.282-0.271l-0.429-0.393c-0.451-0.682-0.846-1.43-0.496-2.609
	c0.695-2.172,2.89-3.051,4.201-3.574c0.929-0.424,2.039-0.629,3.454-0.629c0.937,0,1.871,0.09,2.775,0.178
	c0.411,0.039,0.814,0.078,1.207,0.107c2.764,0.471,5.291,2.502,6.237,4.955c1.332,3.072,1.714,6.797,1.011,9.927l-0.143,0.334
	c-0.616,0.912-1.465,1.264-2.23,1.021c-0.445-0.141-0.69-0.068-0.781,0.055c0,0-0.905,0.396-0.719,1.941
	c0.66-0.609,1.053-0.777,1.523-0.854c0.518-0.084,1.277,0.162,1.597,0.549c0.592,0.719,0.502,1.443,0.174,2.434l-0.058,0.139
	c-1.439,2.816-4.208,3.195-6.728,3.195c-0.498,0-0.999-0.014-1.493-0.027c-0.383-0.014-0.759-0.021-1.127-0.025
	c-3.056-0.283-6.955-1.914-8.145-5.592c-0.286-0.879-0.459-1.795-0.625-2.682c-0.042-0.225-0.085-0.449-0.13-0.676
	c-0.031,0.004-0.063,0.008-0.093,0.014c-0.481,0.061-0.947,0.119-1.361,0.234c0.676,2.666,1.357,5.334,2.059,8.002l-0.251,0.941
	l-0.221,0.221l-0.436,0.254c-1.612,0.439-3.389,0.791-5.764,1.133L77.949,260.471z"/>
<path fill="#FCF8FB" stroke="#1B1445" stroke-width="1.8097" stroke-miterlimit="10" d="M107.786,256.825l-0.952-0.832l-0.139-0.914
	l-0.01-0.109l-0.749-19.409l0.54-0.912l0.276-0.139l0.438-0.105l17.797,0.031l0.97,0.895c0.115,1.338,0.102,2.715,0.09,4.047
	c-0.007,0.664-0.014,1.33-0.004,1.992l-0.329,0.746c-0.351,0.311-0.762,0.582-1.196,0.867c-1.217,0.803-1.793,1.291-1.802,1.91
	c0.14,0.09,0.313,0.176,0.469,0.271c2.552,1.529,2.552,1.529,1.601,3.156c-0.403,0.689-0.889,1.46-1.66,1.849l-0.409,0.104
	l-0.167,0.002c-2.264,0-4.316-1.313-5.234-3.351c-1.208-2.865,0.038-5.604,1.041-7.801l0.036-0.086l-4.435,0.063l0.212,16.456
	c0.035,0.328-0.058,0.639-0.259,0.883c-0.368,0.445-0.912,0.445-1.091,0.445L107.786,256.825z"/>
<path fill="#FCF8FB" stroke="#1B1445" stroke-width="1.8097" stroke-miterlimit="10" d="M129.103,256.754l-0.869-0.6l-0.135-0.332
	l-0.073-0.387l0.329-19.751l0.279-0.664l0.109-0.109l0.682-0.291c0.406-0.004,0.811-0.006,1.216-0.006
	c5.584,0,11.159,0.357,16.571,1.063l0.742,0.531l0.138,0.277l0.098,0.488c-0.064,1.064-0.082,2.184-0.1,3.264
	c-0.031,2.08-0.063,4.232-0.437,6.236l-0.088,0.256c-0.049,0.104-0.088,0.213-0.129,0.32c-0.172,0.465-0.432,1.17-1.234,1.516
	c-0.402,0.203-0.884,0.316-1.414,0.316c-0.606,0-1.166-0.146-1.706-0.285c-0.455-0.117-0.887-0.229-1.276-0.229
	c-0.534,0.027-2.472,1.22-2.044,1.233c0.17,0.143,2.021,0.541,2.125,2.02c0.046,0.648-0.255,1.221-0.6,1.588
	c-1.227,1.303-3.175,0.445-3.955-0.145c-1.795-1.355-1.899-4.335-1.899-4.335v7.024l-0.471,0.832l-0.272,0.168l-0.526,0.139
	L129.103,256.754z M135.434,248.73c0-4.721,2.09-4.33,3.39-4.576c0.162-0.025,0.294-0.045,0.431-0.063
	c0.709-0.092,1.09-0.168,1.277-0.43c0.217-0.773,0.217-1.68,0.217-2.639c0-0.502,0.001-1.004,0.03-1.496
	c-0.02-0.047-0.049-0.094-0.088-0.129c-0.972-0.211-2.046-0.227-3.182-0.238c-0.684-0.012-1.383-0.02-2.074-0.074L135.434,248.73
	L135.434,248.73z"/>
<linearGradient id="path290_1_" gradientUnits="userSpaceOnUse" x1="251.0098" y1="1114.1089" x2="256.6416" y2="1114.1089" gradientTransform="matrix(0.7239 0 0 0.7239 -89.2204 -559.0747)">
	<stop  offset="0.1152" style="stop-color:#D9D9D9"/>
	<stop  offset="0.2151" style="stop-color:#D4D7D8"/>
	<stop  offset="0.3274" style="stop-color:#C7D1D7"/>
	<stop  offset="0.4459" style="stop-color:#B0C6D4"/>
	<stop  offset="0.5686" style="stop-color:#91B8D0"/>
	<stop  offset="0.6946" style="stop-color:#68A6CA"/>
	<stop  offset="0.8214" style="stop-color:#378FC4"/>
	<stop  offset="0.9455" style="stop-color:#0076BD"/>
</linearGradient>
<path id="path290" fill="url(#path290_1_)" stroke="#1B1445" stroke-width="1.8097" stroke-miterlimit="10" d="M96.166,250.811
	c-0.67,0.959-0.883,2.094-1.484,3.051c-2.085-2.375-2.649-5.812-1.872-8.968c0.601-1.275,1.023-2.658,1.801-3.898
	C96.378,243.761,97.048,247.517,96.166,250.811L96.166,250.811z"/>
<path fill="#FCF8FB" stroke="#1B1445" stroke-width="1.8097" stroke-miterlimit="10" d="M165.87,261.645
	c-0.447-0.125-0.902-0.23-1.361-0.338c-1.423-0.33-2.892-0.67-4.21-1.584c-0.529-0.324-0.73-0.836-0.842-1.217
	c-1.388,0.365-2.929,0.697-4.466,0.697c-2.052,0-3.699-0.615-4.894-1.828c-2.816-2.49-1.593-6.629-0.783-9.368l0.181-0.613
	l0.515-2.033l0.376-0.557l0.192-0.139l0.671-0.176c0.827,0.096,1.571,0.145,2.276,0.145c1.928,0,3.016,0.076,4.198-0.43
	c0.713-0.305,1.58-1.176,1.227-1.717c-0.525,0.273-1.253,0.771-2.061,0.564c-0.908-0.236-1.996-1.016-2.199-2.232
	c-0.241-1.451,0.327-2.434,1.713-3.182c0.917-0.393,1.825-0.57,2.833-0.57c1.732,0,3.784,0.547,5.307,1.031
	c0.405,0.127,0.803,0.254,1.19,0.367l0.115,0.041l0.513,0.219c1.038,0.439,2.112,0.893,3.095,1.754l0.288,0.439
	c1.17,3.641,0.143,6.75-0.854,9.757c-0.542,1.643-1.055,3.197-1.224,4.824c-0.333,1.676-0.459,3.396-0.381,5.066l-0.585,0.949
	l-0.19,0.082L165.87,261.645z"/>
<linearGradient id="path311_1_" gradientUnits="userSpaceOnUse" x1="338.6396" y1="1117.5591" x2="348.4688" y2="1117.5591" gradientTransform="matrix(0.7239 0 0 0.7239 -89.2204 -559.0747)">
	<stop  offset="0.1152" style="stop-color:#D9D9D9"/>
	<stop  offset="0.2151" style="stop-color:#D4D7D8"/>
	<stop  offset="0.3274" style="stop-color:#C7D1D7"/>
	<stop  offset="0.4459" style="stop-color:#B0C6D4"/>
	<stop  offset="0.5686" style="stop-color:#91B8D0"/>
	<stop  offset="0.6946" style="stop-color:#68A6CA"/>
	<stop  offset="0.8214" style="stop-color:#378FC4"/>
	<stop  offset="0.9455" style="stop-color:#0076BD"/>
</linearGradient>
<path id="path311" fill="url(#path311_1_)" stroke="#1B1445" stroke-width="1.8097" stroke-miterlimit="10" d="M163.024,244.951
	c-0.097,3.113-0.17,6.229-1.734,8.741c-0.649,0.967-1.685,1.354-2.839,1.305c-0.604-0.049-1.773-0.223-2.11-0.775
	c-1.012-1.451-0.033-3.813,0.761-5.239c1.949-0.145,3.804-0.725,4.96-2.51l0.867-1.621L163.024,244.951L163.024,244.951
	L163.024,244.951z"/>
<g id="XMLID_8_" transform="matrix(0.72387284,0,0,0.72387284,-7.6035448,-9.2231721)">
	<g id="g314">
		<path id="path316" fill="#008A42" d="M262.666,106.756l0.31,15.046c-6.211,10.613-10.581,21.935-10.698,35.063
			c0.59,16.604,4.138,32,7.146,47.594c2.229,13.669,3.513,28.245,2.498,42.704c-2.188,14.727-6.091,29.921-19.995,38.617
			c-8.32,4.862-16.671,9.684-26.125,11.761c-12.998,2.814-26.435,4.503-36.745,13.788V83.412l35.849,0.031
			c0.629,3.883,2.857,7.997,6.837,9.325c4.649,1.337,9.216-1.207,11.906-5.012c0.904-1.408,1.881-2.776,2.466-4.313h26.353
			l0.08,0.44L262.666,106.756L262.666,106.756z"/>
		<path id="path318" fill="#0076BD" d="M179.057,83.412v227.915h-0.548c-8.043-6.737-17.456-10.034-27.49-11.829
			c-11.165-1.727-21.517-5.413-31.081-11.092c-8.789-4.223-16.87-13.081-19.845-22.206c-2.256-6.347-3.822-13.006-4.648-19.979
			c-0.856-16.184,0.546-32.209,3.632-47.135c2.857-15.275,6.53-30.32,6.021-46.815c-0.945-11.241-5.272-21.067-10.629-30.471
			l0.467-30.012v-8.345l0.161-0.07h26.084c0.626,0.819,0.83,1.877,1.523,2.695c2.577,4.193,6.838,7.958,12.072,6.977
			c3.394-0.629,6.318-4.031,7.185-7.288c0.428-0.708,0.112-1.798,0.738-2.385L179.057,83.412z"/>
	</g>
	<g id="g320">
		<path id="path322" fill="none" stroke="#1B1445" stroke-width="2" stroke-miterlimit="10" d="M179.057,311.327h-0.548
			c-8.043-6.737-17.456-10.032-27.49-11.829c-11.165-1.727-21.517-5.413-31.081-11.092c-8.789-4.223-16.87-13.081-19.845-22.206
			c-2.256-6.347-3.822-13.006-4.648-19.979c-0.856-16.184,0.546-32.209,3.632-47.135c2.857-15.275,6.53-30.32,6.021-46.815
			c-0.945-11.241-5.272-21.067-10.629-30.471l0.467-30.012v-8.345l0.161-0.07h26.084c0.626,0.819,0.83,1.877,1.523,2.695
			c2.577,4.193,6.838,7.958,12.072,6.977c3.394-0.629,6.318-4.031,7.185-7.288c0.428-0.708,0.112-1.798,0.738-2.385l36.355,0.039
			l35.848,0.031c0.629,3.883,2.857,7.997,6.838,9.325c4.648,1.337,9.216-1.207,11.903-5.012c0.905-1.408,1.879-2.776,2.467-4.313
			h26.354l0.078,0.44l0.119,22.873l0.312,15.046c-6.211,10.613-10.581,21.936-10.7,35.063c0.59,16.604,4.139,32,7.147,47.594
			c2.227,13.669,3.512,28.245,2.497,42.704c-2.187,14.727-6.091,29.921-19.993,38.617c-8.32,4.862-16.671,9.684-26.126,11.761
			C202.803,300.356,189.367,302.043,179.057,311.327L179.057,311.327z"/>
		
			<line id="line324" fill="none" stroke="#1B1445" stroke-width="2" stroke-miterlimit="10" x1="179.057" y1="83.412" x2="179.057" y2="83.403"/>
		
			<line id="line326" fill="none" stroke="#1B1445" stroke-width="2" stroke-miterlimit="10" x1="179.057" y1="83.412" x2="179.057" y2="311.327"/>
	</g>
</g>
<g id="XMLID_7_" transform="matrix(0.72387284,0,0,0.72387284,-7.6035448,-9.2231721)">
	<g id="g329">
		<path id="path331" fill="#FFFFFF" d="M239.428,126.613c-0.627,0.75-1.871,0.399-2.698,0.827c-4.916,1.02-9.952,4.344-11.981,9.287
			c-2.388,5.87-0.894,13.04-0.081,19.187c0.975,4.394,1.952,8.816,3.313,13.09l5.234,16.653c4.061,12.96,4.301,29.763-0.188,42.584
			c-2.308,5.402-6.759,10.331-11.566,14.335c-2.219,3.203-0.695,7.636,0.897,10.655c2.109,3.362,5.7,5.518,8.476,8.456
			c0.229,0.507-0.465,0.507-0.782,0.588c-4.917,0.591-8.739,3.684-12.652,6.739l-0.227-0.04c-0.159-5.678-1.802-10.851-5.435-15.006
			c-1.642-1.713-3.78-2.623-6.21-2.105c-2.418,0.699-5.147,3.017-5.543,5.712c-0.27,3.454,1.403,6.23,3.126,8.932l4.608,6.111
			l-0.039,0.159c-5.423,0.898-10.66,2.118-15.386,4.665c0.278-1.57,0.936-3.097,1.322-4.706c1.295-4.581,0.201-9.361-3.193-12.615
			c-4.488-4.546-11.755-5.642-17.807-3.567c-4.526,1.646-9.106,6.19-9.295,11.282c-0.119,3.494,1.057,6.427,1.874,9.527l-0.509-0.04
			c-4.489-2.628-9.645-3.645-14.88-4.465c-0.189-0.318,0.081-0.588,0.28-0.828c3.274-4.622,8.121-8.814,7.334-14.965
			c-0.776-2.655-3.394-4.892-6.09-5.28c-2.421-0.399-4.252,0.898-5.891,2.507c-3.406,4.193-4.998,9.166-5.116,14.607
			c-0.357,0.318-0.668-0.27-1.015-0.351c-3.752-3.216-7.773-5.8-12.62-6.458c-0.108-0.081-0.108-0.2-0.108-0.321
			c5.383-4.811,12.488-10.223,10.071-18.132c-1.325-2.396-3.98-3.764-5.822-5.96c-4.836-5.051-7.763-10.89-8.549-17.661
			c-1.949-10.932-1.522-23.702,1.802-33.845l6.12-19.628c2.189-7.877,3.991-16.026,3.754-24.88
			c-0.27-5.801-4.799-11.551-10.313-13.319c-1.75-0.778-3.703-0.977-5.502-1.566v-0.19c5.542-2.906,12.807-8.426,18.978-3.026
			c4.845,4.823,5.076,11.722,5.465,18.49c0.08,19.908-5.305,37.531-6.639,56.849c-0.347,8.965,0.319,17.782,3.981,25.071
			c2.189,4.112,6.29,8.108,10.939,8.656c3.907-0.121,6.637-3.875,8.826-6.78c8.55-13.397,13.078-28.673,12.569-45.676
			c-0.388-1.408-0.347-3.135-1.871-3.914c-1.87-0.43-3.244,0.629-4.447,1.877c-3.872,5.332-5.115,11.83-6.329,18.329
			c-3.673-3.283-7.615-5.947-12.026-7.396l-0.196-0.2c6.013-6.23,12.928-12.61,16.669-20.058c0.987-2.266,1.882-5.442,0.428-7.639
			c-0.577-1.178-1.752-1.757-3.006-1.836c-3.086,0.308-5.425,2.387-7.842,4.263c-1.563,1.377-3.006,2.865-4.381,4.352h-0.188
			c-0.162-5.251-0.4-10.422-0.746-15.554c0.039-0.351,0.507-0.351,0.746-0.232c3.315,0.898,7.962,1.837,11.008-0.318
			c2.229-1.958,2.498-4.771,1.909-7.516c-2.069-5.292-8.229-4.464-13.116-4.853c-0.388-0.44,0.199-0.828,0.277-1.259
			c2.061-3.883,3.196-8.186,4.529-12.379c2.728,3.485,5.305,7.907,9.446,10.063c1.521,0.71,3.831,0.669,5.194-0.429
			c0.976-0.618,1.443-1.647,1.483-2.735c-0.121-3.415-1.912-6.271-3.126-9.056c-1.872-3.684-4.53-7.088-6.678-10.652
			c1.174-0.349,2.428-0.55,3.634-0.83c3.004-0.778,5.781-2.026,8.44-3.674c0.116,0.04,0.427,0.15,0.308,0.389
			c-0.038,3.015-0.27,6.35,0.199,9.206c0.389,2.934,0.657,6.968,4.18,8.695c1.713,0.789,3.821,0.309,5.226-0.819
			c3.008-3.415,2.777-6.23,3.126-10.812l0.081-6.579c1.255,0.429,2.455,1.287,3.75,1.877c2.65,1.178,5.466,1.997,8.432,2.427v0.509
			c-3.822,5.522-7.652,10.894-9.484,17.163c-0.24,1.209-0.388,2.585,0.119,3.713c1.246,1.767,3.354,2.397,5.502,1.929
			c4.529-1.767,7.375-6.701,10.155-10.384h0.159c1.163,4.581,2.845,9.015,4.913,13.278l-0.078,0.32
			c-4.61,0.349-9.914-0.279-12.727,3.875c-1.097,2.547-0.818,6.07,1.133,8.145c3.166,2.936,8.242,1.369,11.912,0.63l0.189,0.12
			c-0.348,5.202-0.585,10.414-0.735,15.664h-0.399c-3.431-3.723-7.184-7.517-11.904-8.536c-1.441-0.08-2.695,0.898-3.324,2.157
			c-1.402,3.164,0.161,6.03,1.445,9.006c3.95,6.659,10.082,12.499,15.825,18.289l-0.081,0.2c-4.459,1.487-8.438,4.274-12.189,7.476
			c-1.245-6.738-2.222-13.587-6.87-18.958c-1.016-1.019-2.309-1.607-3.831-1.247c-1.871,1.097-1.753,3.522-1.99,5.52
			c-0.188,9.794,1.602,18.919,4.499,27.534c2.847,7.169,5.812,14.27,11.316,20.379c1.96,1.878,4.379,3.602,7.104,2.628
			c10.553-3.807,12.661-15.287,13.437-25.192c0.627-13.867-2.496-26.567-4.289-39.486c-1.643-12.582-4.38-27.707,0.185-39.888
			c1.257-2.975,4.142-5.951,7.428-6.38C230.529,120.863,234.78,124.308,239.428,126.613z"/>
	</g>
	<g id="g333">
		<path id="path335" fill="none" stroke="#1B1445" stroke-width="2" stroke-miterlimit="10" d="M172.378,108.912
			c-0.039,3.015-0.267,6.349,0.199,9.205c0.388,2.936,0.656,6.969,4.179,8.695c1.713,0.791,3.823,0.31,5.224-0.816
			c3.008-3.416,2.778-6.233,3.129-10.814l0.077-6.581c1.255,0.43,2.458,1.288,3.754,1.878c2.645,1.178,5.464,1.997,8.43,2.427v0.509
			c-3.822,5.52-7.652,10.892-9.484,17.163c-0.24,1.207-0.389,2.586,0.118,3.713c1.247,1.767,3.356,2.397,5.504,1.928
			c4.53-1.766,7.375-6.7,10.153-10.384h0.158c1.166,4.583,2.845,9.016,4.916,13.279l-0.08,0.321
			c-4.61,0.348-9.913-0.281-12.729,3.873c-1.097,2.546-0.816,6.07,1.133,8.145c3.166,2.937,8.243,1.369,11.912,0.63l0.192,0.119
			c-0.351,5.202-0.59,10.415-0.738,15.666h-0.398c-3.429-3.723-7.185-7.517-11.906-8.536c-1.439-0.08-2.695,0.897-3.323,2.157
			c-1.402,3.165,0.162,6.029,1.446,9.005c3.947,6.66,10.08,12.501,15.822,18.291l-0.081,0.2c-4.456,1.487-8.438,4.273-12.189,7.479
			c-1.244-6.739-2.221-13.589-6.867-18.961c-1.017-1.019-2.31-1.607-3.831-1.247c-1.874,1.097-1.756,3.522-1.993,5.52
			c-0.188,9.796,1.602,18.92,4.501,27.537c2.847,7.168,5.81,14.267,11.316,20.379c1.96,1.875,4.379,3.602,7.104,2.625
			c10.551-3.804,12.661-15.286,13.435-25.191c0.627-13.868-2.496-26.567-4.289-39.487c-1.642-12.582-4.38-27.707,0.188-39.886
			c1.255-2.975,4.14-5.951,7.425-6.378c5.743-0.51,9.991,2.934,14.639,5.24c-0.627,0.75-1.868,0.401-2.695,0.828
			c-4.917,1.02-9.952,4.344-11.983,9.286c-2.388,5.871-0.896,13.04-0.08,19.189c0.974,4.393,1.948,8.816,3.313,13.089l5.234,16.654
			c4.061,12.96,4.301,29.763-0.188,42.582c-2.308,5.402-6.759,10.334-11.568,14.335c-2.218,3.205-0.695,7.638,0.9,10.655
			c2.109,3.362,5.7,5.518,8.476,8.456c0.231,0.51-0.465,0.51-0.784,0.591c-4.917,0.588-8.738,3.682-12.65,6.736l-0.228-0.04
			c-0.159-5.678-1.801-10.851-5.434-15.003c-1.643-1.716-3.781-2.625-6.21-2.105c-2.418,0.696-5.145,3.014-5.541,5.709
			c-0.273,3.456,1.399,6.23,3.123,8.935l4.608,6.111l-0.039,0.159c-5.425,0.896-10.66,2.115-15.389,4.662
			c0.281-1.568,0.938-3.095,1.323-4.703c1.296-4.584,0.201-9.364-3.195-12.618c-4.486-4.544-11.752-5.642-17.804-3.567
			c-4.528,1.649-9.104,6.192-9.295,11.282c-0.117,3.494,1.056,6.43,1.874,9.527l-0.51-0.04c-4.488-2.628-9.641-3.645-14.88-4.463
			c-0.185-0.321,0.082-0.591,0.281-0.828c3.274-4.625,8.121-8.816,7.335-14.965c-0.776-2.655-3.393-4.892-6.091-5.28
			c-2.418-0.402-4.249,0.896-5.891,2.504c-3.404,4.196-4.995,9.166-5.116,14.607c-0.357,0.318-0.665-0.27-1.015-0.351
			c-3.75-3.214-7.771-5.8-12.617-6.458c-0.111-0.081-0.111-0.2-0.111-0.318c5.383-4.811,12.488-10.223,10.071-18.132
			c-1.323-2.396-3.98-3.764-5.822-5.96c-4.837-5.051-7.763-10.892-8.549-17.663c-1.949-10.933-1.521-23.702,1.802-33.845
			l6.12-19.629c2.189-7.876,3.991-16.024,3.754-24.88c-0.27-5.8-4.799-11.551-10.313-13.318c-1.752-0.778-3.703-0.977-5.503-1.568
			v-0.19c5.543-2.905,12.808-8.425,18.978-3.025c4.848,4.822,5.076,11.721,5.465,18.49c0.08,19.908-5.305,37.529-6.637,56.849
			c-0.347,8.965,0.316,17.781,3.98,25.069c2.189,4.115,6.29,8.108,10.938,8.656c3.911-0.119,6.637-3.872,8.829-6.778
			c8.549-13.398,13.075-28.675,12.569-45.678c-0.389-1.407-0.347-3.134-1.871-3.912c-1.873-0.43-3.247,0.629-4.45,1.875
			c-3.872,5.333-5.115,11.831-6.329,18.331c-3.676-3.283-7.614-5.947-12.023-7.396l-0.199-0.2
			c6.011-6.231,12.928-12.61,16.669-20.059c0.987-2.265,1.882-5.442,0.428-7.637c-0.576-1.178-1.75-1.758-3.003-1.836
			c-3.086,0.308-5.425,2.385-7.844,4.263c-1.563,1.377-3.005,2.864-4.381,4.352h-0.188c-0.159-5.251-0.397-10.423-0.746-15.555
			c0.04-0.349,0.507-0.349,0.746-0.231c3.315,0.898,7.962,1.837,11.008-0.318c2.229-1.958,2.498-4.772,1.912-7.516
			c-2.071-5.292-8.231-4.464-13.118-4.854c-0.388-0.438,0.2-0.827,0.281-1.257c2.06-3.883,3.193-8.188,4.528-12.381
			c2.726,3.485,5.305,7.907,9.445,10.063c1.521,0.711,3.831,0.671,5.195-0.428c0.975-0.619,1.441-1.647,1.482-2.735
			c-0.119-3.416-1.913-6.271-3.127-9.056c-1.869-3.684-4.527-7.089-6.675-10.652c1.174-0.349,2.429-0.55,3.632-0.831
			c3.005-0.777,5.781-2.025,8.439-3.672C172.189,108.563,172.497,108.672,172.378,108.912z"/>
	</g>
</g>
<g id="XMLID_6_" transform="matrix(0.72387284,0,0,0.72387284,-7.6035448,-9.2231721)">
	<g id="g338">
		<path id="path340" fill="#008A42" d="M178.967,137.936c5.563,0,10.081,6.37,10.081,14.227c0,7.857-4.518,14.227-10.081,14.227
			V137.936z"/>
		<path id="path342" fill="#0076BD" d="M178.967,137.936v28.454c-5.564,0-10.082-6.37-10.082-14.227
			C168.885,144.306,173.403,137.936,178.967,137.936z"/>
	</g>
	<g id="g344">
		<path id="path346" fill="none" stroke="#1B1445" stroke-width="2.3635" stroke-miterlimit="10" d="M178.967,137.936
			c5.563,0,10.081,6.37,10.081,14.227c0,7.857-4.518,14.227-10.081,14.227c-5.564,0-10.082-6.37-10.082-14.227
			C168.885,144.306,173.403,137.936,178.967,137.936z"/>
		
			<line id="line348" fill="none" stroke="#1B1445" stroke-width="2" stroke-miterlimit="10" x1="178.967" y1="137.936" x2="178.967" y2="166.389"/>
	</g>
</g>
<g id="XMLID_5_" transform="matrix(0.72387284,0,0,0.72387284,-7.6035448,-9.2231721)">
	<g id="g351">
		<path id="path353" fill="#008A42" d="M194.114,242.517h-15.038l-0.009-64.146l-0.177-0.009c0.059-0.819,0.119-1.577,0.188-2.277
			C180.122,186.489,179.443,211.808,194.114,242.517z"/>
		<path id="path355" fill="#0076BD" d="M179.066,178.371l0.008,64.146h-15.035c13.695-28.663,14.012-52.634,14.85-64.157
			L179.066,178.371L179.066,178.371z"/>
	</g>
	<g id="g357">
		<path id="path359" fill="none" stroke="#1B1445" stroke-width="2" stroke-miterlimit="10" d="M178.967,175.125
			c0.038,0.301,0.068,0.629,0.107,0.959c1.045,10.404,0.368,35.723,15.038,66.433h-15.038h-15.035
			c13.695-28.663,14.012-52.634,14.85-64.157c0.059-0.819,0.116-1.577,0.187-2.276c0.039-0.329,0.07-0.658,0.109-0.959"/>
		
			<line id="line361" fill="none" stroke="#1B1445" stroke-width="2" stroke-miterlimit="10" x1="179.066" y1="178.371" x2="179.076" y2="242.517"/>
	</g>
</g>
</svg>
