<?xml version="1.0" encoding="utf-8"?>
<!-- Generator: Adobe Illustrator 17.1.0, SVG Export Plug-In . SVG Version: 6.00 Build 0)  -->
<!DOCTYPE svg PUBLIC "-//W3C//DTD SVG 1.1//EN" "http://www.w3.org/Graphics/SVG/1.1/DTD/svg11.dtd">
<svg version="1.1" id="Слой_2" xmlns="http://www.w3.org/2000/svg" xmlns:xlink="http://www.w3.org/1999/xlink" x="0px" y="0px"
	 viewBox="0 0 1145.2 340.2" enable-background="new 0 0 1145.2 340.2" xml:space="preserve">
<g>
	<g>
		<path fill="#FFFFFF" stroke="#FFFFFF" stroke-miterlimit="10" d="M469.1,161.5h-8.8V95.4h-38.8v66.1h-8.7V87.3h56.3V161.5z"/>
		<path fill="#FFFFFF" stroke="#FFFFFF" stroke-miterlimit="10" d="M564,161.5h-8.6v-49.8c0-3.9,0.2-8.7,0.7-14.4h-0.2
			c-0.8,3.3-1.6,5.7-2.2,7.2l-25.4,57h-4.2l-25.3-56.6c-0.7-1.7-1.5-4.2-2.2-7.6h-0.2c0.3,3,0.4,7.8,0.4,14.5v49.7h-8.4V87.3h11.5
			l22.8,51.8c1.8,4,2.9,6.9,3.4,8.9h0.3c1.5-4.1,2.7-7.1,3.6-9.1l23.2-51.6H564V161.5z"/>
		<path fill="#FFFFFF" stroke="#FFFFFF" stroke-miterlimit="10" d="M645.8,151.8v9.7h-8.1v-9.7h-1.4c-8.3,0-15.1-2.8-20.5-8.5
			s-8.1-12.6-8.1-20.8c0-7.9,2.7-14.5,8.1-19.9s12.3-8.1,20.7-8.1h1.3v-9.3h8.1v9.3h1.2c8.5,0,15.4,2.6,20.7,7.9c5.3,5.3,8,12,8,20
			c0,8.1-2.7,15.1-8.1,20.8s-12.2,8.5-20.5,8.5H645.8z M637.7,144.1v-42.3h-1.3c-5.9,0-10.6,1.9-14.2,5.8c-3.6,3.9-5.4,8.9-5.4,15
			c0,6.6,1.8,11.8,5.3,15.7c3.6,3.9,8.3,5.8,14.2,5.8H637.7z M645.8,101.8v42.3h1.3c5.9,0,10.6-2,14.2-5.9c3.6-3.9,5.3-9.1,5.3-15.7
			c0-6.2-1.8-11.2-5.3-15c-3.6-3.8-8.3-5.7-14.3-5.7H645.8z"/>
		<path fill="#FFFFFF" stroke="#FFFFFF" stroke-miterlimit="10" d="M719.5,162.8c-10.5,0-19-3.5-25.3-10.4c-6.3-6.9-9.5-16-9.5-27.1
			c0-11.9,3.2-21.5,9.7-28.6c6.5-7.1,15.2-10.7,26.3-10.7c10.2,0,18.5,3.5,24.8,10.4c6.3,6.9,9.4,15.9,9.4,27.1
			c0,12.1-3.2,21.7-9.6,28.7S730.3,162.8,719.5,162.8z M720.1,93.9c-7.8,0-14.1,2.8-19,8.4c-4.9,5.6-7.3,13-7.3,22.2
			c0,9.1,2.4,16.5,7.1,22.1c4.7,5.6,10.9,8.4,18.6,8.4c8.1,0,14.6-2.7,19.3-8c4.7-5.3,7-12.7,7-22.3c0-9.8-2.3-17.4-6.8-22.7
			C734.4,96.6,728.2,93.9,720.1,93.9z"/>
		<path fill="#FFFFFF" stroke="#FFFFFF" stroke-miterlimit="10" d="M778.2,133.5v28.1h-8.7V87.3h20.4c7.9,0,14.1,1.9,18.5,5.8
			c4.4,3.9,6.5,9.3,6.5,16.4s-2.4,12.8-7.3,17.3c-4.8,4.5-11.4,6.7-19.6,6.7H778.2z M778.2,95.2v30.4h9.1c6,0,10.6-1.4,13.7-4.1
			c3.2-2.7,4.7-6.6,4.7-11.6c0-9.8-5.8-14.7-17.4-14.7H778.2z"/>
		<path fill="#FFFFFF" stroke="#FFFFFF" stroke-miterlimit="10" d="M878.9,158.4c-5.5,2.9-12.3,4.3-20.5,4.3
			c-10.6,0-19-3.4-25.4-10.2c-6.3-6.8-9.5-15.7-9.5-26.8c0-11.9,3.6-21.5,10.7-28.8c7.1-7.3,16.2-11,27.2-11c7,0,12.9,1,17.5,3.1
			v9.3c-5.3-3-11.2-4.5-17.6-4.5c-8.5,0-15.4,2.8-20.7,8.5c-5.3,5.7-7.9,13.3-7.9,22.8c0,9,2.5,16.2,7.4,21.6c5,5.4,11.4,8,19.5,8
			c7.5,0,13.9-1.7,19.4-5V158.4z"/>
		<path fill="#FFFFFF" stroke="#FFFFFF" stroke-miterlimit="10" d="M951.5,161.5h-9.6l-7.9-20.8h-31.5l-7.4,20.8h-9.7l28.5-74.2h9
			L951.5,161.5z M931.1,132.9l-11.6-31.6c-0.4-1-0.8-2.7-1.1-5h-0.2c-0.3,2.1-0.7,3.8-1.2,5l-11.5,31.6H931.1z"/>
		<path fill="#FFFFFF" stroke="#FFFFFF" stroke-miterlimit="10" d="M1022.2,161.5h-8.7v-53.6c0-4.8,0.2-8.2,0.5-10.2h-0.3
			c-0.7,1.7-1.4,3.2-2.4,4.7l-38.2,59.2h-10.8V87.3h8.7v52.3c0,5.6-0.1,9.2-0.4,10.9h0.2c0.8-1.5,1.7-3.2,2.9-5l37.3-58.2h11.2
			V161.5z M1011.2,64.7c-0.5,4.9-2.5,8.7-5.9,11.5c-3.4,2.8-7.7,4.2-12.8,4.2c-5.2,0-9.5-1.4-12.8-4.2c-3.3-2.8-5.1-6.7-5.4-11.5
			h8.4c0.5,6.5,3.8,9.7,9.9,9.7c2.8,0,5-0.9,6.8-2.6c1.8-1.7,2.9-4.1,3.3-7.2H1011.2z"/>
		<path fill="#FFFFFF" stroke="#FFFFFF" stroke-miterlimit="10" d="M1085.7,95.2h-21.4v66.4h-8.7V95.2h-21.4v-7.9h51.5V95.2z"/>
	</g>
</g>
<g>
	<g>
		<path fill="#FFFFFF" stroke="#FFFFFF" stroke-miterlimit="10" d="M455.8,282.2h-4.8v-12.9h-26.4v12.9h-4.9v-17.8h3.2
			c6.1-8.7,9.1-19,9.2-30.7h18.4v30.7h5.3V282.2z M444.8,264.4v-25.9h-7.9c-0.6,9.6-3.3,18.2-8.1,25.9H444.8z"/>
		<path fill="#FFFFFF" stroke="#FFFFFF" stroke-miterlimit="10" d="M490.2,269.2h-5.7v-30.7h-8.3c-0.9,11.5-2.6,19.6-4.9,24.2
			c-2.3,4.6-5.4,7-9.3,7c-1.2,0-2.2-0.2-3.1-0.5v-4.9c0.8,0.4,1.7,0.6,2.6,0.6c5.1,0,8.4-10.4,9.8-31.2h18.7V269.2z"/>
		<path fill="#FFFFFF" stroke="#FFFFFF" stroke-miterlimit="10" d="M526,269.2h-5.7v-14.7h-4.7c-2.3,0-4.4,1.8-6.2,5.5l-4.6,9.2
			h-6.6l6-11c1.4-2.5,3.1-4.2,5-5c-2.8-0.4-4.9-1.4-6.3-3.1s-2.2-3.7-2.2-6.2c0-3.1,1.1-5.6,3.4-7.5c2.3-1.8,5.5-2.8,9.6-2.8H526
			V269.2z M520.3,249.8v-11.2h-6.7c-4.8,0-7.2,1.8-7.2,5.4c0,3.8,2.3,5.8,7,5.8H520.3z"/>
		<path fill="#FFFFFF" stroke="#FFFFFF" stroke-miterlimit="10" d="M576.6,238.6h-14v30.6h-5.7v-35.5h19.7V238.6z"/>
		<path fill="#FFFFFF" stroke="#FFFFFF" stroke-miterlimit="10" d="M597.6,270.1c-5.2,0-9.4-1.7-12.6-5s-4.7-7.7-4.7-13.2
			c0-6,1.6-10.6,4.9-14c3.3-3.4,7.7-5,13.2-5c5.3,0,9.4,1.6,12.4,4.9c3,3.3,4.5,7.8,4.5,13.6c0,5.7-1.6,10.2-4.8,13.6
			S603,270.1,597.6,270.1z M598,237.7c-3.7,0-6.5,1.2-8.7,3.7c-2.1,2.5-3.2,5.9-3.2,10.3c0,4.2,1.1,7.5,3.2,10
			c2.1,2.4,5,3.6,8.6,3.6c3.7,0,6.5-1.2,8.5-3.6c2-2.4,3-5.8,3-10.2c0-4.4-1-7.9-3-10.3C604.5,238.9,601.7,237.7,598,237.7z"/>
		<path fill="#FFFFFF" stroke="#FFFFFF" stroke-miterlimit="10" d="M648.6,267.6c-2.7,1.6-6,2.5-9.7,2.5c-5.1,0-9.1-1.6-12.3-4.9
			c-3.1-3.3-4.7-7.6-4.7-12.8c0-5.8,1.7-10.5,5-14.1c3.4-3.5,7.8-5.3,13.4-5.3c3.1,0,5.9,0.6,8.3,1.7v5.8c-2.6-1.8-5.5-2.8-8.5-2.8
			c-3.6,0-6.6,1.3-8.9,3.9c-2.3,2.6-3.5,6-3.5,10.2c0,4.2,1.1,7.4,3.3,9.8c2.2,2.4,5.1,3.6,8.8,3.6c3.1,0,6-1,8.7-3.1V267.6z"/>
		<path fill="#FFFFFF" stroke="#FFFFFF" stroke-miterlimit="10" d="M685.4,233.7l-16.3,41.2c-2.9,7.3-7,11-12.3,11
			c-1.5,0-2.7-0.2-3.7-0.5v-5.1c1.2,0.4,2.3,0.6,3.4,0.6c2.9,0,5-1.7,6.4-5.1l2.8-6.7l-13.9-35.4h6.3l9.6,27.3
			c0.1,0.3,0.4,1.2,0.7,2.7h0.2c0.1-0.6,0.3-1.4,0.7-2.6l10.1-27.4H685.4z"/>
		<path fill="#FFFFFF" stroke="#FFFFFF" stroke-miterlimit="10" d="M720.1,269.2h-5.7v-14.3c-4.2,2.3-8,3.4-11.5,3.4
			c-8,0-11.9-4.2-11.9-12.6v-12h5.7v11.7c0,5.2,2.2,7.8,6.7,7.8c3.4,0,7.1-1,11-3v-16.5h5.7V269.2z"/>
		<path fill="#FFFFFF" stroke="#FFFFFF" stroke-miterlimit="10" d="M737.5,264.1h-0.1v21.5h-5.7v-51.8h5.7v6.2h0.1
			c2.8-4.7,6.9-7.1,12.3-7.1c4.6,0,8.1,1.6,10.7,4.8c2.6,3.2,3.8,7.4,3.8,12.8c0,5.9-1.4,10.7-4.3,14.3c-2.9,3.6-6.8,5.4-11.9,5.4
			C743.5,270.1,740,268.1,737.5,264.1z M737.3,249.8v5c0,2.9,1,5.4,2.9,7.5c1.9,2,4.3,3.1,7.3,3.1c3.4,0,6.1-1.3,8.1-4
			s2.9-6.3,2.9-11c0-4-0.9-7-2.7-9.3c-1.8-2.2-4.3-3.4-7.4-3.4c-3.3,0-6,1.2-8,3.4C738.3,243.4,737.3,246.3,737.3,249.8z"/>
		<path fill="#FFFFFF" stroke="#FFFFFF" stroke-miterlimit="10" d="M801.9,252.9h-25.1c0.1,4,1.2,7,3.2,9.2c2,2.1,4.8,3.2,8.4,3.2
			c4,0,7.7-1.3,11-4v5.3c-3.1,2.3-7.2,3.4-12.4,3.4c-5,0-9-1.6-11.8-4.8c-2.9-3.2-4.3-7.8-4.3-13.6c0-5.5,1.6-10,4.7-13.5
			s7-5.2,11.7-5.2s8.2,1.5,10.8,4.5c2.5,3,3.8,7.2,3.8,12.5V252.9z M796.1,248.1c0-3.3-0.8-5.8-2.4-7.7c-1.6-1.8-3.7-2.7-6.5-2.7
			c-2.7,0-5,1-6.8,2.9c-1.9,1.9-3,4.4-3.5,7.5H796.1z"/>
		<path fill="#FFFFFF" stroke="#FFFFFF" stroke-miterlimit="10" d="M857.7,269.2H850l-15.9-17.5h-0.1v17.5h-5.4v-17.5h-0.1
			l-15.9,17.5h-7.6l17.6-18.3L806,233.7h7.2l15.2,16.6h0.1v-16.6h5.4v16.6h0.1l15.2-16.6h7.3L840,250.9L857.7,269.2z"/>
		<path fill="#FFFFFF" stroke="#FFFFFF" stroke-miterlimit="10" d="M895.9,282.2H891v-12.9h-26.4v12.9h-4.9v-17.8h3.2
			c6.1-8.7,9.1-19,9.2-30.7h18.4v30.7h5.3V282.2z M884.9,264.4v-25.9H877c-0.6,9.6-3.3,18.2-8.1,25.9H884.9z"/>
		<path fill="#FFFFFF" stroke="#FFFFFF" stroke-miterlimit="10" d="M932.3,252.9h-25.1c0.1,4,1.2,7,3.2,9.2c2,2.1,4.8,3.2,8.4,3.2
			c4,0,7.7-1.3,11-4v5.3c-3.1,2.3-7.2,3.4-12.4,3.4c-5,0-9-1.6-11.8-4.8c-2.9-3.2-4.3-7.8-4.3-13.6c0-5.5,1.6-10,4.7-13.5
			s7-5.2,11.7-5.2s8.2,1.5,10.8,4.5c2.5,3,3.8,7.2,3.8,12.5V252.9z M926.4,248.1c0-3.3-0.8-5.8-2.4-7.7c-1.6-1.8-3.7-2.7-6.5-2.7
			c-2.7,0-5,1-6.8,2.9c-1.9,1.9-3,4.4-3.5,7.5H926.4z"/>
		<path fill="#FFFFFF" stroke="#FFFFFF" stroke-miterlimit="10" d="M970.3,269.2h-5.7v-16.1h-18.1v16.1h-5.7v-35.5h5.7v14.6h18.1
			v-14.6h5.7V269.2z"/>
		<path fill="#FFFFFF" stroke="#FFFFFF" stroke-miterlimit="10" d="M1011.6,269.2h-5.1v-28.3c-0.5,1-1.3,2.4-2.3,4.2l-16.4,24.1
			h-5.9v-35.5h5.2v28c0.3-0.7,0.9-1.8,1.8-3.4l16.8-24.5h5.9V269.2z"/>
		<path fill="#FFFFFF" stroke="#FFFFFF" stroke-miterlimit="10" d="M1052.8,269.2h-5.1v-28.3c-0.5,1-1.3,2.4-2.3,4.2l-16.4,24.1
			h-5.9v-35.5h5.2v28c0.3-0.7,0.9-1.8,1.8-3.4l16.8-24.5h5.9V269.2z M1050.8,216.5c-0.3,3.3-1.7,5.8-3.9,7.7
			c-2.3,1.9-5.1,2.8-8.5,2.8c-3.5,0-6.4-0.9-8.6-2.8c-2.2-1.9-3.4-4.5-3.6-7.7h5.6c0.3,4.3,2.5,6.5,6.7,6.5c1.8,0,3.4-0.6,4.6-1.7
			c1.2-1.1,1.9-2.7,2.2-4.8H1050.8z"/>
	</g>
</g>
<g>
	<g>
		<g>
			<path fill="#FFFFFF" d="M186.1,56.8c1.8,0,3.6,0.2,5.3,0.6l39.7,8.5c2.8,0.6,4.2,3.7,2.9,6.2l-39.8,74.4c-1,1.8-2.9,3-5,3
				l-50.5,0c-2.1,0-4-1.1-5-2.9l-38-69.2c-1.4-2.6,0.1-5.8,3-6.2l81.9-13.9C182.5,56.9,184.3,56.8,186.1,56.8z"/>
		</g>
		<g>
			<path fill="#FFFFFF" d="M160.6,195.4c1.6,3,5.9,2.9,7.5,0l14.3-26.7c1.5-2.8-0.5-6.3-3.7-6.3l-28.9,0c-3.2,0-5.3,3.5-3.7,6.3
				L160.6,195.4z"/>
		</g>
		<g>
			<path fill="#FFFFFF" d="M57.8,217.5c-0.8-1.6-1.3-3.4-1.3-5.3V86.6c0-4.8,3.5-9,8.6-9.8l1.7-0.3c4.2-0.7,8.4,1.3,10.4,5.1
				l82.7,155c1.7,3.2,5.1,5.3,8.8,5.3h17.1c3.7,0,7-2,8.8-5.3l79.9-150.2c2-3.8,6.2-5.8,10.4-4.9l0.1,0c4.4,0.9,7.5,4.8,7.5,9.3
				v127.3c0,2.1-0.6,4.2-1.7,5.9l0,0c-1,1.7-2.5,3.1-4.4,4.1l-114.6,60.5c-3.7,2-8.2,1.7-11.6-0.6l-98.7-66.5
				C60,220.5,58.7,219.1,57.8,217.5z"/>
		</g>
	</g>
</g>
</svg>
