<?xml version="1.0" encoding="utf-8"?>
<!-- Generator: Adobe Illustrator 15.0.0, SVG Export Plug-In . SVG Version: 6.00 Build 0)  -->
<!DOCTYPE svg PUBLIC "-//W3C//DTD SVG 1.1//EN" "http://www.w3.org/Graphics/SVG/1.1/DTD/svg11.dtd">
<svg version="1.1" id="Слой_1" xmlns="http://www.w3.org/2000/svg" xmlns:xlink="http://www.w3.org/1999/xlink" x="0px" y="0px"
	 width="18px" height="18px" viewBox="0 0 18 18" enable-background="new 0 0 18 18" xml:space="preserve">
<path fill="#706F6F" d="M18,18H0c0-1.422,0.616-2.754,1.491-2.754c0.336,0,0.609-0.271,0.611-0.607V13.74
	c-0.001-0.053-0.02-0.107-0.053-0.146l-0.482-0.591c-0.102-0.122-0.155-0.274-0.157-0.433v-0.563c0-0.128-0.102-0.234-0.233-0.234
	h-0.03c-0.086,0-0.156-0.067-0.156-0.152v-0.622c0-0.087,0.07-0.157,0.156-0.157c0.129,0,0.232-0.104,0.232-0.232V9.77
	C1.38,8.785,2.178,7.985,3.165,7.985h0.009c0.984,0,1.784,0.8,1.787,1.785v0.842H4.949v-0.002c0,0.129,0.104,0.234,0.233,0.234
	c0.085,0,0.155,0.068,0.155,0.155v0.622c0,0.086-0.07,0.154-0.155,0.154H5.15c-0.13,0-0.234,0.104-0.234,0.232v0.563
	c-0.002,0.158-0.056,0.31-0.154,0.432l-0.478,0.59c-0.033,0.043-0.052,0.096-0.052,0.146v0.771h1.419
	c0.671,0,1.219-0.544,1.221-1.215v-1.797c-0.001-0.104-0.037-0.213-0.104-0.295l-0.965-1.178c-0.2-0.244-0.309-0.548-0.311-0.864
	V8.039c0-0.255-0.207-0.467-0.467-0.467h-0.06c-0.171,0-0.311-0.138-0.311-0.309V6.021c0-0.172,0.14-0.313,0.311-0.313
	c0.258,0,0.465-0.208,0.465-0.465V3.567C5.432,1.598,7.03,0,9,0h0.015c1.969,0,3.568,1.598,3.571,3.568v1.679h-0.025V5.246
	c0,0.256,0.211,0.465,0.469,0.465c0.171,0,0.309,0.141,0.309,0.312v1.242c0,0.171-0.138,0.309-0.309,0.309h-0.063
	c-0.261,0-0.468,0.211-0.468,0.466v1.125c-0.004,0.313-0.111,0.618-0.311,0.86l-0.953,1.179c-0.067,0.085-0.104,0.19-0.104,0.295
	v1.797c0.004,0.665,0.551,1.216,1.221,1.211h1.422v-0.769c-0.002-0.051-0.021-0.106-0.053-0.146l-0.482-0.59
	c-0.102-0.122-0.155-0.273-0.157-0.434v-0.562c0-0.128-0.103-0.233-0.233-0.233h-0.029c-0.086,0-0.155-0.068-0.155-0.153v-0.622
	c0-0.087,0.069-0.157,0.155-0.157c0.13,0,0.232-0.104,0.232-0.233V9.77c0.001-0.984,0.799-1.785,1.786-1.785h0.009
	c0.984,0,1.784,0.8,1.787,1.785v0.842H16.62v-0.002c0,0.129,0.104,0.234,0.233,0.234c0.084,0,0.154,0.068,0.154,0.155v0.622
	c0,0.086-0.07,0.154-0.154,0.154H16.82c-0.129,0-0.233,0.104-0.233,0.232v0.563c-0.002,0.158-0.056,0.31-0.153,0.432l-0.479,0.59
	c-0.033,0.043-0.053,0.096-0.053,0.146v0.9c0.002,0.332,0.274,0.607,0.611,0.605l-0.004,0.001C17.384,15.246,18,16.578,18,18"/>
</svg>
