<?xml version="1.0" encoding="utf-8"?>
<!-- Generator: Adobe Illustrator 15.0.0, SVG Export Plug-In . SVG Version: 6.00 Build 0)  -->
<!DOCTYPE svg PUBLIC "-//W3C//DTD SVG 1.1//EN" "http://www.w3.org/Graphics/SVG/1.1/DTD/svg11.dtd">
<svg version="1.1" id="Слой_1" xmlns="http://www.w3.org/2000/svg" xmlns:xlink="http://www.w3.org/1999/xlink" x="0px" y="0px"
	 width="18px" height="18px" viewBox="0 0 18 18" enable-background="new 0 0 18 18" xml:space="preserve">
<path fill="#0070BA" d="M9.031,12c0,1.104-0.897,2-2,2c-1.104,0-2-0.896-2-2s0.896-2,2-2C8.134,10,9.031,10.896,9.031,12z
	 M11.98,8.464L10.566,7.05L9.031,8.585c-0.313-0.182-0.641-0.366-1-0.459V6h-2v2.126c-0.354,0.091-0.729,0.242-1.039,0.42
	L3.495,7.05L2.081,8.464l1.502,1.502C3.397,10.285,3.252,10.635,3.157,11H1.031v2h2.126c0.094,0.367,0.24,0.713,0.427,1.031
	l-1.503,1.504l1.414,1.416l1.507-1.508c0.314,0.184,0.67,0.338,1.029,0.432V18h2v-2.125c0.367-0.096,0.715-0.238,1.034-0.426
	l1.501,1.502l1.414-1.416l-1.508-1.508c0.185-0.313,0.34-0.668,0.432-1.027h2.128v-2h-2.128c-0.094-0.367-0.239-0.711-0.428-1.031
	L11.98,8.464z M1,6V0h11.414L17,4.586V18h-2V6h-4V2H3v4H1z"/>
</svg>
