<?xml version="1.0" encoding="utf-8"?>
<!-- Generator: Adobe Illustrator 15.0.0, SVG Export Plug-In . SVG Version: 6.00 Build 0)  -->
<!DOCTYPE svg PUBLIC "-//W3C//DTD SVG 1.1//EN" "http://www.w3.org/Graphics/SVG/1.1/DTD/svg11.dtd">
<svg version="1.1" id="Слой_1" xmlns="http://www.w3.org/2000/svg" xmlns:xlink="http://www.w3.org/1999/xlink" x="0px" y="0px"
	 width="18px" height="18px" viewBox="0 0 18 18" enable-background="new 0 0 18 18" xml:space="preserve">
<path fill="#2FB4E9" d="M5,6V3c0-0.55-0.45-1-1-1S3,2.45,3,3v3H5z M15,16V3c0-0.55-0.45-1-1-1H6.83C6.94,2.31,7,2.65,7,3v13H15z
	 M17,3v15H5V8H1V3c0-1.66,1.34-3,3-3h3h7C15.66,0,17,1.34,17,3z M9,4h4v2H9V4z M9,12h4v2H9V12z M9,8h4v2H9V8z"/>
</svg>
