<?xml version="1.0" encoding="utf-8"?>
<!-- Generator: Adobe Illustrator 15.0.0, SVG Export Plug-In . SVG Version: 6.00 Build 0)  -->
<!DOCTYPE svg PUBLIC "-//W3C//DTD SVG 1.1//EN" "http://www.w3.org/Graphics/SVG/1.1/DTD/svg11.dtd">
<svg version="1.1" id="Слой_2" xmlns="http://www.w3.org/2000/svg" xmlns:xlink="http://www.w3.org/1999/xlink" x="0px" y="0px"
	 width="12px" height="12px" viewBox="0 0 12 12" enable-background="new 0 0 12 12" xml:space="preserve">
<path fill="#333333" d="M1.381,12.033l-1.414-1.414l1.144-1.145C0.412,8.493,0,7.294,0,6c0-3.309,2.691-6,6-6s6,2.691,6,6
	c0,1.294-0.412,2.493-1.111,3.475l1.078,1.078l-1.414,1.414l-1.078-1.078C8.493,11.588,7.294,12,6,12s-2.494-0.412-3.475-1.111
	L1.381,12.033z M6,2C3.794,2,2,3.794,2,6c0,2.206,1.794,4,4,4c2.206,0,4-1.794,4-4C10,3.794,8.206,2,6,2z M8,5.5H6.5V3h-1v3.5H8V5.5
	z"/>
</svg>
