<?xml version="1.0" encoding="utf-8"?>
<!-- Generator: Adobe Illustrator 15.0.0, SVG Export Plug-In . SVG Version: 6.00 Build 0)  -->
<!DOCTYPE svg PUBLIC "-//W3C//DTD SVG 1.1//EN" "http://www.w3.org/Graphics/SVG/1.1/DTD/svg11.dtd">
<svg version="1.1" id="Слой_1" xmlns="http://www.w3.org/2000/svg" xmlns:xlink="http://www.w3.org/1999/xlink" x="0px" y="0px"
	 width="12px" height="14px" viewBox="0 -1 12 14" enable-background="new 0 -1 12 14" xml:space="preserve">
<path fill="#333333" d="M4.271,2H0V0h4.271C4.616-0.597,5.261-1,6-1c0.743,0,1.384,0.399,1.729,1H12v2H7.73C7.385,2.597,6.741,3,6,3
	C5.263,3,4.617,2.595,4.271,2z"/>
<path fill="#333333" d="M7.272,5c0.346-0.597,0.988-1,1.729-1s1.383,0.403,1.729,1H12v2h-1.27c-0.346,0.598-0.989,1-1.729,1
	C8.259,8,7.616,7.601,7.271,7H0V5H7.272z"/>
<path fill="#333333" d="M1.271,10C1.617,9.403,2.261,9,3,9c0.74,0,1.383,0.402,1.729,1H12v2H4.729C4.383,12.598,3.74,13,3,13
	s-1.386-0.402-1.731-1H0v-2H1.271z"/>
</svg>
