<?xml version="1.0" encoding="utf-8"?>
<!-- Generator: Adobe Illustrator 15.0.0, SVG Export Plug-In . SVG Version: 6.00 Build 0)  -->
<!DOCTYPE svg PUBLIC "-//W3C//DTD SVG 1.1//EN" "http://www.w3.org/Graphics/SVG/1.1/DTD/svg11.dtd">
<svg version="1.1" id="Слой_1" xmlns="http://www.w3.org/2000/svg" xmlns:xlink="http://www.w3.org/1999/xlink" x="0px" y="0px"
	 width="12px" height="13px" viewBox="0 0.5 12 13" enable-background="new 0 0.5 12 13" xml:space="preserve">
<path fill="#333333" d="M4.585,1.5c0.206-0.583,0.762-1,1.415-1c0.654,0,1.21,0.417,1.415,1H12v1H7.414C7.208,3.083,6.653,3.5,6,3.5
	s-1.209-0.417-1.415-1H0v-1H4.585z"/>
<path fill="#333333" d="M9,8.5c0.653,0,1.208-0.417,1.414-1H12v-1h-1.585C10.21,5.917,9.654,5.5,9,5.5c-0.653,0-1.208,0.417-1.414,1
	H0v1h7.586C7.793,8.081,8.349,8.5,9,8.5z"/>
<path fill="#333333" d="M3,13.5c0.653,0,1.208-0.417,1.415-1H12v-1H4.416c-0.206-0.583-0.761-1-1.416-1
	c-0.653,0-1.208,0.417-1.414,1H0v1h1.585C1.791,13.083,2.347,13.5,3,13.5z"/>
</svg>
