<?xml version="1.0" encoding="utf-8"?>
<!-- Generator: Adobe Illustrator 15.0.0, SVG Export Plug-In . SVG Version: 6.00 Build 0)  -->
<!DOCTYPE svg PUBLIC "-//W3C//DTD SVG 1.1//EN" "http://www.w3.org/Graphics/SVG/1.1/DTD/svg11.dtd">
<svg version="1.1" id="Слой_1" xmlns="http://www.w3.org/2000/svg" xmlns:xlink="http://www.w3.org/1999/xlink" x="0px" y="0px"
	 width="12px" height="13px" viewBox="0 0 12 13" enable-background="new 0 0 12 13" xml:space="preserve">
<path fill="#FFFFFF" d="M4.585,1C4.791,0.417,5.347,0,6,0c0.654,0,1.21,0.417,1.415,1H12v1H7.414C7.208,2.583,6.652,3,6,3
	C5.347,3,4.791,2.583,4.585,2H0V1H4.585z M9,8c0.652,0,1.208-0.417,1.414-1H12V6h-1.585C10.21,5.417,9.654,5,9,5
	C8.348,5,7.792,5.417,7.586,6H0v1h7.586C7.793,7.581,8.35,8,9,8z M3,13c0.653,0,1.208-0.417,1.415-1H12v-1H4.416
	C4.21,10.417,3.655,10,3,10c-0.653,0-1.208,0.417-1.414,1H0v1h1.585C1.791,12.583,2.347,13,3,13z"/>
</svg>
