<?xml version="1.0" encoding="utf-8"?>
<!-- Generator: Adobe Illustrator 15.0.0, SVG Export Plug-In . SVG Version: 6.00 Build 0)  -->
<!DOCTYPE svg PUBLIC "-//W3C//DTD SVG 1.1//EN" "http://www.w3.org/Graphics/SVG/1.1/DTD/svg11.dtd">
<svg version="1.1" id="Слой_1" xmlns="http://www.w3.org/2000/svg" xmlns:xlink="http://www.w3.org/1999/xlink" x="0px" y="0px"
	 width="12px" height="13px" viewBox="0 0 12 13" enable-background="new 0 0 12 13" xml:space="preserve">
<path fill="#333333" d="M0,4h12v2l0,0l0,0l0,0l0,0l0,0l0,0l0,0l0,0h-1v5h1v2H0v-2h1V6H0l0,0l0,0l0,0V4z M4,6H2v5h2V6z M7,6H5v5h2V6z
	 M10,6H8v5h0.016H10V6z"/>
<polygon fill="#333333" points="1,4 6,0 11,4 9.4,4.001 6,1.28 2.601,4 "/>
</svg>
