<?xml version="1.0" encoding="utf-8"?>
<!-- Generator: Adobe Illustrator 15.0.0, SVG Export Plug-In . SVG Version: 6.00 Build 0)  -->
<!DOCTYPE svg PUBLIC "-//W3C//DTD SVG 1.1//EN" "http://www.w3.org/Graphics/SVG/1.1/DTD/svg11.dtd">
<svg version="1.1" id="Слой_3" xmlns="http://www.w3.org/2000/svg" xmlns:xlink="http://www.w3.org/1999/xlink" x="0px" y="0px"
	 width="12px" height="12px" viewBox="0 0 12 12" enable-background="new 0 0 12 12" xml:space="preserve">
<path fill="#FFFFFF" d="M5.359,7.348C5.55,7.436,5.778,7.5,6,7.5c0.828,0,1.5-0.672,1.5-1.5c0-0.23-0.053-0.452-0.146-0.646
	l1.092-1.092C8.795,4.752,9,5.352,9,6c0,1.657-1.344,3-3,3C5.352,9,4.752,8.795,4.262,8.445L5.359,7.348z M6,10c3,0,6-3,6-4
	c0-0.586-1.027-1.857-2.482-2.811l2.449-2.449L11.26,0.033L6.641,4.652C6.449,4.563,6.225,4.5,6,4.5C5.172,4.5,4.5,5.171,4.5,6
	c0,0.233,0.051,0.451,0.146,0.648L0.03,11.264l0.707,0.707l2.644-2.645C4.201,9.732,5.1,10,6,10z M6.913,2.088
	C6.611,2.031,6.306,2,6,2C3,2,0,5,0,6c0,0.392,0.461,1.091,1.201,1.796L3,6c0-1.657,1.344-3,3-3L6.913,2.088z"/>
</svg>
