<?xml version="1.0" encoding="utf-8"?>
<!-- Generator: Adobe Illustrator 15.0.0, SVG Export Plug-In . SVG Version: 6.00 Build 0)  -->
<!DOCTYPE svg PUBLIC "-//W3C//DTD SVG 1.1//EN" "http://www.w3.org/Graphics/SVG/1.1/DTD/svg11.dtd">
<svg version="1.1" id="Слой_3" xmlns="http://www.w3.org/2000/svg" xmlns:xlink="http://www.w3.org/1999/xlink" x="0px" y="0px"
	 width="12px" height="12px" viewBox="0 0 12 12" enable-background="new 0 0 12 12" xml:space="preserve">
<path fill="#333333" d="M12,6c0,1-3,4-6,4S0,7,0,6s3-4,6-4S12,5,12,6z M5.999,3c-1.657,0-3,1.343-3,3s1.343,3,3,3S9,7.657,9,6
	S7.656,3,5.999,3z M6,7.5c0.828,0,1.5-0.672,1.5-1.5S6.828,4.5,6,4.5S4.5,5.171,4.5,6S5.172,7.5,6,7.5z"/>
</svg>
