<?xml version="1.0" encoding="utf-8"?>
<!-- Generator: Adobe Illustrator 15.0.0, SVG Export Plug-In . SVG Version: 6.00 Build 0)  -->
<!DOCTYPE svg PUBLIC "-//W3C//DTD SVG 1.1//EN" "http://www.w3.org/Graphics/SVG/1.1/DTD/svg11.dtd">
<svg version="1.1" id="Слой_1" xmlns="http://www.w3.org/2000/svg" xmlns:xlink="http://www.w3.org/1999/xlink" x="0px" y="0px"
	 width="12.418px" height="12px" viewBox="-0.209 0 12.418 12" enable-background="new -0.209 0 12.418 12" xml:space="preserve">
<path fill="#FFFFFF" d="M9.523,11.93c-0.104,0-0.206-0.032-0.294-0.096L5.988,9.477l-3.253,2.353
	c-0.175,0.128-0.412,0.128-0.588-0.002c-0.175-0.127-0.248-0.354-0.18-0.559l1.248-3.808L-0.003,5.12
	c-0.175-0.127-0.249-0.353-0.182-0.559c0.067-0.206,0.259-0.345,0.476-0.345h0L4.276,4.22l1.246-3.806
	C5.589,0.209,5.781,0.07,5.997,0.07h0c0.216,0,0.408,0.14,0.475,0.346l1.236,3.808l4,0.003c0.217,0,0.409,0.14,0.476,0.346
	c0.066,0.207-0.007,0.432-0.183,0.559L8.764,7.472l1.235,3.804c0.066,0.206-0.007,0.432-0.182,0.559
	C9.729,11.897,9.627,11.93,9.523,11.93z M5.989,8.359c0.103,0,0.207,0.032,0.294,0.096l2.289,1.665L7.7,7.434
	c-0.067-0.206,0.007-0.433,0.183-0.56l2.282-1.648L7.346,5.223c-0.217,0-0.409-0.14-0.476-0.346L5.995,2.183L5.113,4.876
	C5.046,5.081,4.854,5.22,4.638,5.22h0L1.83,5.217l2.248,1.635c0.049,0.032,0.094,0.074,0.129,0.124
	c0.094,0.129,0.121,0.296,0.071,0.448l-0.882,2.692l2.3-1.663C5.784,8.391,5.887,8.359,5.989,8.359z"/>
</svg>
