<?xml version="1.0" encoding="utf-8"?>
<!-- Generator: Adobe Illustrator 15.0.0, SVG Export Plug-In . SVG Version: 6.00 Build 0)  -->
<!DOCTYPE svg PUBLIC "-//W3C//DTD SVG 1.1//EN" "http://www.w3.org/Graphics/SVG/1.1/DTD/svg11.dtd">
<svg version="1.1" id="Слой_1" xmlns="http://www.w3.org/2000/svg" xmlns:xlink="http://www.w3.org/1999/xlink" x="0px" y="0px"
	 width="12px" height="12px" viewBox="0 0 12 12" enable-background="new 0 0 12 12" xml:space="preserve">
<path fill="#333333" d="M6,11c-2.757,0-5-2.243-5-5s2.243-5,5-5s5,2.243,5,5S8.757,11,6,11z M6,3C4.346,3,3,4.346,3,6s1.346,3,3,3
	s3-1.346,3-3S7.654,3,6,3z"/>
<polygon fill="#333333" points="6.5,12 5.5,12 5.5,6.5 0,6.5 0,5.5 5.5,5.5 5.5,0 6.5,0 6.5,5.5 12,5.5 12,6.5 6.5,6.5 "/>
</svg>
