<?xml version="1.0" encoding="utf-8"?>
<!-- Generator: Adobe Illustrator 15.0.0, SVG Export Plug-In . SVG Version: 6.00 Build 0)  -->
<!DOCTYPE svg PUBLIC "-//W3C//DTD SVG 1.1//EN" "http://www.w3.org/Graphics/SVG/1.1/DTD/svg11.dtd">
<svg version="1.1" id="Слой_1" xmlns="http://www.w3.org/2000/svg" xmlns:xlink="http://www.w3.org/1999/xlink" x="0px" y="0px"
	 width="12px" height="12px" viewBox="0 0 12 12" enable-background="new 0 0 12 12" xml:space="preserve">
<polygon fill="#FFFFFF" points="7,10 5,10 5,7 2,7 2,5 5,5 5,2 7,2 7,5 10,5 10,7 7,7 "/>
<polygon fill="#FFFFFF" points="0,4 1,4 1,1 4,1 4,0 0,0 "/>
<polygon fill="#FFFFFF" points="4,12 4,11 1,11 1,8 0,8 0,12 "/>
<polygon fill="#FFFFFF" points="12,8 11,8 11,11 8,11 8,12 12,12 "/>
<polygon fill="#FFFFFF" points="11,4 12,4 12,0 12,0 8,0 8,1 11,1 "/>
</svg>
