<?xml version="1.0" encoding="utf-8"?>
<!-- Generator: Adobe Illustrator 15.0.0, SVG Export Plug-In . SVG Version: 6.00 Build 0)  -->
<!DOCTYPE svg PUBLIC "-//W3C//DTD SVG 1.1//EN" "http://www.w3.org/Graphics/SVG/1.1/DTD/svg11.dtd">
<svg version="1.1" id="Слой_1" xmlns="http://www.w3.org/2000/svg" xmlns:xlink="http://www.w3.org/1999/xlink" x="0px" y="0px"
	 width="12px" height="12px" viewBox="0 0 12 12" enable-background="new 0 0 12 12" xml:space="preserve">
<path fill="#FFFFFF" d="M6.5,12h-1v-1.527C3.417,10.241,1.759,8.583,1.528,6.5H0v-1h1.528C1.759,3.417,3.417,1.759,5.5,1.528V0h1
	v1.528c2.083,0.231,3.741,1.89,3.973,3.972H12v1h-1.527c-0.231,2.083-1.89,3.741-3.973,3.973V12z M6.5,6.5v2.965
	C8.03,9.244,9.244,8.03,9.465,6.5H6.5z M2.536,6.5C2.755,8.03,3.969,9.244,5.5,9.465V6.5H2.536z M6.5,5.5h2.965
	C9.244,3.969,8.03,2.755,6.5,2.536V5.5z M2.536,5.5H5.5V2.536C3.969,2.755,2.755,3.969,2.536,5.5z"/>
</svg>
