<?xml version="1.0" encoding="utf-8"?>
<!-- Generator: Adobe Illustrator 15.1.0, SVG Export Plug-In . SVG Version: 6.00 Build 0)  -->
<!DOCTYPE svg PUBLIC "-//W3C//DTD SVG 1.1//EN" "http://www.w3.org/Graphics/SVG/1.1/DTD/svg11.dtd">
<svg version="1.1" id="Layer_2" xmlns="http://www.w3.org/2000/svg" xmlns:xlink="http://www.w3.org/1999/xlink" x="0px" y="0px"
	 width="13px" height="13px" viewBox="0 0 13 13" enable-background="new 0 0 13 13" xml:space="preserve">
<path fill="#FFFFFF" d="M4.604,12.983l-1.586-1.586L1.414,13L0,11.586l4.692-4.691C4.253,6.201,4,5.379,4,4.5C4,2.019,6.019,0,8.5,0
	S13,2.019,13,4.5S10.981,9,8.5,9C7.621,9,6.8,8.747,6.106,8.309L4.432,9.983l1.586,1.586L4.604,12.983z M8.5,2
	C7.121,2,6,3.122,6,4.5S7.121,7,8.5,7S11,5.878,11,4.5S9.879,2,8.5,2z"/>
</svg>
