<?xml version="1.0" encoding="utf-8"?>
<!-- Generator: Adobe Illustrator 15.0.0, SVG Export Plug-In . SVG Version: 6.00 Build 0)  -->
<!DOCTYPE svg PUBLIC "-//W3C//DTD SVG 1.1//EN" "http://www.w3.org/Graphics/SVG/1.1/DTD/svg11.dtd">
<svg version="1.1" id="Слой_1" xmlns="http://www.w3.org/2000/svg" xmlns:xlink="http://www.w3.org/1999/xlink" x="0px" y="0px"
	 width="12px" height="12px" viewBox="0 0 12 12" enable-background="new 0 0 12 12" xml:space="preserve">
<path fill="#FFFFFF" d="M8,1.126C9.403,1.489,10.511,2.596,10.873,4H8V1.126 M4,3.126V7v1h1h3.873C8.429,9.724,6.86,11,5,11
	c-2.206,0-4-1.794-4-4C1,5.14,2.277,3.572,4,3.126 M7,0v5h5C12,2.239,9.762,0,7,0L7,0z M5,2C2.239,2,0,4.239,0,7
	c0,2.762,2.239,5,5,5c2.762,0,5-2.238,5-5H5V2L5,2z"/>
</svg>
