<?xml version="1.0" encoding="utf-8"?>
<!-- Generator: Adobe Illustrator 15.1.0, SVG Export Plug-In . SVG Version: 6.00 Build 0)  -->
<!DOCTYPE svg PUBLIC "-//W3C//DTD SVG 1.1//EN" "http://www.w3.org/Graphics/SVG/1.1/DTD/svg11.dtd">
<svg version="1.1" id="Слой_2" xmlns="http://www.w3.org/2000/svg" xmlns:xlink="http://www.w3.org/1999/xlink" x="0px" y="0px"
	 width="12px" height="12px" viewBox="0 0 12 12" enable-background="new 0 0 12 12" xml:space="preserve">
<path fill="#FFFFFF" d="M5,0h2v6H5V0z M3,0.805C1.208,1.844,0,3.783,0,6c0,3.309,2.691,6,6,6c3.309,0,6-2.691,6-6
	c0-2.218-1.209-4.159-3.004-5.197l0.008,2.559C9.623,4.065,10,4.99,10,6c0,2.206-1.794,4-4,4S2,8.206,2,6
	c0-1.012,0.377-1.937,0.999-2.642L3,0.805z"/>
</svg>
