<?xml version="1.0" encoding="utf-8"?>
<!-- Generator: Adobe Illustrator 15.0.0, SVG Export Plug-In . SVG Version: 6.00 Build 0)  -->
<!DOCTYPE svg PUBLIC "-//W3C//DTD SVG 1.1//EN" "http://www.w3.org/Graphics/SVG/1.1/DTD/svg11.dtd">
<svg version="1.1" id="Слой_1" xmlns="http://www.w3.org/2000/svg" xmlns:xlink="http://www.w3.org/1999/xlink" x="0px" y="0px"
	 width="150px" height="100px" viewBox="-25 0 150 100" enable-background="new -25 0 150 100" xml:space="preserve">
<line display="none" fill="none" stroke="#000000" stroke-width="2" stroke-miterlimit="10" x1="0" y1="88" x2="100" y2="88"/>
<polyline display="none" fill="none" stroke="#000000" stroke-width="2" stroke-miterlimit="10" points="56,12 88,12 88,100 "/>
<polyline display="none" fill="none" stroke="#000000" stroke-width="2" stroke-miterlimit="10" points="12,100 12,12 44,12 "/>
<path display="none" fill="none" stroke="#000000" stroke-width="2" stroke-miterlimit="10" d="M56,0v18c0,3.313-2.688,6-6,6
	c-3.313,0-6-2.687-6-6V0"/>
<line display="none" fill="none" stroke="#000000" stroke-width="2" stroke-linecap="round" stroke-miterlimit="10" x1="50" y1="6" x2="50" y2="18"/>
<path display="none" fill="#010101" d="M73.98,75.871c-0.025-5.898-4.812-10.67-10.709-10.678H58.09
	c-0.383,0.004-0.695-0.303-0.701-0.688l0,0v-3.934l2.068-2.533c0.809-0.99,1.25-2.229,1.252-3.507v-1.75
	c1.214-0.413,2.029-1.554,2.031-2.836V46.95c0-1.222-0.742-2.322-1.874-2.78v-1.232c2.729-0.584,4.469-3.271,3.885-6
	c-0.138-0.644-0.399-1.254-0.771-1.797c-0.353-0.513-1.053-0.643-1.563-0.292c-0.054,0.035-0.103,0.075-0.146,0.119
	c-0.195,0.188-0.416,0.345-0.656,0.469c0.107-1.668-0.614-3.281-1.93-4.313c-0.49-0.381-1.195-0.293-1.578,0.197
	c-0.037,0.049-0.07,0.101-0.101,0.154c-0.258,0.477-0.647,0.867-1.125,1.124c-4.644-3.801-11.489-3.118-15.29,1.525
	c-1.593,1.946-2.462,4.386-2.458,6.901v3.144c-1.133,0.458-1.874,1.559-1.874,2.78v2.997c0,1.283,0.817,2.423,2.031,2.836v1.75
	c0.002,1.276,0.444,2.516,1.251,3.507l2.068,2.533v3.934c-0.004,0.385-0.318,0.689-0.701,0.688l0,0h-5.182
	c-5.911,0.01-10.7,4.8-10.708,10.712v1.09c0,0.621,0.503,1.124,1.124,1.124h45.71c0.621,0,1.125-0.503,1.125-1.124v-1.124H73.98z"/>
<g>
	<path fill="#333333" d="M49.999,2.5c0.002,0,0.003,0,0.006,0c4.778,0.001,9.369,1.816,12.858,5.078
		c0.461,0.433,1.063,0.662,1.674,0.662c0.236,0,0.478-0.034,0.709-0.104c1.702-0.503,3.258-1.411,4.539-2.646
		c0.942,1.76,0.969,3.867,0.083,5.651c-0.61,1.212-0.123,2.688,1.094,3.297c0.299,0.15,0.625,0.238,0.961,0.258
		c0.208,0.011,0.419,0.018,0.626,0.018c1.701,0,3.383-0.393,4.92-1.147c0.373,1.993-0.257,4.045-1.692,5.481
		c-1.126,1.147-2.662,1.789-4.263,1.789c-0.076,0-0.147-0.001-0.223-0.003c-0.656,0.001-1.283,0.255-1.762,0.705
		c-0.472,0.46-0.736,1.094-0.736,1.752v6.895c0,1.357,1.1,2.456,2.459,2.456c0.904,0,1.634,0.735,1.634,1.64v6.551
		c0,0.906-0.729,1.638-1.634,1.638h-0.346c-1.355,0-2.46,1.104-2.46,2.459v5.928c-0.008,1.667-0.581,3.273-1.632,4.559l-5.022,6.223
		c-0.361,0.437-0.56,0.988-0.56,1.555v9.465c0.017,3.548,2.894,6.415,6.441,6.415c0.002,0,0.004,0,0.007,0h11.324
		C89.188,79.087,97.451,87.316,97.5,97.5h-95c0.055-10.178,8.313-18.408,18.491-18.418h11.328c0.002,0,0.005,0,0.006,0
		c3.546,0,6.425-2.872,6.439-6.416v-9.477c-0.002-0.564-0.198-1.118-0.557-1.554l-5.079-6.222c-1.054-1.285-1.633-2.893-1.638-4.56
		v-5.927c0-1.355-1.1-2.459-2.456-2.459h-0.328c-0.904,0-1.64-0.731-1.64-1.638v-6.552c0-0.904,0.734-1.64,1.64-1.64
		c1.355,0,2.456-1.099,2.456-2.456v-8.854C31.167,10.929,39.6,2.5,49.999,2.5 M50.006,0L50.006,0h-0.007
		C38.238,0,28.667,9.567,28.663,21.329v8.854c-0.026,0-0.051,0-0.078,0c-2.204,0-4.018,1.841-4.018,4.097v6.551
		c0,2.282,1.856,4.138,4.14,4.138h0.328l-0.044,5.889c0.007,2.238,0.789,4.416,2.204,6.143l5.076,6.218l-0.006,9.45
		c-0.008,2.156-1.775,3.916-3.939,3.916H20.992C9.478,76.594,0.063,85.972,0,97.486c-0.004,0.666,0.259,1.305,0.728,1.776
		C1.197,99.735,1.835,100,2.5,100h95c0.665,0,1.303-0.265,1.772-0.736c0.469-0.473,0.731-1.111,0.728-1.775
		c-0.055-11.52-9.472-20.901-20.991-20.917H67.681c-2.171,0-3.938-1.759-3.948-3.925v-9.457l5.027-6.206
		c1.396-1.708,2.177-3.886,2.187-6.119v-5.938l0.306,0.04c2.279,0,4.134-1.856,4.134-4.137v-6.552c0-2.282-1.853-4.14-4.134-4.14
		l0.041-6.807c0.073,0.001,0.145,0.002,0.221,0.002c2.258,0,4.461-0.925,6.046-2.536c2.003-2.005,2.892-4.888,2.364-7.695
		c-0.144-0.767-0.639-1.425-1.338-1.773c-0.352-0.176-0.734-0.264-1.117-0.264c-0.38,0-0.756,0.084-1.105,0.257
		c-1.186,0.583-2.504,0.891-3.814,0.891c-0.137,0-0.278-0.002-0.418-0.01c1.224-2.505,1.17-5.446-0.141-7.892
		c-0.37-0.69-1.043-1.168-1.814-1.291c-0.131-0.021-0.262-0.03-0.391-0.03c-0.643,0-1.265,0.247-1.736,0.7
		c-0.988,0.952-2.204,1.661-3.513,2.049C60.605,2.045,55.432,0.001,50.006,0L50.006,0z"/>
</g>
</svg>
