<?xml version="1.0" encoding="utf-8"?>
<!-- Generator: Adobe Illustrator 15.0.0, SVG Export Plug-In . SVG Version: 6.00 Build 0)  -->
<!DOCTYPE svg PUBLIC "-//W3C//DTD SVG 1.1//EN" "http://www.w3.org/Graphics/SVG/1.1/DTD/svg11.dtd">
<svg version="1.1" id="Слой_2" xmlns="http://www.w3.org/2000/svg" xmlns:xlink="http://www.w3.org/1999/xlink" x="0px" y="0px"
	 width="12px" height="12px" viewBox="0 0 12 12" enable-background="new 0 0 12 12" xml:space="preserve">
<path fill="#333333" d="M8.271,2.706L7.041,3.925h3.955V0l-1.29,1.281L9.705,1.279C8.652,0.45,7.36,0,6,0C2.691,0,0,2.691,0,6
	s2.691,6,6,6s6-2.691,6-6h-2c0,2.206-1.794,4-4,4c-2.206,0-4-1.794-4-4c0-2.206,1.794-4,4-4C6.823,2,7.609,2.248,8.271,2.706
	L8.271,2.706z"/>
</svg>
