<?xml version="1.0" encoding="utf-8"?>
<!-- Generator: Adobe Illustrator 15.0.0, SVG Export Plug-In . SVG Version: 6.00 Build 0)  -->
<!DOCTYPE svg PUBLIC "-//W3C//DTD SVG 1.1//EN" "http://www.w3.org/Graphics/SVG/1.1/DTD/svg11.dtd">
<svg version="1.1" id="Слой_1" xmlns="http://www.w3.org/2000/svg" xmlns:xlink="http://www.w3.org/1999/xlink" x="0px" y="0px"
	 width="12px" height="12px" viewBox="0 0 12 12" enable-background="new 0 0 12 12" xml:space="preserve">
<path fill="#FF5940" d="M12,12H2l-2-2V0h12V12z M5,11V9.5h1c0,0,0,1.5,0,1.5h2V8.5H4V11C4,11,5,11,5,11z M9,11h2V1h-1v4.5H2V1H1
	v8.586L2.414,11H3c0,0,0-3.5,0-3.5h6V11z M3,1v3.5h6V1C9,1,3,1,3,1z"/>
</svg>
