<?xml version="1.0" encoding="utf-8"?>
<!-- Generator: Adobe Illustrator 15.1.0, SVG Export Plug-In . SVG Version: 6.00 Build 0)  -->
<!DOCTYPE svg PUBLIC "-//W3C//DTD SVG 1.1//EN" "http://www.w3.org/Graphics/SVG/1.1/DTD/svg11.dtd">
<svg version="1.1" id="Слой_1" xmlns="http://www.w3.org/2000/svg" xmlns:xlink="http://www.w3.org/1999/xlink" x="0px" y="0px"
	 width="13px" height="13px" viewBox="0 0 13 13" enable-background="new 0 0 13 13" xml:space="preserve">
<path fill="#333333" d="M10.029,8.617L13,11.586L11.586,13l-2.97-2.969C7.73,10.643,6.658,11,5.5,11C2.462,11,0,8.537,0,5.5
	C0,2.462,2.462,0,5.5,0C8.537,0,11,2.462,11,5.5C11,6.639,10.623,7.739,10.029,8.617z M5.5,2C3.567,2,2,3.567,2,5.5
	C2,7.434,3.567,9,5.5,9C7.434,9,9,7.434,9,5.5C9,3.567,7.434,2,5.5,2z"/>
</svg>
