<?xml version="1.0" encoding="utf-8"?>
<!-- Generator: Adobe Illustrator 15.0.0, SVG Export Plug-In . SVG Version: 6.00 Build 0)  -->
<!DOCTYPE svg PUBLIC "-//W3C//DTD SVG 1.1//EN" "http://www.w3.org/Graphics/SVG/1.1/DTD/svg11.dtd">
<svg version="1.1" id="Слой_1" xmlns="http://www.w3.org/2000/svg" xmlns:xlink="http://www.w3.org/1999/xlink" x="0px" y="0px"
	 width="12px" height="12px" viewBox="0 0 12 12" enable-background="new 0 0 12 12" xml:space="preserve">
<path fill="#FFFFFF" d="M8,6c0,1.104-0.896,2-2,2C4.896,8,4,7.104,4,6c0-1.104,0.896-2,2-2C7.104,4,8,4.896,8,6z M10.95,2.464
	L9.535,1.05L8,2.585C7.688,2.403,7.359,2.219,7,2.126V0H5v2.126c-0.354,0.091-0.729,0.242-1.039,0.42L2.464,1.05L1.05,2.464
	l1.502,1.502C2.366,4.284,2.221,4.635,2.126,5H0v2h2.126c0.094,0.366,0.24,0.713,0.427,1.031L1.05,9.535l1.414,1.415l1.507-1.507
	C4.285,9.626,4.641,9.781,5,9.874V12h2V9.874c0.367-0.095,0.715-0.238,1.033-0.426l1.502,1.502l1.415-1.415L9.441,8.027
	C9.626,7.714,9.782,7.359,9.874,7H12V5H9.874c-0.095-0.367-0.24-0.712-0.429-1.031L10.95,2.464z"/>
</svg>
