<?xml version="1.0" encoding="utf-8"?>
<!-- Generator: Adobe Illustrator 15.0.0, SVG Export Plug-In . SVG Version: 6.00 Build 0)  -->
<!DOCTYPE svg PUBLIC "-//W3C//DTD SVG 1.1//EN" "http://www.w3.org/Graphics/SVG/1.1/DTD/svg11.dtd">
<svg version="1.1" id="Слой_1" xmlns="http://www.w3.org/2000/svg" xmlns:xlink="http://www.w3.org/1999/xlink" x="0px" y="0px"
	 width="12px" height="12px" viewBox="-2.723 0 12 12" enable-background="new -2.723 0 12 12" xml:space="preserve">
<path fill="#333333" d="M-0.137,6.193L0.57,5.486L1.473,6.39L0.766,7.097l1.388,1.388l0.709-0.705l0.928,0.926L3.083,9.412
	c-0.779,0.781-2.049,0.781-2.828,0.002l-0.393-0.393C-0.917,8.24-0.917,6.973-0.137,6.193z M-1.159,10.828
	c1.562,1.561,4.094,1.563,5.657,0l2.121-2.121c0,0-2.342-2.342-2.342-2.341l2.475-2.475l1.086,1.084L9.252,3.56L5.717,0.026
	L4.303,1.44L5.363,2.5L2.888,4.976C2.886,4.974,0.57,2.658,0.57,2.658l-2.121,2.122c-1.562,1.562-1.562,4.094,0,5.656L-1.159,10.828
	z"/>
</svg>
