<?xml version="1.0" encoding="utf-8"?>
<!-- Generator: Adobe Illustrator 15.0.0, SVG Export Plug-In . SVG Version: 6.00 Build 0)  -->
<!DOCTYPE svg PUBLIC "-//W3C//DTD SVG 1.1//EN" "http://www.w3.org/Graphics/SVG/1.1/DTD/svg11.dtd">
<svg version="1.1" id="Слой_1" xmlns="http://www.w3.org/2000/svg" xmlns:xlink="http://www.w3.org/1999/xlink" x="0px" y="0px"
	 width="12px" height="12px" viewBox="0 0 12 12" enable-background="new 0 0 12 12" xml:space="preserve">
<path fill="#FFFFFF" d="M5.829,8.999l-1.415,1.414c-0.78,0.779-2.049,0.779-2.829,0c-0.78-0.78-0.78-2.049,0-2.829L1.572,7.57
	c0.137-0.108,0.254-0.227,0.345-0.317l0.729-0.729L3,6.17L5.829,8.999 M4.415,6.17L3,4.756c0,0-2.121,2.121-2.121,2.121
	c-1.172,1.172-1.171,3.071,0,4.243s3.071,1.172,4.243,0l2.122-2.121l0,0L5.829,7.585l4.756-4.756c0,0,0.707,0.707,0.707,0.707
	l0.707-0.707L9.172-0.001L8.465,0.706l0.707,0.707L9.171,1.414L4.415,6.17z"/>
</svg>
