<?xml version="1.0" encoding="utf-8"?>
<!-- Generator: Adobe Illustrator 15.0.0, SVG Export Plug-In . SVG Version: 6.00 Build 0)  -->
<!DOCTYPE svg PUBLIC "-//W3C//DTD SVG 1.1//EN" "http://www.w3.org/Graphics/SVG/1.1/DTD/svg11.dtd">
<svg version="1.1" id="Слой_1" xmlns="http://www.w3.org/2000/svg" xmlns:xlink="http://www.w3.org/1999/xlink" x="0px" y="0px"
	 width="11px" height="13px" viewBox="0 0 11 13" enable-background="new 0 0 11 13" xml:space="preserve">
<path fill="#FFFFFF" d="M3,2V0h5v2h3v1H0V2H3z M7,2V1H4v1H7z"/>
<path fill="#FFFFFF" d="M1,13V4h9v9H1z M3,12V5c0,0-1,0-1,0v7l0,0C2,12,3,12,3,12z M5,12V5c0,0-1,0-1,0c0,0,0,7,0,7C4,12,5,12,5,12z
	 M7,12V5c0,0-1,0-1,0c0,0,0,7,0,7H7z M9,12L9,12L9,12L9,12L9,12L9,12V5c0,0-1,0-1,0v7H9z"/>
</svg>
