<?xml version="1.0" encoding="utf-8"?>
<!-- Generator: Adobe Illustrator 17.1.0, SVG Export Plug-In . SVG Version: 6.00 Build 0)  -->
<!DOCTYPE svg PUBLIC "-//W3C//DTD SVG 1.1//EN" "http://www.w3.org/Graphics/SVG/1.1/DTD/svg11.dtd">
<svg version="1.1" id="Слой_1" xmlns="http://www.w3.org/2000/svg" xmlns:xlink="http://www.w3.org/1999/xlink" x="0px" y="0px"
	 viewBox="0 0 45.3 45.3" enable-background="new 0 0 45.3 45.3" xml:space="preserve">
<path fill="#5EB78F" d="M19.1,22.7L10.5,14c-1-1-1-2.5,0-3.5l0,0c1-1,2.5-1,3.5,0l8.7,8.7c0,0,8.7-8.7,8.7-8.7c1-1,2.5-1,3.5,0l0,0
	c1,1,1,2.5,0,3.5l-8.7,8.7l8.7,8.7c1,1,1,2.5,0,3.5l0,0c-1,1-2.5,1-3.5,0l-8.7-8.7L14,34.9c-1,1-2.5,1-3.5,0l0,0c-1-1-1-2.5,0-3.5
	L19.1,22.7z"/>
</svg>
