<?xml version="1.0" encoding="utf-8"?>
<!-- Generator: Adobe Illustrator 17.1.0, SVG Export Plug-In . SVG Version: 6.00 Build 0)  -->
<!DOCTYPE svg PUBLIC "-//W3C//DTD SVG 1.1//EN" "http://www.w3.org/Graphics/SVG/1.1/DTD/svg11.dtd">
<svg version="1.1" id="Слой_1" xmlns="http://www.w3.org/2000/svg" xmlns:xlink="http://www.w3.org/1999/xlink" x="0px" y="0px"
	 viewBox="0 0 32 32" enable-background="new 0 0 32 32" xml:space="preserve">
<path id="бюджет_up" fill="#60B78F" d="M23.1,22.9H8.9C8.4,22.9,8,22.5,8,22v0c0-0.5,0.4-0.9,0.9-0.9h14.3
	c0.5,0,0.9,0.4,0.9,0.9v0C24,22.5,23.6,22.9,23.1,22.9z M23.1,18.9H8.9C8.4,18.9,8,18.5,8,18v0c0-0.5,0.4-0.9,0.9-0.9h6.3v-5
	L13.2,14c-0.3,0.3-0.9,0.3-1.2,0l0,0c-0.3-0.3-0.3-0.9,0-1.2l3.4-3.4c0.3-0.3,0.9-0.3,1.2,0l3.4,3.4c0.3,0.3,0.3,0.9,0,1.2l0,0
	c-0.3,0.3-0.9,0.3-1.2,0l-1.9-1.9v5h6.3c0.5,0,0.9,0.4,0.9,0.9v0C24,18.5,23.6,18.9,23.1,18.9z"/>
</svg>
