<?xml version="1.0" encoding="utf-8"?>
<!-- Generator: Adobe Illustrator 17.1.0, SVG Export Plug-In . SVG Version: 6.00 Build 0)  -->
<!DOCTYPE svg PUBLIC "-//W3C//DTD SVG 1.1//EN" "http://www.w3.org/Graphics/SVG/1.1/DTD/svg11.dtd">
<svg version="1.1" id="Слой_1" xmlns="http://www.w3.org/2000/svg" xmlns:xlink="http://www.w3.org/1999/xlink" x="0px" y="0px"
	 viewBox="0 0 32 32" enable-background="new 0 0 32 32" xml:space="preserve">
<path id="excel_export_2_" fill="#4AB59E" d="M13.1,13.2V9.1L11.2,11c-0.3,0.3-0.9,0.3-1.2,0l0,0c-0.3-0.3-0.3-0.9,0-1.2l3.4-3.4
	c0.3-0.3,0.9-0.3,1.2,0L18,9.7c0.3,0.3,0.3,0.9,0,1.2l0,0c-0.3,0.3-0.9,0.3-1.2,0l-1.9-1.9v4.1c0,0.5-0.4,0.9-0.9,0.9h0
	C13.5,14.1,13.1,13.7,13.1,13.2z M20.9,25.1l0-1.1H24c0.5,0,0.9-0.4,0.9-0.9v-10c0-0.5-0.4-0.9-0.9-0.9c0,0-3.5,0-4,0l0,0
	c-0.5,0-0.9,0.4-0.9,0.9l0,11L8.9,22.3v-8.3c0-0.5-0.4-0.9-0.9-0.9h0c-0.5,0-0.9,0.4-0.9,0.9v9c0,0.4,0.3,0.8,0.7,0.9l12,2
	C20.4,26,20.9,25.6,20.9,25.1z M20.9,13.9h2.2v8.3h-2.2L20.9,13.9z M17,21.1L17,21.1c0.4-0.4,0.4-0.9,0-1.2l-1.8-1.8l1.8-1.8
	c0.3-0.3,0.3-0.9,0-1.2l0,0c-0.3-0.3-0.9-0.3-1.2,0L14,16.8l-1.8-1.8c-0.3-0.3-0.9-0.3-1.2,0l0,0c-0.3,0.3-0.3,0.9,0,1.2l1.8,1.8
	L11,19.8c-0.3,0.3-0.3,0.9,0,1.2l0,0c0.3,0.3,0.9,0.3,1.2,0l1.8-1.8l1.8,1.8C16.1,21.4,16.7,21.4,17,21.1z"/>
</svg>
