<?xml version="1.0" encoding="utf-8"?>
<!-- Generator: Adobe Illustrator 17.1.0, SVG Export Plug-In . SVG Version: 6.00 Build 0)  -->
<!DOCTYPE svg PUBLIC "-//W3C//DTD SVG 1.1//EN" "http://www.w3.org/Graphics/SVG/1.1/DTD/svg11.dtd">
<svg version="1.1" id="Слой_1" xmlns="http://www.w3.org/2000/svg" xmlns:xlink="http://www.w3.org/1999/xlink" x="0px" y="0px"
	 viewBox="0 0 32 32" enable-background="new 0 0 32 32" xml:space="preserve">
<path id="поиск_3_" fill="#5FC6ED" d="M21.8,23l-3.3-3.3c-1.2,0.9-2.7,1.3-4.3,1.1c-2.6-0.3-4.7-2.4-5-5
	c-0.5-3.9,2.8-7.1,6.6-6.6c2.6,0.3,4.7,2.4,5,5c0.2,1.6-0.2,3.1-1.1,4.3l3.3,3.3c0.3,0.3,0.3,0.9,0,1.2l0,0
	C22.7,23.4,22.1,23.4,21.8,23z M15,10.9c-2.3,0-4.1,1.8-4.1,4.1s1.8,4.1,4.1,4.1s4.1-1.8,4.1-4.1S17.3,10.9,15,10.9z"/>
</svg>
