<?xml version="1.0" encoding="utf-8"?>
<!-- Generator: Adobe Illustrator 17.1.0, SVG Export Plug-In . SVG Version: 6.00 Build 0)  -->
<!DOCTYPE svg PUBLIC "-//W3C//DTD SVG 1.1//EN" "http://www.w3.org/Graphics/SVG/1.1/DTD/svg11.dtd">
<svg version="1.1" id="Слой_1" xmlns="http://www.w3.org/2000/svg" xmlns:xlink="http://www.w3.org/1999/xlink" x="0px" y="0px"
	 viewBox="0 0 32 32" enable-background="new 0 0 32 32" xml:space="preserve">
<path id="рассчитать_критический_путь_2_" fill="#EA6567" d="M20.7,16L20.7,16c-0.5,0-0.9-0.4-0.9-0.9
	v-2.2h-2.2c-0.5,0-0.9-0.4-0.9-0.9v0c0-0.5,0.4-0.9,0.9-0.9h2.2V8.9c0-0.5,0.4-0.9,0.9-0.9h0c0.5,0,0.9,0.4,0.9,0.9v2.2h2.2
	c0.5,0,0.9,0.4,0.9,0.9v0c0,0.5-0.4,0.9-0.9,0.9h-2.2v2.2C21.5,15.6,21.2,16,20.7,16z M13.7,16L13.7,16c0-0.5-0.4-0.9-0.9-0.9H7.5
	c-0.5,0-0.9,0.4-0.9,0.9v0c0,0.5,0.4,0.9,0.9,0.9h5.3C13.3,16.9,13.7,16.5,13.7,16z M20.7,23L20.7,23c0-0.5-0.4-0.9-0.9-0.9h-5.3
	c-0.5,0-0.9,0.4-0.9,0.9v0c0,0.5,0.4,0.9,0.9,0.9h5.3C20.3,23.9,20.7,23.5,20.7,23z M12.7,23L12.7,23c0-0.2-0.2-0.4-0.3-0.4H10v-2.8
	h6.7c0.2,0,0.3-0.2,0.3-0.3V16c0-0.2-0.2-0.3-0.3-0.3H15c-0.2,0-0.3,0.2-0.3,0.3v0c0,0.2,0.2,0.3,0.3,0.3h1.3v2.8H9.7
	c-0.2,0-0.3,0.2-0.3,0.3V23c0,0.2,0.2,0.3,0.3,0.3h2.7C12.5,23.4,12.7,23.2,12.7,23z"/>
</svg>
