<?xml version="1.0" encoding="utf-8"?>
<!-- Generator: Adobe Illustrator 17.1.0, SVG Export Plug-In . SVG Version: 6.00 Build 0)  -->
<!DOCTYPE svg PUBLIC "-//W3C//DTD SVG 1.1//EN" "http://www.w3.org/Graphics/SVG/1.1/DTD/svg11.dtd">
<svg version="1.1" id="Слой_1" xmlns="http://www.w3.org/2000/svg" xmlns:xlink="http://www.w3.org/1999/xlink" x="0px" y="0px"
	 viewBox="0 0 32 32" enable-background="new 0 0 32 32" xml:space="preserve">
<path id="свернуть_все_1_" fill="#728496" d="M24.6,19.9h-8.3c-0.5,0-0.9-0.4-0.9-0.9v0c0-0.5,0.4-0.9,0.9-0.9h8.3
	c0.5,0,0.9,0.4,0.9,0.9v0C25.5,19.5,25.1,19.9,24.6,19.9z M15.6,13.9H7.4c-0.5,0-0.9-0.4-0.9-0.9v0c0-0.5,0.4-0.9,0.9-0.9h8.3
	c0.5,0,0.9,0.4,0.9,0.9v0C16.5,13.5,16.1,13.9,15.6,13.9z"/>
</svg>
