<?xml version="1.0" encoding="utf-8"?>
<!-- Generator: Adobe Illustrator 17.1.0, SVG Export Plug-In . SVG Version: 6.00 Build 0)  -->
<!DOCTYPE svg PUBLIC "-//W3C//DTD SVG 1.1//EN" "http://www.w3.org/Graphics/SVG/1.1/DTD/svg11.dtd">
<svg version="1.1" id="Слой_1" xmlns="http://www.w3.org/2000/svg" xmlns:xlink="http://www.w3.org/1999/xlink" x="0px" y="0px"
	 viewBox="0 0 32 32" enable-background="new 0 0 32 32" xml:space="preserve">
<path id="домик" fill="#FFFFFF" d="M10.1,16.1l-0.6,0.6c-0.3,0.3-0.9,0.3-1.2,0l0,0c-0.3-0.3-0.3-0.9,0-1.2l7.1-7.1
	c0.3-0.3,0.9-0.3,1.2,0l7.1,7.1c0.3,0.3,0.3,0.9,0,1.2l0,0c-0.3,0.3-0.9,0.3-1.2,0l-0.6-0.6v5c0,0.5-0.4,0.9-0.9,0.9H11
	c-0.5,0-0.9-0.4-0.9-0.9V16.1z M11.9,14.4v5.9h8.2v-5.9L16,10.2l0,0L11.9,14.4z"/>
</svg>
