<?xml version="1.0" encoding="utf-8"?>
<!-- Generator: Adobe Illustrator 15.0.0, SVG Export Plug-In . SVG Version: 6.00 Build 0)  -->
<!DOCTYPE svg PUBLIC "-//W3C//DTD SVG 1.1//EN" "http://www.w3.org/Graphics/SVG/1.1/DTD/svg11.dtd">
<svg version="1.1" id="Слой_1" xmlns="http://www.w3.org/2000/svg" xmlns:xlink="http://www.w3.org/1999/xlink" x="0px" y="0px"
	 width="841.891px" height="595.281px" viewBox="0 0 841.891 595.281" enable-background="new 0 0 841.891 595.281"
	 xml:space="preserve">
<path fill="#FFFFFF" d="M364,199.178c-34.022,19.789-56.926,56.646-56.926,98.791c0,63.007,51.192,113.543,113.543,113.543
	c63.007,0,113.543-51.192,113.543-113.543c0.438-42.004-22.168-78.757-55.761-98.593c-4.948-2.825-8.26-8.245-8.26-14.352
	c0-9.062,7.346-16.408,16.408-16.408c3.018,0,5.846,0.761,8.275,2.182l0.002,0.001c43.516,25.389,72.808,72.583,72.808,126.513
	c0,81.384-65.632,147.016-146.359,147.016c-81.384,0-147.016-65.632-147.016-146.359c0-54.445,29.374-101.841,73.187-127.252
	c2.397-1.37,5.237-2.101,8.196-2.101c9.063,0,16.408,7.346,16.408,16.408C372.049,191.065,368.86,196.33,364,199.178z
	 M404.865,280.576c0,9.243,7.493,16.736,16.736,16.736s16.736-7.493,16.736-16.736c0,0,0-128.697,0-128.696
	c0-9.243-7.493-16.736-16.736-16.736s-16.736,7.493-16.736,16.736C404.865,151.879,404.865,280.576,404.865,280.576z"/>
</svg>
