<?xml version="1.0" encoding="utf-8"?>
<!-- Generator: Adobe Illustrator 17.1.0, SVG Export Plug-In . SVG Version: 6.00 Build 0)  -->
<!DOCTYPE svg PUBLIC "-//W3C//DTD SVG 1.1//EN" "http://www.w3.org/Graphics/SVG/1.1/DTD/svg11.dtd">
<svg version="1.1" id="Слой_1" xmlns="http://www.w3.org/2000/svg" xmlns:xlink="http://www.w3.org/1999/xlink" x="0px" y="0px"
	 viewBox="0 0 32 32" enable-background="new 0 0 32 32" xml:space="preserve">
<path id="refresh" fill="#FFFFFF" d="M17.7,23.7c-3,0.6-6-0.5-7.9-2.8L9.6,22c-0.1,0.5-0.6,0.8-1,0.7l0,0c-0.5-0.1-0.8-0.6-0.7-1
	l0.8-3.4c0.1-0.5,0.6-0.8,1-0.7l3.2,0.8c0.5,0.1,0.8,0.6,0.6,1l0,0c-0.1,0.5-0.6,0.8-1,0.6l-1.3-0.3c1.4,1.8,3.8,2.7,6.1,2.2
	c2.1-0.4,3.7-1.9,4.5-3.9c0.1-0.4,0.6-0.6,1-0.5l0,0c0.5,0.1,0.8,0.7,0.6,1.1C22.5,21.2,20.3,23.2,17.7,23.7z M22.4,14.5l-3.2-0.8
	c-0.5-0.1-0.8-0.6-0.6-1l0,0c0.1-0.5,0.6-0.8,1-0.6l1.3,0.3c-1.4-1.8-3.8-2.8-6.1-2.2c-2.1,0.4-3.7,1.9-4.5,3.9
	c-0.1,0.4-0.6,0.6-1,0.5l0,0c-0.5-0.1-0.8-0.7-0.6-1.1c0.9-2.5,3.1-4.4,5.7-5c3-0.6,6.1,0.5,7.9,2.9l0.3-1.2c0.1-0.5,0.6-0.8,1-0.7
	l0,0c0.5,0.1,0.8,0.6,0.7,1l-0.8,3.4C23.3,14.3,22.9,14.6,22.4,14.5z"/>
</svg>
