<?xml version="1.0" encoding="utf-8"?>
<!-- Generator: Adobe Illustrator 17.1.0, SVG Export Plug-In . SVG Version: 6.00 Build 0)  -->
<!DOCTYPE svg PUBLIC "-//W3C//DTD SVG 1.1//EN" "http://www.w3.org/Graphics/SVG/1.1/DTD/svg11.dtd">
<svg version="1.1" id="Слой_1" xmlns="http://www.w3.org/2000/svg" xmlns:xlink="http://www.w3.org/1999/xlink" x="0px" y="0px"
	 viewBox="0 0 32 32" enable-background="new 0 0 32 32" xml:space="preserve">
<path id="меню" fill="#FFFFFF" d="M21.1,22H10.9c-0.5,0-0.9-0.4-0.9-0.9v0c0-0.5,0.4-0.9,0.9-0.9h10.3c0.5,0,0.9,0.4,0.9,0.9v0
	C22,21.6,21.6,22,21.1,22z M21.1,16.9H10.9c-0.5,0-0.9-0.4-0.9-0.9v0c0-0.5,0.4-0.9,0.9-0.9h10.3c0.5,0,0.9,0.4,0.9,0.9v0
	C22,16.5,21.6,16.9,21.1,16.9z M21.1,11.8H10.9c-0.5,0-0.9-0.4-0.9-0.9v0c0-0.5,0.4-0.9,0.9-0.9h10.3c0.5,0,0.9,0.4,0.9,0.9v0
	C22,11.4,21.6,11.8,21.1,11.8z"/>
</svg>
