<?xml version="1.0" encoding="utf-8"?>
<!-- Generator: Adobe Illustrator 15.0.0, SVG Export Plug-In . SVG Version: 6.00 Build 0)  -->
<!DOCTYPE svg PUBLIC "-//W3C//DTD SVG 1.1//EN" "http://www.w3.org/Graphics/SVG/1.1/DTD/svg11.dtd">
<svg version="1.1" id="Слой_1" xmlns="http://www.w3.org/2000/svg" xmlns:xlink="http://www.w3.org/1999/xlink" x="0px" y="0px"
	 width="226.771px" height="226.771px" viewBox="0 0 226.771 226.771" enable-background="new 0 0 226.771 226.771"
	 xml:space="preserve">
<path id="выгрузить_картинку" fill="#333333" d="M169.197,130.112l-66.944,67.601
	c-6.563,6.563-6.563,16.408,0,22.974l0,0c6.563,6.563,16.408,6.563,22.973,0l95.166-95.167c6.563-6.563,6.563-16.408,0-22.973
	L125.224,7.381c-6.563-6.563-16.409-6.563-22.973,0l0,0c-6.563,6.563-6.563,16.407,0,22.973l66.944,66.942H18.244
	c-9.188,0-16.408,7.221-16.408,16.408v0.656c0,9.188,7.221,16.408,16.408,16.408h150.953V130.112z"/>
</svg>
