<?xml version="1.0" encoding="utf-8"?>
<!-- Generator: Adobe Illustrator 15.0.0, SVG Export Plug-In . SVG Version: 6.00 Build 0)  -->
<!DOCTYPE svg PUBLIC "-//W3C//DTD SVG 1.1//EN" "http://www.w3.org/Graphics/SVG/1.1/DTD/svg11.dtd">
<svg version="1.1" id="Слой_1" xmlns="http://www.w3.org/2000/svg" xmlns:xlink="http://www.w3.org/1999/xlink" x="0px" y="0px"
	 width="12px" height="12px" viewBox="0 0 12 12" enable-background="new 0 0 12 12" xml:space="preserve">
<path fill="#666666" d="M5.06,6.013L2.781,3.708c-0.265-0.265-0.265-0.662,0-0.927l0,0c0.265-0.265,0.663-0.265,0.927,0l2.305,2.305
	l2.305-2.305c0.265-0.265,0.662-0.265,0.927,0l0,0c0.265,0.265,0.265,0.663,0,0.927L6.94,6.013l2.305,2.305
	c0.265,0.265,0.265,0.662,0,0.927l0,0c-0.265,0.265-0.662,0.265-0.927,0L6.013,6.94L3.708,9.245c-0.265,0.265-0.662,0.265-0.927,0
	l0,0c-0.265-0.265-0.265-0.662,0-0.927L5.06,6.013z"/>
</svg>
