<?xml version="1.0" encoding="utf-8"?>
<!-- Generator: Adobe Illustrator 15.1.0, SVG Export Plug-In . SVG Version: 6.00 Build 0)  -->
<!DOCTYPE svg PUBLIC "-//W3C//DTD SVG 1.1//EN" "http://www.w3.org/Graphics/SVG/1.1/DTD/svg11.dtd">
<svg version="1.1" id="Layer_1" xmlns:sketch="http://www.bohemiancoding.com/sketch/ns"
	 xmlns="http://www.w3.org/2000/svg" xmlns:xlink="http://www.w3.org/1999/xlink" x="0px" y="0px" width="29.13px"
	 height="29.134px" viewBox="-0.064 0.434 29.13 29.134" enable-background="new -0.064 0.434 29.13 29.134" xml:space="preserve">
<title>Symbol, Version 4.2</title>
<desc>Created with Sketch.</desc>
<g id="Page-1" sketch:type="MSPage">
	<path id="Symbol_x2C_-Version-4.2" sketch:type="MSShapeGroup" fill="#333333" d="M19.857,10.216
		c-0.453-0.397-1.105-0.388-1.479-0.272c0.244-0.301,0.813-0.548,0.981-0.578C19.49,9.414,19.857,9.791,19.857,10.216z M21.305,8.57
		c-0.297-1.595-4.004-0.538-5.871-1.216c-0.035,0.465,0.574,1.21,1.158,1.485c-0.998,0.866-1.894,2.612-2.075,4.744
		c-0.18-2.132-1.077-3.878-2.075-4.744c0.584-0.275,1.195-1.021,1.159-1.485C11.734,8.032,8.028,6.976,7.729,8.57
		c-0.062,0.338,0.1,0.852,0.275,1c0.032-0.107,0.195-0.457,0.712-0.535c2.611-0.396,4.792,3.63,2.823,5.257
		c-0.03,0.025-0.013,0.07,0.028,0.07h5.901c0.039,0,0.058-0.045,0.027-0.07c-1.97-1.627,0.211-5.652,2.821-5.257
		C20.836,9.113,21,9.463,21.031,9.57C21.207,9.422,21.369,8.908,21.305,8.57z M21.939,4.909c-0.047-0.15,1.483-0.154,1.483,0.805
		c0,0.642-0.916,0.946-0.916,1.612c0,0.311,0.334,0.538,0.438,0.538c-0.236-1.069,0.74-0.51,1.002-0.31
		c-0.523-1.439,0.656-1.43,0.539-2.09c-0.08-0.461-1.104-0.322-1.475-0.556c-0.658-0.414-1.437-2.024-1.949-0.414
		c0.957,0.888,0.399,2.194-0.814,2.194c0,0-0.006,0.191,0.006,0.207C21.701,6.825,22.205,5.762,21.939,4.909z M5.051,7.555
		c0.264-0.2,1.239-0.76,1.003,0.31c0.102,0,0.436-0.228,0.436-0.538c0-0.666-0.916-0.971-0.916-1.612
		c0-0.959,1.531-0.955,1.484-0.805c-0.264,0.853,0.24,1.916,1.688,1.987C8.757,6.881,8.75,6.69,8.75,6.69
		c-1.213,0-1.77-1.307-0.814-2.194c-0.513-1.61-1.291,0-1.949,0.414c-0.37,0.233-1.394,0.094-1.474,0.555
		C4.397,6.125,5.575,6.115,5.051,7.555z M9.162,10.216c0.454-0.397,1.106-0.388,1.479-0.272c-0.244-0.301-0.816-0.548-0.983-0.578
		C9.529,9.414,9.162,9.791,9.162,10.216z M15.205,1.294L14.5,0.434l-0.706,0.86L14.5,2.2L15.205,1.294z M19.236,3.897l-0.502-0.612
		l-0.502,0.612l0.502,0.598L19.236,3.897z M23.311,21.584l-0.637-0.674l-0.637,0.674l0.637,0.59L23.311,21.584z M10.767,3.897
		l-0.502-0.612L9.763,3.897l0.501,0.598L10.767,3.897z M9.329,6.896h1.873c1.575,0,2.284-0.967,2.498-1.805h1.602
		c0.216,0.838,0.923,1.805,2.498,1.805h1.873c0,0,0.328-0.444,0.41-0.665C20.377,5.439,20,5.07,19.447,5.07l-0.713,0.646
		L18.021,5.07c-0.551,0-0.931,0.369-0.633,1.161c0.036,0.102,0.127,0.25,0.213,0.381c-0.664-0.091-1.513-0.546-1.699-1.521
		c0,0,0.492-0.78,0.615-1.096c0.442-1.136-0.123-1.6-0.949-1.6L14.5,3.651l-1.067-1.255c-0.827,0-1.393,0.464-0.949,1.6
		c0.123,0.315,0.614,1.096,0.614,1.096c-0.187,0.975-1.035,1.43-1.7,1.521c0.086-0.131,0.176-0.279,0.214-0.381
		c0.295-0.792-0.082-1.161-0.634-1.161l-0.713,0.646L9.552,5.07C9,5.07,8.623,5.439,8.918,6.231C9,6.452,9.329,6.896,9.329,6.896z
		 M28.693,12.702c-0.363,0.183-2.482,1.177-5.199,0.809c0.027-0.129,0.051-0.26,0.07-0.391c1.809-0.217,3.276-0.523,4.215-1.044
		c1.068-0.595,1.535-2.013,0.996-3.068c-0.014-0.026-0.053-0.031-0.072-0.009c-0.295,0.34-2.152,2.359-5.078,2.987
		c-0.008-0.152-0.021-0.303-0.041-0.453c1.42-0.806,2.809-1.734,3.469-2.583c0.998-1.284,0.906-2.921-0.043-3.756
		c-0.021-0.018-0.055-0.013-0.068,0.01c-0.301,0.495-3.112,5.044-6.203,7.007c-0.03,0.021-0.071,0.046-0.114,0.071
		c-0.088,0.054-0.099,0.169-0.021,0.237c0.354,0.322,0.576,0.772,0.576,1.271c0,0.867-0.668,1.589-1.552,1.745
		c-0.448,0.086-1.099,0.062-1.721-0.145c-0.027-0.009-0.058,0.01-0.058,0.038v2.745c0,0.045,0.068,0.058,0.084,0.015
		c0.377-1.002,1.512-1.218,2.006-1.218c0.179,1.072,0.498,1.962,0.91,2.438c0.674,0.777,1.775,0.766,2.252,0.229
		c0.017-0.018,0.012-0.047-0.012-0.059c-0.279-0.162-1.883-1.146-2.205-2.76c0.127-0.045,0.252-0.094,0.369-0.152
		c0.518,0.857,1.271,1.621,1.879,1.912c1.018,0.488,1.951,0.25,2.365-0.465c0.014-0.025-0.004-0.057-0.035-0.062
		c-0.629-0.049-2.564-0.604-3.387-1.954c0.094-0.087,0.186-0.177,0.271-0.271c0.862,0.656,2.079,1.234,2.952,1.354
		c1.021,0.139,2.179-0.188,2.205-1.373c0.002-0.023-0.021-0.043-0.045-0.043c-0.362,0.022-2.767,0.127-4.479-0.854
		c0.062-0.112,0.115-0.228,0.166-0.345c0,0,2.588,0.611,3.812,0.408c1.219-0.201,1.932-1.108,1.795-2.238
		C28.752,12.705,28.719,12.688,28.693,12.702z M5.851,14.563c0.051,0.117,0.107,0.232,0.167,0.345
		c-1.711,0.982-4.113,0.879-4.478,0.855c-0.025-0.002-0.047,0.02-0.046,0.043c0.028,1.186,1.185,1.512,2.206,1.373
		c0.872-0.119,2.091-0.697,2.953-1.354c0.086,0.096,0.178,0.186,0.272,0.271c-0.824,1.353-2.758,1.906-3.388,1.955
		c-0.03,0.004-0.048,0.035-0.034,0.061c0.414,0.716,1.347,0.953,2.366,0.466c0.606-0.291,1.36-1.056,1.877-1.912
		c0.119,0.06,0.243,0.106,0.369,0.151C7.794,18.43,6.19,19.415,5.91,19.577c-0.021,0.012-0.027,0.041-0.01,0.059
		c0.477,0.537,1.578,0.55,2.251-0.229c0.414-0.478,0.732-1.365,0.91-2.438c0.496,0,1.628,0.215,2.007,1.217
		c0.017,0.043,0.083,0.031,0.083-0.014v-2.745c0-0.028-0.029-0.047-0.057-0.038c-0.623,0.206-1.271,0.23-1.719,0.145
		c-0.884-0.156-1.553-0.878-1.553-1.745c0-0.498,0.222-0.948,0.578-1.271c0.076-0.067,0.066-0.183-0.022-0.236
		c-0.042-0.025-0.084-0.051-0.115-0.071c-3.087-1.962-5.9-6.507-6.203-7.006C2.044,5.182,2.01,5.177,1.99,5.194
		C1.041,6.03,0.948,7.667,1.947,8.95c0.661,0.849,2.048,1.777,3.469,2.583c-0.02,0.15-0.034,0.301-0.041,0.453
		C2.451,11.359,0.596,9.343,0.297,9c-0.02-0.023-0.06-0.019-0.073,0.008c-0.538,1.056-0.071,2.474,0.996,3.068
		c0.937,0.521,2.406,0.827,4.214,1.044c0.02,0.131,0.043,0.262,0.072,0.391c-2.714,0.367-4.834-0.624-5.198-0.809
		c-0.027-0.014-0.06,0.004-0.063,0.032c-0.137,1.13,0.576,2.036,1.794,2.237C3.264,15.175,5.851,14.563,5.851,14.563z
		 M22.674,23.041l-0.943-0.74c-0.375,0.223-0.651,0.578-0.76,0.996c-0.566,0.078-2.111-0.264-1.961-0.492
		c1.693-2.383,0.396-3.801-1.16-3.723v1.602c0,0.515-0.449,0.931-1,0.931h-1.076c-0.771,0-1.273,0.774-1.273,0.774
		s-0.502-0.774-1.273-0.774h-1.075c-0.553,0-1.001-0.416-1.001-0.931v-1.602c-1.557-0.078-2.854,1.34-1.159,3.723
		c0.149,0.228-1.44,0.586-2.185,0.496c-0.196-0.205-0.479-0.332-0.797-0.332c-0.14,0-0.272,0.025-0.395,0.07
		c0,0-2.929-2.773-2.982-2.801l0.024-0.055c0.167-0.312-0.089-0.652-0.25-0.629c0.188-0.226,0.196-1.21-0.844-1.438
		c0.03,0.198,0.046,0.602,0.046,0.602s-0.803-0.434-1.206-0.059c-0.354,0.42,0.137,1.18,0.137,1.18s-0.411,0.011-0.613-0.008
		c0.298,1.008,1.296,0.937,1.512,0.737c-0.014,0.16,0.347,0.388,0.653,0.205l0.135-0.065c0.023,0.033,2.875,2.728,2.875,2.728
		c-0.131,0.194-0.193,0.434-0.15,0.688c0.068,0.398,0.399,0.729,0.822,0.812c0.299,0.061,0.58,0.002,0.805-0.129l0.755,0.7
		C8.4,25.568,8.491,25.605,8.592,25.6c0.185-0.014,0.323-0.162,0.309-0.334c-0.006-0.078-0.045-0.145-0.1-0.195
		c-0.012-0.014-0.769-0.715-0.769-0.715c0.625-0.438,1.788-0.748,2.753-0.748c0.17,0,0.25-0.143,0.191-0.282
		c-0.438-1.054,0.503-1.814,1.476-1.193c0.424,0.271,0.855,0.804,1.18,1.691c-1.596,0.387-3.601,1.45-4.006,2.614
		c-0.156,0.447,0.36,1.062,0.986,1.185c0.023,0.004,0.046-0.013,0.051-0.033c0.327-1.735,2.193-3.028,3.164-3.248
		c0.049,0.132,0.033,0.089,0.082,0.22c-1.058,0.5-2.083,1.555-2.376,2.809c-0.134,0.574,0.506,1.092,1.035,1.234
		c0.026,0.006,0.053-0.013,0.054-0.037c0.101-1.586,0.801-2.935,1.428-3.547c0.017,0.119,0.03,0.239,0.039,0.36
		c0,0-0.643,1.791-0.643,3.097c0,0.606,0.903,1.03,1.037,1.092c0.167-0.062,1.069-0.484,1.069-1.092
		c0-1.306-0.643-3.097-0.643-3.097c0.009-0.121,0.021-0.241,0.039-0.36c0.627,0.612,1.327,1.961,1.428,3.547
		c0.002,0.024,0.026,0.043,0.056,0.037c0.528-0.144,1.168-0.66,1.034-1.234c-0.293-1.254-1.317-2.309-2.377-2.809
		c0.049-0.131,0.033-0.088,0.082-0.22c0.972,0.22,2.838,1.513,3.164,3.248c0.004,0.021,0.026,0.037,0.052,0.033
		c0.627-0.123,1.143-0.736,0.985-1.185c-0.404-1.164-2.41-2.229-4.006-2.614c0.323-0.89,0.756-1.423,1.18-1.691
		c0.974-0.621,1.914,0.142,1.478,1.193c-0.06,0.141,0.02,0.282,0.188,0.282c1.095,0,2.438,0.396,2.972,0.925
		c0.342,0.512,0.971,0.838,1.68,0.768c0.807-0.077,1.463-0.684,1.555-1.434c0.078-0.654-0.26-1.244-0.801-1.564L22.674,23.041z
		 M15.727,18.262c0.336-0.123,0.861-0.022,0.844,0.461c-0.004,0.111,0.15,0.111,0.162-0.002c0.101-0.725-0.391-0.936-0.903-0.85
		c-0.062-0.25-0.115-0.467-0.177-0.684c-0.047-0.177-0.063-0.504,0.14-0.504c0.108,0,0.063,0.305,0.056,0.438
		c-0.011,0.115,0.032,0.186,0.127,0.189c0.059,0.002,0.131-0.072,0.174-0.123c0.295-0.332,0.363-0.847,0.018-1.095
		c-0.287-0.209-1.008-0.055-1.207,0.242c-0.03-0.11-0.173-0.295-0.242-0.375c-0.067-0.08-0.084-0.133,0.008-0.201
		c0.043-0.032,0.175-0.164,0.175-0.3c0-0.079-0.062-0.227-0.259-0.227c-0.155,0-0.328,0.107-0.328,0.347
		c0,0.053,0.013,0.108,0.047,0.172c-0.098-0.017-0.364-0.01-0.501,0.022l1.891,5.189c0.541-0.266,0.938-0.689,0.938-1.145
		c0-0.387-0.567-0.258-0.846,0.045c-0.09-0.492-0.168-0.945-0.256-1.396C15.562,18.344,15.627,18.301,15.727,18.262z M13.052,14.737
		l0.397,1.103c-0.34,0.082-0.887,0.33-0.887,0.658c0,0.438,0.774,0.723,1.221,0.688c-0.022,0.101,0.003,0.189,0.073,0.271
		c-0.163,0-0.469,0.074-0.569,0.184c-0.237-0.221-0.609-0.303-0.785-0.168c-0.177,0.137-0.183,0.365,0.002,0.625
		c0.129,0.18,0.177,0.357,0.032,0.566c0.54,0,0.341-0.701,0.552-0.701c-0.028,0.135-0.011,0.293,0.051,0.467
		c0.041,0.115,0.041,0.199-0.029,0.312c-0.174,0.276-0.444,0.916-0.408,1.493c-0.177,0-0.267-0.045-0.205-0.284
		c0.023-0.091-0.032-0.154-0.106-0.043c-0.081,0.12-0.12,0.329-0.12,0.42c0,0.514,0.613,0.616,0.847,0.508
		c0.677,0.656,2.006,0.479,2.452,0.263l-2.341-6.422C13.182,14.554,13.01,14.611,13.052,14.737z M12.971,20.025
		c-0.048-0.265,0.32-0.736,0.788-1.191c-0.1,0.297-0.038,0.809,0.157,0.984C13.577,19.818,13.173,19.883,12.971,20.025
		L12.971,20.025z"/>
</g>
</svg>
