<?xml version="1.0" encoding="utf-8"?>
<!-- Generator: Adobe Illustrator 15.1.0, SVG Export Plug-In . SVG Version: 6.00 Build 0)  -->
<!DOCTYPE svg PUBLIC "-//W3C//DTD SVG 1.1//EN" "http://www.w3.org/Graphics/SVG/1.1/DTD/svg11.dtd">
<svg version="1.1" id="Layer_1" xmlns:sketch="http://www.bohemiancoding.com/sketch/ns"
	 xmlns="http://www.w3.org/2000/svg" xmlns:xlink="http://www.w3.org/1999/xlink" x="0px" y="0px" width="122px" height="122px"
	 viewBox="0 0 122 122" enable-background="new 0 0 122 122" xml:space="preserve">
<title>Symbol, Version 7.1</title>
<desc>Created with Sketch.</desc>
<g id="Page-1" sketch:type="MSPage">
	<path id="Symbol_x2C_-Version-7.1" sketch:type="MSShapeGroup" fill="#222222" d="M94.561,102.5c-0.188,0-0.611,1.439-0.178,2.461
		c0.232,0.543,0.777,0.773,1.232,0.621c0.449-0.15,0.578-0.578,0.592-0.91C96.249,103.553,95.27,102.5,94.561,102.5L94.561,102.5z
		 M91.297,86.18l0.143,1.58l-1.362-0.152v1.801l1.362-0.151l-0.143,1.65h1.852l-0.143-1.65l1.362,0.151v-1.801l-1.362,0.152
		l0.143-1.58H91.297L91.297,86.18z M92.225,92.407c-0.367,0-0.666,0.306-0.666,0.684s0.299,0.685,0.666,0.685
		c0.369,0,0.668-0.307,0.668-0.685S92.594,92.407,92.225,92.407L92.225,92.407z M92.225,95.175c-0.367,0-0.666,0.306-0.666,0.685
		c0,0.377,0.299,0.683,0.666,0.683c0.369,0,0.668-0.306,0.668-0.683C92.893,95.48,92.594,95.175,92.225,95.175L92.225,95.175z
		 M92.225,97.982c-0.367,0-0.666,0.306-0.666,0.684c0,0.377,0.299,0.684,0.666,0.684c0.369,0,0.668-0.307,0.668-0.684
		C92.893,98.288,92.594,97.982,92.225,97.982L92.225,97.982z M94.381,98.666c0,0.377,0.299,0.684,0.668,0.684
		c0.368,0,0.667-0.307,0.667-0.684c0-0.378-0.299-0.684-0.667-0.684C94.68,97.982,94.381,98.288,94.381,98.666L94.381,98.666z
		 M97.18,98.666c0,0.377,0.299,0.684,0.668,0.684c0.367,0,0.666-0.307,0.666-0.684c0-0.378-0.299-0.684-0.666-0.684
		C97.479,97.982,97.18,98.288,97.18,98.666L97.18,98.666z M92.225,101.74c-0.57,0-1.979,2.904-0.93,4.373
		c0.201,0.281,0.553,0.438,0.93,0.438s0.73-0.156,0.932-0.438C94.206,104.645,92.797,101.74,92.225,101.74L92.225,101.74z
		 M89.889,102.5c-0.707,0-1.688,1.053-1.646,2.172c0.013,0.332,0.144,0.76,0.592,0.91c0.456,0.152,1-0.078,1.231-0.621
		C90.502,103.939,90.079,102.5,89.889,102.5L89.889,102.5z M88.803,98.666c0,0.377,0.299,0.684,0.668,0.684s0.668-0.307,0.668-0.684
		c0-0.378-0.299-0.684-0.668-0.684S88.803,98.288,88.803,98.666L88.803,98.666z M86.073,98.666c0,0.377,0.299,0.684,0.667,0.684
		c0.369,0,0.668-0.307,0.668-0.684c0-0.378-0.299-0.684-0.668-0.684C86.372,97.982,86.073,98.288,86.073,98.666L86.073,98.666z
		 M85.415,98.666c0-0.584,0.101-1.107,0.101-1.107h5.547v-0.481l0.002-4.062l-0.002-0.002v-1.154
		c-2.678,0.472-4.817,2.541-5.457,5.217c-0.155,0.222-0.657,0.336-1.014,0.296c-2.047-0.251-6.189-1-6.189-1.886
		c0-1.241,0.84-1.739,1.646-1.739c1.15,0,2.422,0.625,3.479-0.91c-3.766,0.172-0.879-5.282-3.969-6.317
		c0.154,1.393,0.002,3.844-0.484,5.14c0,0-1.107-1.187-2.352-1.634c0.094,1.012-0.096,3.107-0.547,4.062
		c0,0-1.316-1.222-2.682-1.679c1.26,1.831,1.217,4.442,0.877,6.032c-0.098,0.459,0.244,1.031,1.205,0.988
		c1.502-0.066,6.633,0.16,8.859,1.073c0.69,0.283,1.283,0.608,1.573,1.104c0.235,0.666,0.818,1.697,1.537,2.227
		c0.322-1.152,1.695-2.385,2.591-2.34c0.268,0.013,0.563,0.461,0.625,0.898c0.079-0.408,0.739-1.535,1.463-1.535
		c0.668,0,1.309,0.942,1.531,1.723c0.067-0.5,0.362-1.035,0.631-1.035c0.897,0,2.028,0.799,2.454,2.119
		c0.347-0.432,1.931-2.473,2.108-3.811H85.516C85.516,99.852,85.415,99.271,85.415,98.666L85.415,98.666z M93.387,91.861v5.695
		h5.553C98.457,94.652,96.221,92.359,93.387,91.861L93.387,91.861z M27.866,96.552c0.116,0.039,0.234,0.011,0.351-0.051
		c-0.375,0.522-0.359,0.866-0.198,1.026c0.253,0.252,0.44-0.211,1.081-0.892c0.64-0.68,1.083-0.888,0.831-1.141
		c-0.163-0.161-0.5-0.166-1.002,0.245c0.056-0.12,0.077-0.239,0.036-0.356c-0.211-0.614-1.197-1.432-1.74-1.434
		c-0.083,0-0.16,0.021-0.228,0.048c0.239-0.385,0.177-0.675,0.018-0.835c-0.176-0.175-0.277-0.052-0.475,0.201
		c0.027-0.177-0.018-0.386-0.185-0.638c-0.815-1.236-5.128-5.311-6.107-5.719c-0.584-0.246-0.776,0.094-0.776,0.094
		s-0.324,0.209-0.068,0.803c0.428,0.994,4.572,5.248,5.798,6.048c0.251,0.164,0.454,0.204,0.624,0.172
		c-0.238,0.209-0.353,0.315-0.177,0.489c0.16,0.16,0.445,0.215,0.811-0.045c-0.025,0.072-0.041,0.15-0.038,0.236
		C26.438,95.365,27.262,96.354,27.866,96.552L27.866,96.552z M17.499,84.502c-0.128,0-0.309,0.031-0.443,0.173
		c-0.135,0.144-0.183,0.365-0.133,0.623c0.054,0.28,0.213,0.563,0.449,0.8c0.282,0.281,0.638,0.449,0.949,0.449
		c0.129,0,0.309-0.029,0.443-0.17c0.291-0.311,0.147-0.963-0.315-1.424C18.165,84.672,17.811,84.502,17.499,84.502L17.499,84.502z
		 M30.912,99.621c-0.004-0.432-0.815-1.152-1.778-1.152c-1.43,0-2.049,0.91-2.049,1.373c0,0.874,0.84,0.986,1.098,1
		C29.188,100.904,30.812,99.871,30.912,99.621L30.912,99.621z M29.68,101.801c-0.38,0.489-0.522,0.967-0.424,1.42
		c0.12,0.547,0.66,0.793,1.142,0.793c0.508,0,0.963-0.24,1.217-0.645c0.546-0.865,0.571-2.781,0.386-2.99
		C31.542,100.379,30.325,100.973,29.68,101.801L29.68,101.801z M17.127,81.854c-0.404-0.403-1.23,0.197-1.725-0.082
		c0.219-1.231,1.087,0.062,1.926-0.83c0.334-0.354,0.155-0.91-0.037-1.078c-0.361,0.367-0.921,0.24-0.964,0.035
		c0.952-2.26-0.909-4.778-2.695-4.463c0.35,0.472,0.455,2.107,0.302,2.551c0.68,0.49,0.194,1.646-0.557,1.312
		c-0.503-0.207-1.392-1.471-0.37-2.36c-0.029-0.32-0.591-0.398-1.188,0.375c0.438-1.42-2.243-0.976-2.794-0.635
		c-0.313,0.577-0.661,3.352,0.703,2.854c-0.731,0.64-0.638,1.215-0.326,1.235c0.832-1.078,2.086-0.203,2.302,0.309
		c0.35,0.763-0.757,1.298-1.254,0.613c-0.426,0.172-2.019,0.115-2.487-0.23c-0.25,1.85,2.254,3.684,4.418,2.634
		c0.2,0.037,0.341,0.607-0.004,0.992c0.169,0.192,0.713,0.358,1.048,0.004c0.837-0.891-0.445-1.744,0.745-2.009
		c0.287,0.5-0.27,1.37,0.134,1.771c0.646,0.646,1.458-0.604,2.257-0.656C16.585,83.373,17.774,82.499,17.127,81.854L17.127,81.854z
		 M10.425,79c0,0-0.418-0.299,0.083-0.846c0.514-0.533,0.818-0.111,0.818-0.111s0.471,1.053,0.61,1.538
		C11.461,79.453,10.425,79,10.425,79L10.425,79L10.425,79z M14.564,82.203c-0.26,0.033-0.875,0.583-1.183,0.275l-1.411-1.408
		l0.706-0.752l0.708-0.75l1.41,1.41C15.104,81.285,14.588,81.936,14.564,82.203L14.564,82.203z M37.949,103.773
		c0.047-0.211,0.015-0.381-0.095-0.49c-0.035-0.034-0.065-0.055-0.084-0.055c-0.079,0-0.256,0.221-0.427,0.434
		c-0.142,0.176-0.319,0.395-0.544,0.634c-0.225,0.24-0.433,0.429-0.6,0.581c-0.198,0.18-0.403,0.367-0.406,0.451
		c0,0.02,0.021,0.051,0.056,0.086c0.073,0.074,0.171,0.109,0.29,0.109c0.182,0,0.575-0.092,1.166-0.723
		C37.752,104.325,37.902,103.979,37.949,103.773L37.949,103.773z M37.958,105.453c-0.308,0.326-0.62,0.561-0.793,0.679
		c0.123,0.125,0.472,0.347,0.907,0.347c0.249,0,0.481-0.074,0.693-0.219c0.436-0.721,0.016-1.457-0.173-1.645
		C38.48,104.797,38.265,105.127,37.958,105.453L37.958,105.453z M33.194,101.447c-0.224,0.211-0.742,1.673-0.516,2.562
		c0.097,0.382,0.307,0.546,0.662,0.525c0.367-0.023,0.567-0.216,0.629-0.604C34.11,103.041,33.438,101.627,33.194,101.447
		L33.194,101.447z M32.912,97.386c0.013,0.024,2.657,2.358,3.544,3.202c0.209,0.199,0.498,0.246,0.79,0.096
		c0.167-0.086,0.375-0.184,0.59-0.283c2.644-0.938,6.994-1.043,8.589-0.971c0.96,0.041,1.3-0.529,1.204-0.99
		c-0.312-1.504-0.382-4.2,0.877-6.031c-1.365,0.457-2.682,1.679-2.682,1.679c-0.451-0.954-0.64-3.051-0.547-4.062
		c-1.243,0.447-2.351,1.633-2.351,1.633c-0.487-1.297-0.639-3.747-0.485-5.141c-3.09,1.035-0.202,6.49-3.969,6.318
		c1.059,1.535,2.33,0.911,3.48,0.911c0.807,0,1.809,0.53,1.646,1.739c-0.118,0.877-5.172,1.969-7.205,1.969
		c-1.421,0-2.373-0.439-3.085-1.43c-0.343-0.477-0.693-0.69-1.084-0.631c-0.486,0.076-1.055,0.573-1.055,1.729
		c0,0.818,0.33,2.611,1.309,2.611C33.166,99.734,33.195,98.316,32.912,97.386L32.912,97.386z M36.179,103.68
		c0.462-0.492,0.624-0.85,0.509-1.129c-0.165-0.402-1.215-1.574-2.589-2.896c-0.042,0.291-0.118,0.599-0.183,0.808
		c0.926,1.228,1.272,2.545,0.96,3.651c0.113,0.074,0.183,0.109,0.224,0.126C35.456,104.379,35.898,103.977,36.179,103.68
		L36.179,103.68z M29.493,97.006c-0.007,0.008-0.178,0.176-0.289,0.404c0.288,0.001,0.623,0.051,0.924,0.132
		c-0.021-0.269-0.04-0.63-0.014-0.942C29.859,96.658,29.586,96.902,29.493,97.006L29.493,97.006z M75.68,105.436
		c0.869-0.397,1.497-1.477,1.662-2.529c-0.551,0.271-1.174,0.402-1.891,0.402c-1.973,0-4.45-1.098-6.696-2.092
		c0,0-0.483,0.407-1.285,0.492c2.265,0.697,6.718,3.169,7.046,4.754c0.219,1.061-0.473,1.467-0.473,1.467
		c-0.991-1.617-3.545-4.129-6.953-5.385c0.009,0.592-0.105,1.006-0.105,1.006s-0.691,0.17-2.161-0.085
		c1.285,1.072,4.659,4.858,5.024,7.729c0.244,1.918-1.096,2.007-1.096,2.007c-0.191-2.884-1.703-5.868-4.434-8.866
		c0,0-0.447,0.703-1.043,1.057c0,0-1.008-0.179-1.845-0.731c0.321,3.806,0.513,8.749,0.312,10.246
		c-0.14,1.041-0.743,1.479-0.743,1.479s-0.606-0.438-0.746-1.479c-0.2-1.497-0.01-6.44,0.312-10.246
		c-0.836,0.554-1.845,0.731-1.845,0.731c-0.595-0.354-1.042-1.057-1.042-1.057c-2.731,2.998-4.244,5.982-4.435,8.866
		c0,0-1.34-0.089-1.096-2.007c0.366-2.871,3.741-6.657,5.025-7.729c-1.469,0.255-2.161,0.085-2.161,0.085s-0.113-0.414-0.106-1.006
		c-3.408,1.256-5.961,3.768-6.953,5.385c0,0-0.691-0.406-0.472-1.467c0.327-1.585,4.78-4.057,7.047-4.754
		c-0.803-0.085-1.287-0.492-1.287-0.492c-2.246,0.994-4.724,2.092-6.696,2.092c-0.717,0-1.339-0.133-1.891-0.402
		c0.165,1.054,0.793,2.132,1.664,2.529c-3.047,2.145-1.166,7.168-5.252,6.225c2.279,4.23,6.888,4.656,6.888,4.656
		c-1.021-2.238,0.252-9.067,6.37-12.17c-3.766,3.754-5.481,8.308-4.482,11.519c0.917,2.946,3.896,4.142,6.14,4.192
		c-1.586-4.873-0.608-10.455,2.684-13.969C57.255,109.742,55.271,120.027,61,122c5.729-1.973,3.742-12.258,2.331-16.111
		c3.294,3.514,4.271,9.096,2.686,13.969c2.242-0.051,5.223-1.246,6.141-4.192c0.997-3.211-0.718-7.765-4.482-11.519
		c6.117,3.103,7.392,9.932,6.369,12.17c0,0,4.608-0.426,6.888-4.656C76.844,112.604,78.727,107.579,75.68,105.436L75.68,105.436z
		 M61.486,20.665c0-0.302-0.239-0.548-0.531-0.548c-0.293,0-0.531,0.246-0.531,0.548c0,0.303,0.238,0.549,0.531,0.549
		S61.486,20.968,61.486,20.665L61.486,20.665z M64.164,20.665c0-0.302-0.237-0.548-0.531-0.548c-0.292,0-0.528,0.246-0.528,0.548
		c0,0.303,0.236,0.549,0.528,0.549C63.927,21.214,64.164,20.968,64.164,20.665L64.164,20.665z M60.003,6.438
		c0,0.565,0.446,1.027,0.994,1.027c0.547,0,0.993-0.462,0.993-1.027c0-0.566-0.445-1.027-0.993-1.027
		C60.45,5.411,60.003,5.872,60.003,6.438L60.003,6.438z M60.324,4.256h1.352L61.53,2.619L63,2.776V1.48l-1.47,0.157L61.676,0h-1.352
		l0.146,1.637L59,1.48v1.295l1.469-0.157L60.324,4.256L60.324,4.256z M58.809,20.665c0-0.302-0.238-0.548-0.531-0.548
		c-0.292,0-0.531,0.246-0.531,0.548c0,0.303,0.238,0.549,0.531,0.549S58.809,20.968,58.809,20.665L58.809,20.665z M55.621,22.697
		c0.144,0.052,0.31,0.08,0.506,0.08h9.747c0.197,0,0.363-0.028,0.506-0.08c0.314-0.113,0.506-0.35,0.58-0.729H55.041
		C55.114,22.347,55.306,22.584,55.621,22.697L55.621,22.697z M56.157,20.665c0-0.302-0.238-0.548-0.531-0.548
		c-0.292,0-0.531,0.246-0.531,0.548c0,0.303,0.238,0.549,0.531,0.549S56.157,20.968,56.157,20.665L56.157,20.665z M66.816,20.665
		c0-0.302-0.238-0.548-0.529-0.548c-0.294,0-0.532,0.246-0.532,0.548c0,0.303,0.238,0.549,0.532,0.549
		C66.578,21.214,66.816,20.968,66.816,20.665L66.816,20.665z M67.453,19.365c0.275-0.342,1.643-2.989,1.643-5.662
		c0-2.405-3.018-3.729-4.812-3.79c-0.207,3.436-1.543,8.83-3.283,8.83c-1.647,0-3.079-5.362-3.284-8.83
		c-1.794,0.061-4.811,1.385-4.811,3.79c0,2.673,1.366,5.32,1.641,5.662H67.453L67.453,19.365z M61,17.036
		c0.82,0,1.878-3.422,2.149-6.66c0-0.656-0.819-1.659-2.149-1.685c-1.33,0.026-2.15,1.029-2.15,1.685
		C59.087,13.396,60.193,17.036,61,17.036L61,17.036z M34.942,34.503c-1.591,2.192,0.609,4.591,0.745,4.756
		c0.096,0.117,0.178,0.064,0.163-0.067c-0.012-0.112,1.145-3.493,7.801-1.712c0.143,0.038,0.23,0.041,0.096-0.098
		c-1.229-0.977-2.688-3.166-3.16-4.927C40.587,32.456,36.534,32.312,34.942,34.503L34.942,34.503z M38.512,34.045
		c0-0.612,0.889-0.781,1.4-0.781c0,0,0.224,0.591,0.449,0.918C39.841,33.95,39.122,33.926,38.512,34.045L38.512,34.045z
		 M42.044,31.185c-0.443,0-0.608,0.282-0.463,0.771c1.529,5.166,5.699,6.391,7.345,8.628c0,0-0.012-0.697,0.752-2.36
		c0.52,0.855,1.928,2.457,2.843,2.661c-0.219-0.461-0.479-2.28-0.276-3.502c2.161,1.894,4.824,2.267,6.254,1.173
		c-1.217,0.047-2.802-1.311-3.6-2.515c1.114,0.258,2.647-0.008,2.963-0.329c-0.704-0.172-1.557-0.797-2.071-1.392
		c0.791-0.055,2.505-0.704,2.995-1.619c-0.688,0.157-1.707-0.125-2.371-0.477c0.505-0.274,1.767-1.629,2.07-2.819
		c-1.792,0.881-4.619,1.757-8.807,1.757C49.679,31.164,42.278,31.185,42.044,31.185L42.044,31.185z M46.667,33.54
		c-1.184,0.47-1.777,1.104-1.777,1.104s-0.568-0.935-0.75-1.235c-0.182-0.3-0.238-0.668,0.374-0.668h3.67
		C48.186,32.992,47.852,33.069,46.667,33.54L46.667,33.54z M34.138,41.945c0.383,0.509,1.467,2.064,3.845,0.674
		c2.377-1.391,3.604-2.148,3.604-2.148s-0.372,0.718-0.09,1.578c0.017,0.049,0.072,0.047,0.094-0.004
		c0.237-0.557,2.302-2.168,4.936-2.391c-0.966-0.845-2.025-1.599-2.025-1.599c-1.125,0.182-3.306,0.953-6.126,2.788
		c-2.821,1.835-4.121,1.069-4.175,1.035C34.146,41.844,34.069,41.854,34.138,41.945L34.138,41.945z M67.832,100.551
		c0.406-0.13,0.746-0.338,0.922-0.57c-1.821-0.078-3.325-1.653-3.877-2.627c-0.604,1.004-1.686,1.787-1.686,1.787
		c-0.771-0.203-1.821-1.043-2.191-1.686c-0.37,0.643-1.422,1.482-2.191,1.686c0,0-1.08-0.783-1.686-1.787
		c-0.551,0.974-2.055,2.549-3.877,2.627c0.175,0.232,0.515,0.44,0.921,0.57c0.272,0.088,0.573,0.143,0.876,0.143
		c0.321,0,0.643-0.06,0.932-0.194c-0.182,0.662-0.242,1.479-0.109,2.041c0,0,0.969,0.076,1.97-0.302
		c0.072,0.604,0.348,1.339,0.801,1.835c0.089,0.098,0.182,0.188,0.284,0.264c0.538,0,1.834-0.627,2.079-1.014
		c0.244,0.387,1.541,1.014,2.079,1.014c0.104-0.075,0.195-0.166,0.284-0.264c0.453-0.496,0.729-1.229,0.801-1.835
		c0.449,0.226,0.974,0.316,1.551,0.316c0.138,0,0.275-0.006,0.418-0.016c0.135-0.561,0.073-1.379-0.108-2.041
		c0.289,0.136,0.61,0.193,0.933,0.193C67.26,100.691,67.561,100.639,67.832,100.551L67.832,100.551z M49.647,61.632
		c-0.357,0-0.578,0.229-0.578,0.597v22.312c0,2.128,0.837,3.207,2.488,3.207l4.13,0.018c2.83,0,4.5,0.976,5.313,2.185
		c0.691-1.127,2.634-2.185,5.312-2.185l4.129-0.018c1.65,0,2.488-1.079,2.488-3.207V62.229c0-0.367-0.222-0.597-0.578-0.597H49.647
		L49.647,61.632z M53.682,82.508c-0.04,0.494,0.534,1.393,1.479,1.111c-0.028,0.183,0.025,0.681,0.236,1.055
		C53.722,85.055,53,83.674,53.682,82.508L53.682,82.508L53.682,82.508z M68.871,75.121c-0.23-0.245-0.459-0.492-0.684-0.743
		c-0.238-0.267-0.408-0.37-0.652-0.37c-0.549,0-1.135,0.301-1.449,0.51c-0.021,0.008-0.036,0.028-0.044,0.084
		c0.333-0.031,0.668-0.056,1-0.094c0.292-0.033,0.563-0.021,0.815,0.166c0.199,0.146,0.311,0.329,0.319,0.566
		c0.032,0.76,0.638,2.357,0.677,2.838c0.047,0.189-0.181,0.244-0.494,1.127c-0.231,0.259-0.857-0.564-0.768-0.758
		c0.364-0.477,0.467-0.773,0.372-1.129c-0.073-0.285-0.213-0.795-0.315-1.071c-0.137-0.368-0.446-0.507-0.831-0.374
		c-1.511,0.501-1.743-0.168-3.239,0.461l1.723,2.672c-0.006-0.193-0.099-0.543-0.377-0.794c0.051-0.271,0.595-0.382,0.798-0.128
		c0.25,0.318,0.735,0.775,1.137,0.85c0.769,0.144,0.71,1.312,2.766,1.703c-0.256,0.266-0.825,0.176-1.074,0.057
		c0.15,0.231,0.322,0.451,0.634,0.529c-0.318,0.32-1.232-0.43-1.141,0.325c0.158-0.092,0.377-0.106,0.562-0.06
		c0.41,0.102,1.082,2.438-0.336,3.459c0.304,0.09,0.627-0.07,0.934-0.07c0.18,0,0.347,0.175,0.365,0.369
		c0.132,0.102,0.219,0.227,0.296,0.387c-0.107,0.035-0.312,0.002-0.429-0.074c0.047,0.131,0.035,0.441-0.012,0.447
		c-0.129,0.018-0.229-0.057-0.359-0.135c-0.182,0.094-0.78,0.056-0.951-0.098c-0.452,0.11-0.898,0.26-1.37,0.26
		c-0.254,0-0.59-0.018-0.578-0.328c0.006-0.152,0.081-0.23,0.142-0.396c-0.218-0.224-0.579-0.008-1.011,0.035
		c-0.585,0.057-0.825-0.035-0.953-0.154c0.554-0.512,0.22-1.76-0.633-1.869c0.701,0.673,0.609,1.763-0.176,2.007
		c0.228,0.073,0.339,0.177,0.426,0.338c0.275,0.114,0.28,0.315,0.261,0.405c-0.151-0.106-0.425-0.215-0.642-0.186
		c-0.016,0.096-0.055,0.273-0.137,0.342c-0.094-0.021-0.217-0.105-0.264-0.176c-0.25-0.191-1.812,0.176-1.907-0.082
		c-0.061-0.238,0.355-0.439,0.741-0.525c-0.989-0.362-1.847-2.229-3.371-2.547c-0.706-0.146-1.663,0.172-1.663,1.095
		c0,0.452,0.363,0.801,0.755,0.801c0.361,0,0.542-0.25,0.542-0.504c-0.058,0.044-0.094,0.071-0.129,0.101
		c-0.221,0.182-0.503,0.17-0.707-0.029c-0.179-0.174-0.179-0.479-0.005-0.687c0.143-0.171,0.315-0.269,0.545-0.301
		c0.596-0.088,1.084,0.104,1.413,0.583c0.156,0.229,0.243,0.475,0.243,0.711c0,1.062-1.061,1.302-1.647,1.302
		c-1.477,0-2.348-1.061-2.348-2.286c0-0.144,0.007-0.287,0.032-0.435c0.231-1.381,1.461-1.958,2.525-2.131
		c-0.136-0.48-0.398-0.869-0.774-1.187c-0.188-0.158-0.207-0.287-0.088-0.488c0.161-0.274,0.33-0.545,0.4-0.854
		c0.017-0.069,0.024-0.144,0.029-0.219c-0.53,0.478-1.271,0.913-2.295,1.225c-0.323,0.149-0.494,0.445-0.535,0.784
		c-0.047,0.395-0.058,0.794-0.064,1.191c-0.002,0.092,0.064,0.19,0.114,0.279c0.191,0.327,0.401,0.646,0.449,1.057
		c0,0.197-0.995,0.219-0.995,0.06c-0.009-0.72-0.489-0.999-0.437-1.475c0.132-0.738,0.162-1.479,0.042-2.222
		c-0.031-0.188,0.068-0.311,0.202-0.408c0.211-0.161,0.436-0.307,0.647-0.467c0.498-0.382,0.704-0.879,0.587-1.496
		c-0.015-0.08-0.05-0.156-0.085-0.231c-0.248-0.549-0.429-1.104-0.429-1.724c0-0.678-0.838-0.639-0.784,0.027
		c0.018,0.208,0.172,0.5,0.259,0.699c0.86,1.982-0.686,3.41-2.285,3.41c1.681-0.584-0.393-2.74-0.393-4.35
		c0-0.986,0.761-1.717,1.668-1.717c1.047,0,1.711,0.678,1.901,0.793c0.506-0.806,2.057-0.949,2.639-1.044
		c-0.044-0.434,0.017-0.817,0.282-1.149c0.017-0.023,0.028-0.064,0.019-0.088c-0.083-0.205-0.171-0.408-0.285-0.606
		c-0.478,0.54-0.592,1.257-0.592,1.626c-1.768-0.025-2.547-0.801-3.07-1.107c0.002-0.135,0.472-0.981,0.889-1.543
		c-0.457,0.394-0.833,0.836-1.109,1.365c-0.253-0.183-0.519-0.348-0.778-0.457c0.398-0.855,0.926-1.521,1.599-2.217
		c-0.947,0.352-1.772,1.425-2.084,2.1c-0.27-0.031-0.669-0.041-0.893,0.002c1.033-1.266,1.504-3.76,3.775-4.317
		c-0.569,2.312,0.845,3.252,1.819,2.647c-0.127,0-0.213,0.021-0.295,0c-1.898-0.481-0.773-3.117-1.233-3.666
		c-0.174-0.207-0.265-0.397-0.236-0.662c0.01-0.093-0.017-0.199-0.06-0.285l-1.009-1.688c-0.127-0.213,0.266-0.364,0.351-0.267
		l1.029,1.688c0.027,0.042,0.06,0.104,0.098,0.111c0.376,0.065,0.493,0.38,0.646,0.655c0.048,0.09,0.086,0.191,0.095,0.293
		c0.007,0.076-0.014,0.185-0.065,0.236c-0.164,0.166-0.132,0.329-0.005,0.545c0.203,0.346,6.303,10.518,6.303,10.518
		c-1.324,0.543-3.721,0.586-4.416,0.52c-0.144,0.354-0.369,0.725-0.702,1.084c0.333-0.217,0.589-0.492,0.827-0.791
		c0.268,0.031,0.669,0.139,1.081,0.17c-0.243,0.521-0.608,1.037-1.077,1.471c-0.22,0.219-0.494,0.41-0.393,0.759
		c0.113,0.394,0.841,1.14,1.107,1.624c0.264,0.056,0.709,0.148,1.035,0.279c0.186,0.4,0.816,0.904,1.575,0.645
		c-1.526-0.02-1.413-1.585-0.939-2.413c-0.051,0.771,0.32,1.408,0.789,1.479c-0.703-0.644-0.632-2.104,0.054-2.906
		c0.098,1.302,0.491,1.986,1.057,2.143c-0.746-0.688-1.193-2.277-0.067-3.437c0.088,2.973,2.807,2.437,3.053,5.877
		c1.007,0,1.063-1.356,0.503-1.606c-0.327-0.123-0.623-0.339-0.791-0.634c-0.069-0.123-0.143-0.344-0.199-0.474
		c-0.299-0.885-1.144-0.828-1.124-1.04c0.021-0.071,0.154-0.104,0.34-0.104l-1.592-2.462l-0.083-0.129
		c0.192-0.039,0.235-0.149,0.038-0.463c0,0-5.975-9.944-6.003-10.002c0.555-0.099,1.089,0.054,1.608,0.256
		c-0.139-0.129-0.252-0.31-0.276-0.495c-0.02-0.148-0.015-0.236,0.105-0.33c0.127-0.104,0.249-0.224,0.338-0.359
		c0.297-0.451,0.842-0.672,1.337-0.53c0.747,0.212,1.012,1.06,0.462,1.503c-0.292,0.646-0.655,0.564-0.729,0.854
		c0.146,0.068,1.168,0.858,1.237,1.191c-0.305,0.635-0.456,1.627-0.192,2.18c0.197-2.638,1.784-3.928,3.33-3.928
		c0.367,0,0.731,0.062,1.098,0.188c0.2,0.068,0.4,0.166,0.567,0.293c0.24,0.185,0.467,0.394,0.67,0.617
		c0.303,0.33,0.578,0.687,1.092,0.709c-0.15,0.213-0.32,0.369-0.496,0.523c-0.125,0.113-0.188,0.249-0.203,0.419
		c-0.036,0.366-0.156,0.702-0.426,0.972c-0.036,0.035-0.065,0.084-0.082,0.129c-0.172,0.498-0.346,0.996-0.508,1.496
		c-0.039,0.123-0.03,0.291-0.194,0.289c-0.144-0.002-0.315-0.045-0.423-0.131c-0.227-0.184-0.308-0.451-0.227-0.734
		c0.08-0.279,0-0.521-0.089-0.781c-0.091-0.262-0.122-0.544-0.185-0.842c-0.422-0.147-1.214,0.76-0.608,1.521
		c0.393,0.562,0.745,1.595,0.807,2.017c0.013,0.041-0.356,0.274-0.866,0.209c-1.724-0.221-2.812-1.418-3.145-2.428
		c-0.027,1.711,1.393,2.979,3.495,2.856c0.085,0.397,0.411,0.67,0.79,0.682c0.078-0.257,0.076-0.797,0.013-1.141
		c-0.028-0.15,0.05-0.229,0.19-0.265c0.459-0.117,1.059-0.071,1.569-0.254c0.453-0.164,0.668-0.067,0.951,0.481
		c0.213,0.415,0.579,0.86,0.924,1.169c0.146,0.129,0.291,0.259,0.429,0.396c0.174,0.174,0.266,0.381,0.278,0.635
		c-0.045,0.398,0.008,1.201,0.008,1.215c-0.1,0.264-0.825-0.016-0.942-0.299C68.889,76.259,69.244,75.52,68.871,75.121
		L68.871,75.121z M81.412,32.456c-0.471,1.761-1.93,3.95-3.16,4.927c-0.133,0.138-0.045,0.136,0.098,0.098
		c6.655-1.78,7.812,1.6,7.801,1.712c-0.016,0.131,0.066,0.184,0.162,0.067c0.138-0.166,2.336-2.564,0.746-4.756
		C85.467,32.312,81.412,32.456,81.412,32.456L81.412,32.456z M81.641,34.182c0.226-0.327,0.449-0.918,0.449-0.918
		c0.51,0,1.398,0.169,1.398,0.781C82.879,33.926,82.158,33.95,81.641,34.182L81.641,34.182z M87.863,41.945
		c0.066-0.09-0.01-0.101-0.062-0.066c-0.055,0.034-1.354,0.801-4.175-1.035c-2.821-1.836-5.001-2.606-6.126-2.788
		c0,0-1.061,0.753-2.025,1.599c2.633,0.223,4.698,1.834,4.937,2.391c0.021,0.051,0.075,0.053,0.094,0.004
		c0.281-0.86-0.09-1.578-0.09-1.578s1.228,0.757,3.604,2.148C86.396,44.009,87.479,42.454,87.863,41.945L87.863,41.945z
		 M65.585,32.226c-0.664,0.352-1.683,0.633-2.371,0.477c0.49,0.915,2.205,1.564,2.995,1.619c-0.514,0.594-1.367,1.22-2.069,1.392
		c0.315,0.321,1.85,0.586,2.963,0.329c-0.798,1.204-2.384,2.562-3.601,2.515c1.431,1.093,4.094,0.721,6.254-1.173
		c0.203,1.222-0.057,3.041-0.275,3.502c0.914-0.204,2.322-1.806,2.843-2.661c0.764,1.663,0.752,2.36,0.752,2.36
		c1.646-2.238,5.815-3.462,7.346-8.628c0.146-0.489-0.021-0.771-0.464-0.771c-0.232,0-7.634-0.021-7.634-0.021
		c-4.189,0-7.016-0.876-8.808-1.757C63.817,30.597,65.079,31.952,65.585,32.226L65.585,32.226z M77.484,32.741
		c0.613,0,0.557,0.368,0.375,0.668c-0.183,0.3-0.75,1.235-0.75,1.235s-0.594-0.635-1.777-1.104c-1.184-0.47-1.518-0.548-1.518-0.798
		L77.484,32.741L77.484,32.741z M50.101,40.479c-0.239,0.676-0.309,1.421-0.182,2.392c0.77,1.672,1.142,4.776,0.904,6.512
		c1.226-1.71,1.771-3.634,2.122-5.173c0.703,0.719,1.615,1.749,2.251,2.583c0.109-0.903,0.303-2.019,0.473-2.825
		c0.916,0.875,2.816,1.973,4.101,2.362c-0.865-3.65-2.345-5.977-2.345-5.977c-1.256,0.126-3.28-0.18-4.189-1.075
		c0.163,1.323,1.072,2.843,1.072,2.843C52.357,42.311,50.978,41.646,50.101,40.479L50.101,40.479z M71.9,40.479
		c-0.877,1.167-2.258,1.832-4.207,1.642c0,0,0.908-1.521,1.072-2.843c-0.91,0.895-2.935,1.201-4.189,1.075
		c0,0-1.479,2.327-2.346,5.977c1.285-0.39,3.186-1.488,4.102-2.362c0.17,0.806,0.363,1.921,0.474,2.825
		c0.637-0.834,1.548-1.864,2.251-2.583c0.352,1.539,0.896,3.463,2.121,5.173c-0.238-1.735,0.135-4.84,0.904-6.512
		C72.209,41.9,72.139,41.154,71.9,40.479L71.9,40.479z M55.133,51.979c0.736,1.183,1.391,2.605,1.617,3.872
		c0.705-0.854,1.45-2.337,1.955-4.109c0.619,0.773,1.7,2.349,2.295,3.649c0.596-1.3,1.675-2.875,2.294-3.649
		c0.505,1.772,1.25,3.255,1.955,4.109c0.228-1.267,0.881-2.689,1.617-3.872c0.559,2.302,2.717,4.541,4.943,4.709
		c-1.449-1.881-1.509-5.133-1.406-6.216c-0.965-1.5-1.6-2.854-1.903-3.773c-0.653,0.647-1.667,1.905-2.574,3.358
		c0-0.018-0.025-1.822-0.388-4.014C64.603,46.89,62.906,47.502,62,47.74c-0.57,0.933-0.728,1.661-1,2.832
		c-0.272-1.171-0.429-1.898-1.001-2.832c-0.906-0.238-2.602-0.85-3.538-1.696c-0.362,2.191-0.388,3.996-0.388,4.014
		c-0.908-1.453-1.92-2.711-2.574-3.358c-0.304,0.92-0.939,2.273-1.904,3.773c0.103,1.083,0.043,4.334-1.406,6.216
		C52.417,56.521,54.575,54.281,55.133,51.979L55.133,51.979z M34.955,79.201c1.25-0.814,2.041-2.297,2.941-4.109
		c-0.524,0.217-1.284,0.452-2.045,0.609c-0.743,1.438-1.794,0.88-1.822,0.676c0.228-0.252,0.487-0.624,0.682-0.947
		c-0.316-0.594-0.698-1.476-0.908-2.021c-1.062,2.238-3.014,4.51-4.648,5.396C30.117,80.143,33.098,80.414,34.955,79.201
		L34.955,79.201z M38.817,75.432c-0.887,1.871-0.678,4.754,2.145,4.836c-0.234-2.041,0.686-3.963,1.668-4.836
		c-0.846,0.209-2.222,1.317-2.222,1.317s-0.208,0.476-0.249,1.091c-0.591,0.105-0.917-0.35-0.672-1.299
		C39.487,76.541,39.061,76.053,38.817,75.432L38.817,75.432z M24.847,77.568c0.411,0,0.827-0.051,1.234-0.152
		c2.725-0.673,5.321-3.004,6.863-4.961c-0.881,0.279-1.771,0.461-2.758,0.561c0,0-0.691,0.81-1.223,1.107
		c-0.27,0.152-0.539,0.227-0.794,0.227c-0.771,0-1.098-0.633-1.098-0.633s1.243-0.597,2.035-1.443
		c-0.157-0.623-0.256-1.487-0.274-2.35c-2.146,2.155-6.18,4.25-8.997,4.656C20.392,75.742,22.371,77.568,24.847,77.568
		L24.847,77.568z M19.391,72.994c0.141,0,0.284-0.006,0.423-0.02c2.801-0.277,6.182-2.072,8.358-3.625
		c-0.693,0.142-2.515,0.182-3.379,0.062c-0.299,0.2-1.617,1.034-2.714,1.173c-2.001,0.254-2.212-0.984-2.212-0.984
		c1.285-0.156,2.767-0.591,4.184-1.25c0.142-1.066,0.389-2.018,0.6-2.719c-3.088,1.721-8.125,2.93-11.114,2.971
		C14.133,70.021,16.452,72.994,19.391,72.994L19.391,72.994z M19.831,62.904c0.431-0.762,1.112-1.662,1.732-2.396
		c-2.465,0.679-5.639,0.821-7.321,0.821c-1.984,0-3.911-0.141-5.017-0.362c0.098,1.994,1.994,5.432,5.733,5.768
		c0.195,0.018,0.411,0.024,0.642,0.024c2.333,0,6.043-0.942,8.597-1.85c-1.821-0.234-3.579-0.666-3.98-0.835
		c-0.95,0.271-3.218,0.652-3.955,0.611c-1.671-0.092-1.851-1.375-1.851-1.375S17.42,63.439,19.831,62.904L19.831,62.904z
		 M10.854,59.252c1.389,0.449,3.605,0.707,6.08,0.707c1.509,0,3.102-0.135,4.397-0.319c-1.399-0.477-3.125-1.197-4.248-1.91
		c-1.402-0.028-3.306-0.068-4.528-0.442c-1.797-0.55-1.772-1.78-1.74-2.056c1.554,0.625,4.197,1.223,6.151,1.339
		c0.72-0.694,1.833-1.521,3.007-2.241c-4.637,0.041-10.556-1.796-13.881-3.557C5.332,56.961,9.534,58.825,10.854,59.252
		L10.854,59.252z M21.044,46.42c-0.715-1.373-1.413-3.22-1.505-4.812c-2.168-1.704-4.644-3.873-6.076-6.352
		c-0.828-1.433-0.522-2.688,0.064-3.12c0.447,1.556,3.359,5.915,5.999,8.1c0.021-1.396,0.256-3.003,0.62-4.211
		c-3.069-3.34-6.509-8.874-7.34-11.041c-0.934,0.773-2.544,2.72-2.94,5.462c-0.398,2.76,0.497,5.596,2.66,8.429
		C14.189,41.055,17.853,44.303,21.044,46.42L21.044,46.42z M20.163,53.441c-2.109-1.399-3.572-2.698-4.352-3.864
		c-1.763-0.686-4.042-1.733-5.165-2.676c-1.543-1.295-1.055-2.46-0.875-2.693c1.358,1.387,4.301,3.387,6.391,4.277
		c1.304-0.509,3.117-0.881,4.883-1.099c-5.234-2.069-10.853-5.952-13.789-9.612C6.661,38.93,4.242,44.37,8.776,48.83
		C11.165,51.18,16.083,52.801,20.163,53.441L20.163,53.441z M88.197,73.408c-0.211,0.546-0.592,1.428-0.908,2.021
		c0.195,0.323,0.455,0.695,0.682,0.947c-0.027,0.204-1.078,0.762-1.82-0.676c-0.762-0.157-1.521-0.393-2.047-0.609
		c0.9,1.812,1.691,3.295,2.941,4.109c1.857,1.213,4.838,0.941,5.801-0.396C91.211,77.918,89.259,75.646,88.197,73.408L88.197,73.408
		z M83.184,75.432c-0.244,0.621-0.67,1.109-0.67,1.109c0.244,0.949-0.082,1.404-0.674,1.299c-0.041-0.615-0.248-1.091-0.248-1.091
		s-1.377-1.108-2.223-1.317c0.982,0.873,1.902,2.795,1.669,4.836C83.859,80.186,84.068,77.303,83.184,75.432L83.184,75.432z
		 M92.895,72.273c0.791,0.847,2.035,1.442,2.035,1.442s-0.328,0.632-1.099,0.632c-0.255,0-0.524-0.072-0.794-0.226
		c-0.532-0.299-1.223-1.106-1.223-1.106c-0.987-0.101-1.877-0.281-2.76-0.562c1.543,1.957,4.139,4.288,6.863,4.961
		c0.407,0.103,0.823,0.151,1.234,0.151c2.477,0,4.455-1.825,5.013-2.987c-2.815-0.406-6.851-2.501-8.997-4.656
		C93.15,70.785,93.051,71.648,92.895,72.273L92.895,72.273z M97.95,68.35c1.417,0.659,2.897,1.094,4.185,1.25
		c0,0-0.213,1.238-2.213,0.984c-1.097-0.139-2.416-0.973-2.714-1.173c-0.864,0.12-2.687,0.08-3.38-0.062
		c2.178,1.553,5.559,3.348,8.357,3.625c0.141,0.014,0.282,0.02,0.424,0.02c2.938,0,5.258-2.975,5.854-4.395
		c-2.987-0.039-8.024-1.25-11.112-2.97C97.562,66.332,97.809,67.282,97.95,68.35L97.95,68.35z M100.438,60.508
		c0.621,0.734,1.301,1.635,1.732,2.396c2.41,0.535,5.418,0.408,5.418,0.408s-0.178,1.283-1.85,1.375
		c-0.737,0.041-3.006-0.34-3.955-0.612c-0.4,0.169-2.159,0.601-3.979,0.835c2.553,0.906,6.264,1.85,8.596,1.85
		c0.231,0,0.447-0.008,0.643-0.025c3.74-0.336,5.637-3.772,5.732-5.767c-1.104,0.222-3.032,0.362-5.016,0.362
		C106.077,61.33,102.902,61.188,100.438,60.508L100.438,60.508z M115.908,50.773c-3.326,1.761-9.244,3.598-13.881,3.557
		c1.174,0.72,2.285,1.547,3.007,2.241c1.954-0.116,4.597-0.714,6.151-1.339c0.03,0.276,0.057,1.506-1.74,2.056
		c-1.223,0.374-3.125,0.414-4.527,0.442c-1.123,0.713-2.85,1.434-4.248,1.91c1.295,0.184,2.889,0.319,4.398,0.319
		c2.475,0,4.688-0.257,6.078-0.707C112.467,58.825,116.669,56.961,115.908,50.773L115.908,50.773z M108.473,32.137
		c0.586,0.432,0.893,1.688,0.064,3.12c-1.434,2.479-3.908,4.647-6.076,6.352c-0.092,1.592-0.791,3.439-1.506,4.812
		c3.193-2.117,6.855-5.366,8.52-7.544c2.162-2.833,3.059-5.669,2.659-8.429c-0.396-2.743-2.005-4.689-2.94-5.462
		c-0.83,2.167-4.271,7.701-7.34,11.041c0.364,1.208,0.601,2.815,0.621,4.211C105.113,38.051,108.025,33.693,108.473,32.137
		L108.473,32.137z M105.838,48.484c2.092-0.89,5.033-2.89,6.391-4.277c0.181,0.233,0.668,1.398-0.875,2.693
		c-1.121,0.943-3.401,1.991-5.164,2.676c-0.779,1.166-2.241,2.464-4.353,3.864c4.079-0.64,8.999-2.261,11.388-4.611
		c4.533-4.46,2.115-9.9,1.521-11.056c-2.937,3.66-8.556,7.543-13.789,9.612C102.721,47.603,104.534,47.976,105.838,48.484
		L105.838,48.484z M93.643,42.222c-1.701,3.947-6.01,7.466-8.797,9.228c-1.272,0.804-0.809,2.328-0.402,3.004
		c3.8,6.314-3.107,11.021-9.346,7.892c1.36,0.014,2.734-1.144,2.926-2.175c-0.434,0.374-2.205,0.168-2.729-0.315
		c0.805-0.421,0.994-0.847,1.036-1.246c-0.993,0.61-3.003,0.694-3.595-0.337c-3.297-0.089-5.488-2.664-5.73-3.406
		c-0.243,0.791-0.639,2.171-0.769,3.534c-0.895-0.606-2.421-1.977-3.217-3.835c-0.9,1.287-1.58,2.738-2.021,4.266
		c-0.441-1.528-1.12-2.979-2.021-4.266c-0.796,1.859-2.322,3.229-3.216,3.835c-0.13-1.363-0.524-2.744-0.769-3.534
		c-0.243,0.743-2.435,3.317-5.731,3.406c-0.592,1.031-2.601,0.947-3.595,0.337c0.042,0.399,0.233,0.825,1.036,1.246
		c-0.523,0.484-2.295,0.689-2.728,0.315c0.19,1.032,1.564,2.188,2.926,2.175c-6.238,3.129-13.145-1.578-9.347-7.892
		c0.407-0.676,0.871-2.2-0.401-3.004c-2.788-1.762-7.098-5.28-8.798-9.228c-0.202,1.61-0.048,5.604,1.679,8.089
		c-1.262,0.483-2.88,1.267-3.967,1.993c0.688,0.783,2.29,2.135,3.366,2.87c-0.878,0.782-2.242,2.279-2.958,3.26
		c0.907,0.54,2.734,1.195,4.13,1.638c-0.646,1.066-1.638,2.989-1.887,4.134c1.563,0.229,3.159,0.207,4.568,0.162
		c-0.18,1.335-0.062,3.011,0.08,4.231c1.451-0.209,3.047-0.799,4.106-1.356c0.201,0.922,0.754,2.621,1.25,3.53
		c1.377-1.309,3.192-1.905,4.874-1.561c3.441,0.711,4.464,4.195,4.464,4.195l0.005-10.602v-1.185c0-0.661,0.355-1.011,0.992-1.011
		h23.88c0.638,0,0.992,0.35,0.992,1.011v1.185l0.006,10.602c0,0,1.022-3.484,4.465-4.195c1.681-0.346,3.496,0.252,4.873,1.561
		c0.496-0.91,1.05-2.608,1.25-3.53c1.06,0.559,2.656,1.147,4.106,1.356c0.142-1.222,0.259-2.896,0.08-4.231
		c1.392,0.146,2.993,0.146,4.565-0.162c-0.248-1.146-1.24-3.068-1.887-4.134c1.452-0.39,3.225-1.098,4.131-1.638
		c-0.715-0.98-2.08-2.478-2.957-3.26c1.074-0.735,2.676-2.087,3.365-2.87c-1.088-0.727-2.707-1.51-3.968-1.993
		C93.689,47.826,93.844,43.832,93.643,42.222L93.643,42.222z M50.242,29.812L50.1,30.184c4.172,0,8.184-1.43,9.253-6.407h-3.196
		C55.589,27.363,53.484,29.812,50.242,29.812L50.242,29.812z M32.203,21.713c0,0,2.283,0.529,3.176,3.745
		c0.894,3.216,3.138,4.754,5.441,4.754l-0.142-0.438c-1.34-0.167-3.229-2.078-3.583-5.616c-0.356-3.563-1.229-4.022-1.229-4.022
		C34.963,19.511,32.696,21.16,32.203,21.713L32.203,21.713z M25.526,23.151c1.904-0.062,3.185,0.544,5.578-1.638
		c2.824-2.577,4.165-2.137,4.165-2.137c-1.441-0.939-3.451-1.356-4.142-0.814c-0.69,0.543-1.625,1.999-3.195,3.035
		c-2.213,1.46-4.486,1.075-4.588,2.437h0.062C23.407,24.034,23.624,23.214,25.526,23.151L25.526,23.151z M27.283,31.694
		c1.157,1.142,1.263,3.489,1.263,3.489s1.386-2.488,0.244-5.132c-1.142-2.645-3.476-4.673-1.188-6.218
		c-1.397,0.012-2.911-0.31-3.576,0.639c-0.207,0.295-0.399,1.027,0.297,2.069c0.885,1.324,3.096,4.402,1.285,6.452
		C26.933,32.748,27.283,31.694,27.283,31.694L27.283,31.694z M41.576,30.198h7.84c0,0,0.194-0.477,0.441-1.165h-8.723
		C41.381,29.721,41.576,30.198,41.576,30.198L41.576,30.198z M46.268,19.051c0-0.429-0.339-0.777-0.756-0.777
		c-0.417,0-0.756,0.348-0.756,0.777c0,0.429,0.338,0.776,0.756,0.776C45.929,19.828,46.268,19.48,46.268,19.051L46.268,19.051z
		 M50.183,28.154c0.335-1.053,0.713-2.654,0.713-3.427c0-1.412-0.759-2.975-3.499-3.457c0,1.707-0.828,5.888-1.829,5.888h-0.113
		c-1,0-1.829-4.15-1.829-5.888c-2.749,0.48-3.53,2.044-3.53,3.457c0,0.772,0.378,2.374,0.713,3.427H50.183L50.183,28.154z
		 M45.512,25.988c0.521,0,0.944-2.73,0.944-4.089c0-0.742-0.423-1.229-0.944-1.229c-0.522,0-0.945,0.487-0.945,1.229
		C44.566,23.258,44.989,25.988,45.512,25.988L45.512,25.988z M45.007,17.239h1.008l-0.126-1.294l1.259,0.129v-1.036l-1.259,0.129
		l0.126-1.294h-1.008l0.126,1.294l-1.26-0.129v1.036l1.26-0.129L45.007,17.239L45.007,17.239z M65.844,23.776h-3.196
		c1.069,4.978,5.081,6.407,9.253,6.407l-0.141-0.372C68.516,29.812,66.41,27.363,65.844,23.776L65.844,23.776z M81.182,30.212
		c2.303,0,4.547-1.538,5.441-4.754c0.893-3.215,3.176-3.745,3.176-3.745c-0.496-0.553-2.762-2.203-3.664-1.578
		c0,0-0.873,0.459-1.229,4.022c-0.354,3.539-2.243,5.449-3.583,5.616L81.182,30.212L81.182,30.212z M90.896,21.513
		c2.393,2.182,3.674,1.576,5.578,1.638c1.901,0.063,2.118,0.882,2.118,0.882h0.062c-0.102-1.361-2.373-0.976-4.586-2.437
		c-1.57-1.036-2.506-2.492-3.195-3.035c-0.689-0.542-2.701-0.125-4.143,0.814C86.73,19.376,88.072,18.936,90.896,21.513
		L90.896,21.513z M97.975,24.472c-0.664-0.949-2.18-0.627-3.576-0.639c2.287,1.544-0.045,3.573-1.188,6.218
		c-1.143,2.645,0.243,5.132,0.243,5.132s0.106-2.347,1.264-3.489c0,0,0.351,1.054,1.675,1.299c-1.812-2.05,0.398-5.128,1.285-6.452
		C98.373,25.499,98.182,24.767,97.975,24.472L97.975,24.472z M80.426,30.198c0,0,0.193-0.477,0.44-1.165h-8.724
		c0.248,0.688,0.441,1.165,0.441,1.165H80.426L80.426,30.198z M77.244,19.051c0-0.429-0.338-0.777-0.756-0.777
		c-0.416,0-0.756,0.348-0.756,0.777c0,0.429,0.34,0.776,0.756,0.776C76.906,19.828,77.244,19.48,77.244,19.051L77.244,19.051z
		 M81.191,28.154c0.336-1.053,0.713-2.654,0.713-3.427c0-1.413-0.781-2.976-3.529-3.457c0,1.738-0.828,5.888-1.83,5.888h-0.111
		c-1.002,0-1.83-4.181-1.83-5.888c-2.74,0.481-3.498,2.044-3.498,3.457c0,0.772,0.377,2.374,0.713,3.427H81.191L81.191,28.154z
		 M76.488,25.988c0.521,0,0.945-2.73,0.945-4.089c0-0.742-0.424-1.229-0.945-1.229s-0.943,0.487-0.943,1.229
		C75.545,23.258,75.967,25.988,76.488,25.988L76.488,25.988z M75.984,17.239h1.009l-0.126-1.294l1.26,0.129v-1.036l-1.26,0.129
		l0.126-1.294h-1.009l0.127,1.294l-1.26-0.129v1.036l1.26-0.129L75.984,17.239L75.984,17.239z M24.688,48.354
		c-2.036,0.049-5.623,0.457-7.444,1.036c1.238,1.491,4.471,3.632,6.408,4.541c-1.506,0.572-4.208,2.025-5.335,3.074
		c1.452,0.9,4.641,1.929,6.147,2.265c-0.877,0.714-2.684,2.779-3.347,3.892c1.248,0.39,3.814,0.729,5.444,0.824
		c-0.522,1.094-1.118,3.021-1.275,4.275c0.808,0.084,3.506-0.057,4.842-0.357c-0.115,1.095-0.071,3.087,0.11,3.943
		c1.318-0.188,3.2-0.721,4.076-1.061c0.253,0.977,1.16,3.076,1.479,3.576c1.056-0.204,2.317-0.637,3.243-1.123
		c0.293,0.781,0.958,1.951,1.143,2.246c3.086-3.129,7.495-0.592,7.495,2.738c-0.317,2.194-3.406,2.071-5.032,3.104
		c-2.138,1.355-1.769,4.5-3.969,4.982c2.08,1.317,2.685-1.156,4.845-1.228c-0.288,1.335-0.261,3.705-0.044,4.696
		c0.889-0.688,2.136-1.213,2.951-1.266c-0.201,0.778-0.359,2.602-0.067,3.735c0.573-0.435,2.713-2.302,7.794-1.103
		c0.616,0.146-3.447-0.015-2.94,1.301c0.399,1.035,0.512,1.756,0.035,3.227c0.216,0.077,0.465,0.114,0.735,0.114
		c1.139,0,2.617-0.663,3.204-1.704c0.453,0.338,0.453,2.746-1.066,3.344c1.623,0.119,2.858-1.203,3.098-2.016
		c0,0,0.793,1.893,1.734,2.513c0.59-0.208,1.643-1.19,2.05-2.21c0.406,1.02,1.458,2.002,2.048,2.21
		c0.941-0.62,1.734-2.513,1.734-2.513c0.24,0.812,1.478,2.135,3.1,2.016c-1.52-0.598-1.52-3.006-1.065-3.344
		c0.587,1.041,2.063,1.704,3.202,1.704c0.271,0,0.521-0.037,0.735-0.114c-0.478-1.471-0.364-2.191,0.034-3.227
		c0.508-1.314-3.555-1.154-2.939-1.301c5.08-1.199,7.222,0.668,7.795,1.103c0.291-1.135,0.133-2.957-0.067-3.735
		c0.815,0.053,2.062,0.578,2.95,1.266c0.218-0.991,0.244-3.361-0.045-4.696c2.16,0.069,2.767,2.545,4.847,1.228
		c-2.201-0.482-1.832-3.627-3.97-4.982c-1.627-1.031-4.715-0.908-5.032-3.104c0-3.33,4.407-5.867,7.496-2.738
		c0.184-0.295,0.849-1.465,1.142-2.246c0.928,0.486,2.188,0.919,3.243,1.123c0.317-0.5,1.226-2.602,1.479-3.576
		c0.875,0.34,2.758,0.871,4.076,1.061c0.18-0.856,0.225-2.85,0.108-3.943c1.336,0.302,4.034,0.441,4.842,0.357
		c-0.157-1.256-0.752-3.183-1.274-4.275c1.631-0.096,4.195-0.436,5.443-0.824c-0.662-1.113-2.47-3.178-3.347-3.892
		c1.506-0.336,4.694-1.364,6.147-2.265c-1.127-1.048-3.83-2.501-5.336-3.074c1.938-0.909,5.17-3.05,6.408-4.541
		c-1.822-0.58-5.408-0.987-7.445-1.036c4.217-2.884,4.347-9.141,3.133-12.541c-0.816,2.061-3.522,5.447-5.271,7.273
		c0.155,1.737-0.407,4.819-1.375,6.7c1.384,0.526,3.024,1.319,4.187,2.203c-0.771,0.971-2.43,2.477-3.471,3.292
		c0.881,0.921,2.361,2.613,3.021,3.591c-0.977,0.73-3.098,1.568-4.186,1.953c0.535,1.098,1.312,3.101,1.515,4.483
		c-1.238,0.205-2.943,0.344-4.728,0.321c0.088,1.324-0.099,3.373-0.33,4.603c-1.651-0.133-3.604-0.812-4.473-1.248
		c-0.461,1.83-1.598,3.604-1.646,3.699c-5.168-5.635-9.75-0.318-9.75,4.647V84.1c0,3.201-1.008,4.664-3.908,4.664h-3.755
		c-2.338,0-4.297,0.991-5.273,2.897c-0.978-1.906-2.936-2.897-5.274-2.897h-3.755c-2.901,0-3.91-1.463-3.91-4.664v-6.768
		c0-4.967-4.581-10.282-9.749-4.646c-0.05-0.096-1.187-1.871-1.647-3.699c-0.87,0.437-2.82,1.115-4.473,1.246
		c-0.231-1.229-0.417-3.276-0.331-4.602c-1.783,0.021-3.487-0.117-4.727-0.322c0.201-1.383,0.979-3.386,1.514-4.482
		c-1.087-0.385-3.209-1.223-4.185-1.953c0.66-0.978,2.141-2.67,3.021-3.591c-1.041-0.816-2.699-2.322-3.47-3.292
		c1.161-0.884,2.802-1.677,4.185-2.203c-0.966-1.881-1.53-4.963-1.375-6.7c-1.747-1.826-4.453-5.212-5.27-7.273
		C20.343,39.213,20.475,45.469,24.688,48.354L24.688,48.354z M13.058,80.668l-0.38,0.406c0,0,0.789,1.029,1.425,0.639
		c0.362-0.67-0.663-1.449-0.663-1.449L13.058,80.668L13.058,80.668z"/>
</g>
</svg>
