<?xml version="1.0" encoding="utf-8"?>
<!-- Generator: Adobe Illustrator 17.1.0, SVG Export Plug-In . SVG Version: 6.00 Build 0)  -->
<!DOCTYPE svg PUBLIC "-//W3C//DTD SVG 1.1//EN" "http://www.w3.org/Graphics/SVG/1.1/DTD/svg11.dtd">
<svg version="1.1" id="Слой_1" xmlns="http://www.w3.org/2000/svg" xmlns:xlink="http://www.w3.org/1999/xlink" x="0px" y="0px"
	 viewBox="0 0 32 32" enable-background="new 0 0 32 32" xml:space="preserve">
<path id="режим_редактирования" fill="#728496" d="M12,23.9H9c-0.5,0-0.9-0.4-0.9-0.9v-3c0-0.2,0.1-0.5,0.3-0.6
	l11-11c0.3-0.3,0.9-0.3,1.2,0l3,3c0.3,0.3,0.3,0.9,0,1.2l-11,11C12.5,23.8,12.2,23.9,12,23.9z M20,13.8l1.8-1.8L20,10.3L18.3,12
	L20,13.8L20,13.8z M17,13.3l-7.1,7.1l1.8,1.8l7.1-7.1L17,13.3L17,13.3z"/>
</svg>
