<?xml version="1.0" encoding="utf-8"?>
<!-- Generator: Adobe Illustrator 17.1.0, SVG Export Plug-In . SVG Version: 6.00 Build 0)  -->
<!DOCTYPE svg PUBLIC "-//W3C//DTD SVG 1.1//EN" "http://www.w3.org/Graphics/SVG/1.1/DTD/svg11.dtd">
<svg version="1.1" id="Слой_1" xmlns="http://www.w3.org/2000/svg" xmlns:xlink="http://www.w3.org/1999/xlink" x="0px" y="0px"
	 viewBox="0 0 32 32" enable-background="new 0 0 32 32" xml:space="preserve">
<path id="посмотреть_весь_проект_2_" fill="#A389BB" d="M11.4,21.7l-5.1-5.1c-0.3-0.3-0.3-0.9,0-1.2l5-5.1
	c0.3-0.3,0.9-0.3,1.2,0l0,0c0.3,0.3,0.3,0.9,0,1.2l-3.6,3.6l13.8,0l-3.6-3.6c-0.3-0.3-0.3-0.9,0-1.2l0,0c0.3-0.3,0.9-0.3,1.2,0
	l5,5.1c0.3,0.3,0.3,0.9,0,1.2l-5.1,5.1c-0.3,0.3-0.9,0.3-1.2,0l0,0c-0.3-0.3-0.3-0.9,0-1.2l3.6-3.6l-13.7,0l3.6,3.6
	c0.3,0.3,0.3,0.9,0,1.2l0,0C12.3,22,11.8,22,11.4,21.7z"/>
</svg>
