<?xml version="1.0" encoding="utf-8"?>
<!-- Generator: Adobe Illustrator 17.1.0, SVG Export Plug-In . SVG Version: 6.00 Build 0)  -->
<!DOCTYPE svg PUBLIC "-//W3C//DTD SVG 1.1//EN" "http://www.w3.org/Graphics/SVG/1.1/DTD/svg11.dtd">
<svg version="1.1" id="Слой_1" xmlns="http://www.w3.org/2000/svg" xmlns:xlink="http://www.w3.org/1999/xlink" x="0px" y="0px"
	 viewBox="0 0 32 32" enable-background="new 0 0 32 32" xml:space="preserve">
<path id="развернуть_все_1_" fill="#728496" d="M20.5,24L20.5,24c-0.5,0-0.9-0.4-0.9-0.9v-3.3h-3.3
	c-0.5,0-0.9-0.4-0.9-0.9v0c0-0.5,0.4-0.9,0.9-0.9h3.3v-3.2c0-0.5,0.4-0.9,0.9-0.9h0c0.5,0,0.9,0.4,0.9,0.9v3.2h3.2
	c0.5,0,0.9,0.4,0.9,0.9v0c0,0.5-0.4,0.9-0.9,0.9h-3.2v3.3C21.4,23.6,21,24,20.5,24z M11.5,18L11.5,18c-0.5,0-0.9-0.4-0.9-0.9v-3.2
	H7.4c-0.5,0-0.9-0.4-0.9-0.9v0c0-0.5,0.4-0.9,0.9-0.9h3.3V8.9C10.6,8.4,11,8,11.5,8h0c0.5,0,0.9,0.4,0.9,0.9v3.3h3.3
	c0.5,0,0.9,0.4,0.9,0.9v0c0,0.5-0.4,0.9-0.9,0.9h-3.3v3.2C12.4,17.6,12,18,11.5,18z"/>
</svg>
