<?xml version="1.0" encoding="utf-8"?>
<!-- Generator: Adobe Illustrator 17.1.0, SVG Export Plug-In . SVG Version: 6.00 Build 0)  -->
<!DOCTYPE svg PUBLIC "-//W3C//DTD SVG 1.1//EN" "http://www.w3.org/Graphics/SVG/1.1/DTD/svg11.dtd">
<svg version="1.1" id="Слой_1" xmlns="http://www.w3.org/2000/svg" xmlns:xlink="http://www.w3.org/1999/xlink" x="0px" y="0px"
	 viewBox="0 0 32 32" enable-background="new 0 0 32 32" xml:space="preserve">
<path id="создать_суммарную_задачу_2_" fill="#4AB59E" d="M23,22L23,22c-0.5,0-0.9-0.4-0.9-0.9v-4.3h-4.3
	c-0.5,0-0.9-0.4-0.9-0.9v0c0-0.5,0.4-0.9,0.9-0.9H23c0.5,0,0.9,0.4,0.9,0.9v5.1C23.9,21.6,23.5,22,23,22z M9,22L9,22
	c-0.5,0-0.9-0.4-0.9-0.9V16c0-0.5,0.4-0.9,0.9-0.9h1.1c0.5,0,0.9,0.4,0.9,0.9v0c0,0.5-0.4,0.9-0.9,0.9H9.9v4.3C9.9,21.6,9.5,22,9,22
	z M14,17L14,17c-0.5,0-0.9-0.4-0.9-0.9v-3.3H9.9C9.4,12.9,9,12.5,9,12v0c0-0.5,0.4-0.9,0.9-0.9h3.3V7.9C13.1,7.4,13.5,7,14,7h0
	c0.5,0,0.9,0.4,0.9,0.9v3.3h3.3c0.5,0,0.9,0.4,0.9,0.9v0c0,0.5-0.4,0.9-0.9,0.9h-3.3v3.3C14.9,16.6,14.5,17,14,17z"/>
</svg>
