<?xml version="1.0" encoding="utf-8"?>
<!-- Generator: Adobe Illustrator 17.1.0, SVG Export Plug-In . SVG Version: 6.00 Build 0)  -->
<!DOCTYPE svg PUBLIC "-//W3C//DTD SVG 1.1//EN" "http://www.w3.org/Graphics/SVG/1.1/DTD/svg11.dtd">
<svg version="1.1" id="Слой_1" xmlns="http://www.w3.org/2000/svg" xmlns:xlink="http://www.w3.org/1999/xlink" x="0px" y="0px"
	 viewBox="0 0 32 32" enable-background="new 0 0 32 32" xml:space="preserve">
<path id="скопировать_базовый_план_2_" fill="#728496" d="M17.8,22.9h-7.3c-0.5,0-0.9-0.4-0.9-0.9v0
	c0-0.5,0.4-0.9,0.9-0.9h7.3c0.5,0,0.9,0.4,0.9,0.9v0C18.7,22.5,18.3,22.9,17.8,22.9z M21,19.6l-3.4-3.4c-0.3-0.3-0.3-0.9,0-1.2l0,0
	c0.3-0.3,0.9-0.3,1.2,0l1.9,1.9V16c0-2.6-1.9-4.7-4.4-5.1c-0.4-0.1-0.7-0.4-0.7-0.9v0c0-0.5,0.5-0.9,1-0.9c3.3,0.5,5.9,3.4,5.9,6.8
	v0.9l1.9-1.9c0.3-0.3,0.9-0.3,1.2,0l0,0c0.3,0.3,0.3,0.9,0,1.2l-3.4,3.4C21.9,20,21.4,20,21,19.6z M13.8,18.9H8.5
	c-0.5,0-0.9-0.4-0.9-0.9v0c0-0.5,0.4-0.9,0.9-0.9h5.3c0.5,0,0.9,0.4,0.9,0.9v0C14.7,18.5,14.3,18.9,13.8,18.9z M12.8,14.9H7.5
	c-0.5,0-0.9-0.4-0.9-0.9v0c0-0.5,0.4-0.9,0.9-0.9h5.3c0.5,0,0.9,0.4,0.9,0.9v0C13.7,14.5,13.3,14.9,12.8,14.9z"/>
</svg>
