<?xml version="1.0" encoding="utf-8"?>
<!-- Generator: Adobe Illustrator 17.1.0, SVG Export Plug-In . SVG Version: 6.00 Build 0)  -->
<!DOCTYPE svg PUBLIC "-//W3C//DTD SVG 1.1//EN" "http://www.w3.org/Graphics/SVG/1.1/DTD/svg11.dtd">
<svg version="1.1" id="Слой_1" xmlns="http://www.w3.org/2000/svg" xmlns:xlink="http://www.w3.org/1999/xlink" x="0px" y="0px"
	 viewBox="0 0 32 32" enable-background="new 0 0 32 32" xml:space="preserve">
<path fill="#FFFFFF" d="M16.8,22.5c0,0.8-0.7,1.5-1.5,1.5c-0.8,0-1.5-0.7-1.5-1.5s0.7-1.5,1.5-1.5C16.1,21,16.8,21.7,16.8,22.5z
	 M15.2,19c0.5,0,1-0.4,1-0.9c0-0.3,0.1-0.7,0.3-0.9c0.2-0.3,0.7-0.8,1.3-1.3c0.8-0.6,1.3-1.1,1.6-1.5c0.3-0.4,0.5-0.8,0.7-1.2
	c0.2-0.4,0.2-0.9,0.2-1.4c0-1.2-0.4-2.1-1.2-2.8s-1.9-1-3.3-1c-1.1,0-2.4,0.2-3.6,0.7c-0.6,0.2-0.8,0.8-0.6,1.4l0,0
	c0.2,0.5,0.8,0.8,1.4,0.5c0.2-0.1,0.5-0.2,0.8-0.3c0.6-0.2,1.2-0.3,1.9-0.3c0.7,0,1.3,0.2,1.7,0.5c0.4,0.3,0.6,0.8,0.6,1.4
	c0,0.5-0.1,0.9-0.4,1.3c-0.2,0.4-0.8,0.9-1.6,1.5c-0.7,0.6-1.2,1.1-1.5,1.6c-0.2,0.4-0.3,0.6-0.4,1.5C14.1,18.5,14.6,19,15.2,19
	L15.2,19z"/>
</svg>
