<?xml version="1.0" encoding="utf-8"?>
<!-- Generator: Adobe Illustrator 15.0.0, SVG Export Plug-In . SVG Version: 6.00 Build 0)  -->
<!DOCTYPE svg PUBLIC "-//W3C//DTD SVG 1.1//EN" "http://www.w3.org/Graphics/SVG/1.1/DTD/svg11.dtd">
<svg version="1.1" id="Слой_1" xmlns="http://www.w3.org/2000/svg" xmlns:xlink="http://www.w3.org/1999/xlink" x="0px" y="0px"
	 width="226.771px" height="226.771px" viewBox="308.216 184.255 226.771 226.771"
	 enable-background="new 308.216 184.255 226.771 226.771" xml:space="preserve">
<path id="развернуть_все_1_" fill="#666666" d="M421.273,409.543L421.273,409.543c-9.188,0-16.408-7.22-16.408-16.408
	v-78.758h-78.758c-9.188,0-16.408-7.22-16.408-16.408v-0.656c0-9.188,7.22-16.408,16.408-16.408h78.758v-78.758
	c0-9.188,7.22-16.408,16.408-16.408h0.656c9.188,0,16.408,7.22,16.408,16.408v78.758h78.758c9.188,0,16.408,7.22,16.408,16.408
	v0.656c0,9.188-7.22,16.408-16.408,16.408h-78.758v78.758C437.681,402.323,430.462,409.543,421.273,409.543z"/>
</svg>
