<?xml version="1.0" encoding="utf-8"?>
<!-- Generator: Adobe Illustrator 17.1.0, SVG Export Plug-In . SVG Version: 6.00 Build 0)  -->
<!DOCTYPE svg PUBLIC "-//W3C//DTD SVG 1.1//EN" "http://www.w3.org/Graphics/SVG/1.1/DTD/svg11.dtd">
<svg version="1.1" id="Слой_1" xmlns="http://www.w3.org/2000/svg" xmlns:xlink="http://www.w3.org/1999/xlink" x="0px" y="0px"
	 viewBox="0 0 32 32" enable-background="new 0 0 32 32" xml:space="preserve">
<path id="project_export_2_" fill="#60B78F" d="M12,21.5L12,21.5c-0.5,0-0.9-0.4-0.9-0.9V16c0-0.5,0.4-0.9,0.9-0.9h2.4
	c1.2,0,2.3,0.9,2.4,2.1c0.2,1.5-0.9,2.7-2.4,2.7h-1.6v0.7C12.9,21.1,12.5,21.5,12,21.5z M12.9,18.2h1.6c0.3,0,0.6-0.3,0.6-0.6
	s-0.3-0.6-0.6-0.6h-1.6V18.2z M14,14.1L14,14.1c0.5,0,0.9-0.4,0.9-0.9V9.1l1.9,1.9c0.3,0.3,0.9,0.3,1.2,0l0,0c0.3-0.3,0.3-0.9,0-1.2
	l-3.4-3.4c-0.3-0.3-0.9-0.3-1.2,0L10,9.7c-0.3,0.3-0.3,0.9,0,1.2l0,0c0.3,0.3,0.9,0.3,1.2,0l1.9-1.9v4.1
	C13.1,13.7,13.5,14.1,14,14.1z M19.9,25.9l-12-2c-0.4-0.1-0.7-0.4-0.7-0.9v-9c0-0.5,0.4-0.9,0.9-0.9h0c0.5,0,0.9,0.4,0.9,0.9v8.3
	L19.1,24l0-11c0-0.5,0.4-0.9,0.9-0.9l0,0c0.5,0,4,0,4,0c0.5,0,0.9,0.4,0.9,0.9v10c0,0.5-0.4,0.9-0.9,0.9h-3.1l0,1.1
	C20.9,25.6,20.4,26,19.9,25.9z M20.9,22.2h2.2v-8.3h-2.2L20.9,22.2z"/>
</svg>
