<?xml version="1.0" encoding="utf-8"?>
<!-- Generator: Adobe Illustrator 15.0.0, SVG Export Plug-In . SVG Version: 6.00 Build 0)  -->
<!DOCTYPE svg PUBLIC "-//W3C//DTD SVG 1.1//EN" "http://www.w3.org/Graphics/SVG/1.1/DTD/svg11.dtd">
<svg version="1.1" id="Слой_2" xmlns="http://www.w3.org/2000/svg" xmlns:xlink="http://www.w3.org/1999/xlink" x="0px" y="0px"
	 width="150px" height="100px" viewBox="0 0 150 100" enable-background="new 0 0 150 100" xml:space="preserve">
<path fill="#999999" d="M88.422,19.045c-1.274,0-3.872,0.714-8.233,0.714c-2.672,0-6.959-1.538-9.662-3.076
	c-1.15-0.622-3.549-1.833-5.431-1.833c-3.517,0-6.593,3.371-8.014,11.564c-2.149-5.971-2.245-8.705-1.77-13.601
	C56.234,5.188,62.728,0,74.879,0C84.9,0,94.952,3.915,94.921,19.614c-0.192,7.198-1.093,7.416-2.559,8.82
	C92.492,21.127,92.15,18.89,88.422,19.045z M75,52.326c-5.583,0-10.531-3.695-13.566-8.644l-0.709,4.008
	c1.287,3.217,5.443,5.791,10.887,7.67c-3.118,1.237-5.288,3.792-6.723,9.434c0.504-0.41,1.593-0.921,2.729-1.18
	c0.678-0.187,1.585-0.457,2.377-0.913c0,8.528-0.819,19.308-1.204,24.728c-2.176-4.867-5.193-15.923-4.058-22.27
	c-3.118-3.118-4.008-8.215-4.008-17.469c-1.683,0-3.217,1.138-4.85,2.771c-1.287,1.559-3.365,2.87-9.007,3.118
	c-4.949,0.247-7.72,0.841-10.986,9.799c-1.955,5.987-2.722,9.749-3.91,13.015c-1.534,4.751-2.029,7.572-2.029,10.492
	c0,3.528,1.188,4.206,6.285,6.384c3.392,1.368,6.186,2.178,9.452,1.781c2.722-0.297,4.553,0.594,6.791,1.781
	C55.484,98.416,62.533,100,75,100s19.516-1.584,22.528-3.168c2.239-1.188,4.07-2.078,6.792-1.781
	c3.266,0.396,6.06-0.413,9.452-1.781c5.098-2.178,6.285-2.855,6.285-6.384c0-2.92-0.495-5.741-2.029-10.492
	c-1.188-3.266-1.955-7.027-3.91-13.015c-3.266-8.958-6.038-9.552-10.986-9.799c-5.642-0.248-7.72-1.559-9.007-3.118
	c-1.633-1.633-3.167-2.771-4.85-2.771c0,9.254-0.891,14.351-4.008,17.469c1.135,6.347-1.882,17.402-4.058,22.27
	c-0.385-5.42-1.204-16.199-1.204-24.728c0.792,0.456,1.699,0.727,2.377,0.913c1.136,0.259,2.225,0.77,2.729,1.18
	c-1.435-5.642-3.605-8.196-6.723-9.434c5.444-1.88,9.601-4.454,10.887-7.67l-0.709-4.008C85.53,48.631,80.582,52.326,75,52.326z"/>
</svg>
