<?xml version="1.0" encoding="utf-8"?>
<!-- Generator: Adobe Illustrator 17.1.0, SVG Export Plug-In . SVG Version: 6.00 Build 0)  -->
<!DOCTYPE svg PUBLIC "-//W3C//DTD SVG 1.1//EN" "http://www.w3.org/Graphics/SVG/1.1/DTD/svg11.dtd">
<svg version="1.1" xmlns="http://www.w3.org/2000/svg" xmlns:xlink="http://www.w3.org/1999/xlink" x="0px" y="0px"
	 viewBox="0 0 45.4 45.4" enable-background="new 0 0 45.4 45.4" xml:space="preserve">
<g id="Слой_2">
</g>
<g id="ромб" display="none">
	<polygon fill="#666666" points="22.7,39.7 5.7,22.7 22.7,5.7 39.7,22.8 	"/>
	<polygon fill="#60B78F" points="22.7,39.7 5.7,22.7 22.7,5.7 39.7,22.8 	"/>
	<polygon fill="#FBBF15" points="22.7,39.7 5.7,22.7 22.7,5.7 39.7,22.8 	"/>
	<polygon display="inline" fill="#EA6567" points="22.7,39.7 5.7,22.7 22.7,5.7 39.7,22.8 	"/>
</g>
<g id="квадрат" display="none">
	<path fill="#666666" d="M29.1,34.7H16.3c-3.1,0-5.7-2.5-5.7-5.7V16.3c0-3.1,2.5-5.7,5.7-5.7h12.8c3.1,0,5.7,2.5,5.7,5.7V29
		C34.8,32.2,32.3,34.7,29.1,34.7z"/>
	<path fill="#60B78F" d="M29.1,34.7H16.3c-3.1,0-5.7-2.5-5.7-5.7V16.3c0-3.1,2.5-5.7,5.7-5.7h12.8c3.1,0,5.7,2.5,5.7,5.7V29
		C34.8,32.2,32.3,34.7,29.1,34.7z"/>
	<path fill="#FBBF15" d="M29.1,34.7H16.3c-3.1,0-5.7-2.5-5.7-5.7V16.3c0-3.1,2.5-5.7,5.7-5.7h12.8c3.1,0,5.7,2.5,5.7,5.7V29
		C34.8,32.2,32.3,34.7,29.1,34.7z"/>
	<path display="inline" fill="#EA6567" d="M29.1,34.7H16.3c-3.1,0-5.7-2.5-5.7-5.7V16.3c0-3.1,2.5-5.7,5.7-5.7h12.8
		c3.1,0,5.7,2.5,5.7,5.7V29C34.8,32.2,32.3,34.7,29.1,34.7z"/>
</g>
<g id="круг" display="none">
	<circle fill="#666666" cx="22.7" cy="22.7" r="14.2"/>
	<circle fill="#60B78F" cx="22.7" cy="22.7" r="14.2"/>
	<circle fill="#FBBF15" cx="22.7" cy="22.7" r="14.2"/>
	<circle fill="#EA6567" cx="22.7" cy="22.7" r="14.2"/>
	<circle fill="#3AB6B6" cx="22.7" cy="22.7" r="14.2"/>
	<circle fill="#CCCCCB" cx="22.7" cy="22.7" r="14.2"/>
	<circle display="inline" fill="#EC6F35" cx="22.7" cy="22.7" r="14.2"/>
</g>
<g id="галочка" display="none">
	<path fill="#666666" d="M14.9,34.8l-8.6-8.6c-1-1-1-2.5,0-3.5l0,0c1-1,2.5-1,3.5,0l6.8,6.8l18.8-18.8c1-1,2.5-1,3.5,0l0,0
		c1,1,1,2.5,0,3.5L18.4,34.8C17.4,35.7,15.9,35.7,14.9,34.8z"/>
	<path fill="#5EB78F" d="M14.9,34.8l-8.6-8.6c-1-1-1-2.5,0-3.5l0,0c1-1,2.5-1,3.5,0l6.8,6.8l18.8-18.8c1-1,2.5-1,3.5,0l0,0
		c1,1,1,2.5,0,3.5L18.4,34.8C17.4,35.7,15.9,35.7,14.9,34.8z"/>
	<path fill="#FBBF1D" d="M14.9,34.8l-8.6-8.6c-1-1-1-2.5,0-3.5l0,0c1-1,2.5-1,3.5,0l6.8,6.8l18.8-18.8c1-1,2.5-1,3.5,0l0,0
		c1,1,1,2.5,0,3.5L18.4,34.8C17.4,35.7,15.9,35.7,14.9,34.8z"/>
	<path display="inline" fill="#EA6567" d="M14.9,34.8l-8.6-8.6c-1-1-1-2.5,0-3.5l0,0c1-1,2.5-1,3.5,0l6.8,6.8l18.8-18.8
		c1-1,2.5-1,3.5,0l0,0c1,1,1,2.5,0,3.5L18.4,34.8C17.4,35.7,15.9,35.7,14.9,34.8z"/>
</g>
<g id="крестик">
	<path fill="#666666" d="M19.1,22.7L10.5,14c-1-1-1-2.5,0-3.5l0,0c1-1,2.5-1,3.5,0l8.7,8.7c0,0,8.7-8.7,8.7-8.7c1-1,2.5-1,3.5,0l0,0
		c1,1,1,2.5,0,3.5l-8.7,8.7l8.7,8.7c1,1,1,2.5,0,3.5l0,0c-1,1-2.5,1-3.5,0l-8.7-8.7L14,34.9c-1,1-2.5,1-3.5,0l0,0c-1-1-1-2.5,0-3.5
		L19.1,22.7z"/>
	<path display="none" fill="#5EB78F" d="M19.1,22.7L10.5,14c-1-1-1-2.5,0-3.5l0,0c1-1,2.5-1,3.5,0l8.7,8.7c0,0,8.7-8.7,8.7-8.7
		c1-1,2.5-1,3.5,0l0,0c1,1,1,2.5,0,3.5l-8.7,8.7l8.7,8.7c1,1,1,2.5,0,3.5l0,0c-1,1-2.5,1-3.5,0l-8.7-8.7L14,34.9c-1,1-2.5,1-3.5,0
		l0,0c-1-1-1-2.5,0-3.5L19.1,22.7z"/>
	<path display="none" fill="#FBBF1D" d="M19.1,22.7L10.5,14c-1-1-1-2.5,0-3.5l0,0c1-1,2.5-1,3.5,0l8.7,8.7c0,0,8.7-8.7,8.7-8.7
		c1-1,2.5-1,3.5,0l0,0c1,1,1,2.5,0,3.5l-8.7,8.7l8.7,8.7c1,1,1,2.5,0,3.5l0,0c-1,1-2.5,1-3.5,0l-8.7-8.7L14,34.9c-1,1-2.5,1-3.5,0
		l0,0c-1-1-1-2.5,0-3.5L19.1,22.7z"/>
	<path display="none" fill="#EA6567" d="M19.1,22.7L10.5,14c-1-1-1-2.5,0-3.5l0,0c1-1,2.5-1,3.5,0l8.7,8.7c0,0,8.7-8.7,8.7-8.7
		c1-1,2.5-1,3.5,0l0,0c1,1,1,2.5,0,3.5l-8.7,8.7l8.7,8.7c1,1,1,2.5,0,3.5l0,0c-1,1-2.5,1-3.5,0l-8.7-8.7L14,34.9c-1,1-2.5,1-3.5,0
		l0,0c-1-1-1-2.5,0-3.5L19.1,22.7z"/>
	<path display="none" fill="#999999" d="M19.1,22.7L10.5,14c-1-1-1-2.5,0-3.5l0,0c1-1,2.5-1,3.5,0l8.7,8.7c0,0,8.7-8.7,8.7-8.7
		c1-1,2.5-1,3.5,0l0,0c1,1,1,2.5,0,3.5l-8.7,8.7l8.7,8.7c1,1,1,2.5,0,3.5l0,0c-1,1-2.5,1-3.5,0l-8.7-8.7L14,34.9c-1,1-2.5,1-3.5,0
		l0,0c-1-1-1-2.5,0-3.5L19.1,22.7z"/>
</g>
</svg>
