<?xml version="1.0" encoding="utf-8"?>
<!-- Generator: Adobe Illustrator 17.1.0, SVG Export Plug-In . SVG Version: 6.00 Build 0)  -->
<!DOCTYPE svg PUBLIC "-//W3C//DTD SVG 1.1//EN" "http://www.w3.org/Graphics/SVG/1.1/DTD/svg11.dtd">
<svg version="1.1" id="Слой_1" xmlns="http://www.w3.org/2000/svg" xmlns:xlink="http://www.w3.org/1999/xlink" x="0px" y="0px"
	 viewBox="0 0 32 32" enable-background="new 0 0 32 32" xml:space="preserve">
<path id="экспорт_в_excel" fill="#5FC6ED" d="M15.1,9c0-0.5,0.4-0.9,0.9-0.9h0c0.5,0,0.9,0.4,0.9,0.9v5.1l2.6-2.6
	c0.3-0.3,0.9-0.3,1.2,0l0,0c0.3,0.3,0.3,0.9,0,1.2l-4.1,4.1c-0.3,0.3-0.9,0.3-1.2,0l-4.1-4.1c-0.3-0.3-0.3-0.9,0-1.2l0,0
	c0.3-0.3,0.9-0.3,1.2,0l2.6,2.6V9z M23.9,21.1V19c0-0.5-0.4-0.9-0.9-0.9h0c-0.5,0-0.9,0.4-0.9,0.9v1.2H9.9V19c0-0.5-0.4-0.9-0.9-0.9
	h0c-0.5,0-0.9,0.4-0.9,0.9v2.1C8.1,21.6,8.5,22,9,22h14C23.5,22,23.9,21.6,23.9,21.1z"/>
</svg>
