<?xml version="1.0" encoding="utf-8"?>
<!-- Generator: Adobe Illustrator 17.1.0, SVG Export Plug-In . SVG Version: 6.00 Build 0)  -->
<!DOCTYPE svg PUBLIC "-//W3C//DTD SVG 1.1//EN" "http://www.w3.org/Graphics/SVG/1.1/DTD/svg11.dtd">
<svg version="1.1" id="Слой_1" xmlns="http://www.w3.org/2000/svg" xmlns:xlink="http://www.w3.org/1999/xlink" x="0px" y="0px"
	 viewBox="0 0 32 32" enable-background="new 0 0 32 32" xml:space="preserve">
<path id="открыть_в_новом_окне_2_" fill="#728496" d="M19.1,23.9H9c-0.5,0-0.9-0.4-0.9-0.9V12.9
	C8.1,12.4,8.5,12,9,12h0c0.5,0,0.9,0.4,0.9,0.9v9.3h9.3c0.5,0,0.9,0.4,0.9,0.9v0C20,23.5,19.6,23.9,19.1,23.9z M23,19.9H13
	c-0.5,0-0.9-0.4-0.9-0.9V9c0-0.5,0.4-0.9,0.9-0.9h2.1C15.6,8.1,16,8.5,16,9v0c0,0.5-0.4,0.9-0.9,0.9h-1.2v8.2h8.2v-1.2
	c0-0.5,0.4-0.9,0.9-0.9h0c0.5,0,0.9,0.4,0.9,0.9V19C23.9,19.5,23.5,19.9,23,19.9z M16,16L16,16c-0.4-0.4-0.4-0.9,0-1.2l4.9-4.9h-2
	C18.4,9.9,18,9.5,18,9v0c0-0.5,0.4-0.9,0.9-0.9H23c0.5,0,0.9,0.4,0.9,0.9v4.1c0,0.5-0.4,0.9-0.9,0.9h0c-0.5,0-0.9-0.4-0.9-0.9v-2
	L17.2,16C16.9,16.4,16.3,16.4,16,16z"/>
</svg>
