<?xml version="1.0" encoding="utf-8"?>
<!-- Generator: Adobe Illustrator 17.1.0, SVG Export Plug-In . SVG Version: 6.00 Build 0)  -->
<!DOCTYPE svg PUBLIC "-//W3C//DTD SVG 1.1//EN" "http://www.w3.org/Graphics/SVG/1.1/DTD/svg11.dtd">
<svg version="1.1" id="Слой_1" xmlns="http://www.w3.org/2000/svg" xmlns:xlink="http://www.w3.org/1999/xlink" x="0px" y="0px"
	 viewBox="0 0 32 32" enable-background="new 0 0 32 32" xml:space="preserve">
<path id="повысить_уровень_2_" fill="#5FC6ED" d="M18.8,25l-3.4-3.4c-0.3-0.3-0.3-0.9,0-1.2l3.4-3.4
	c0.3-0.3,0.9-0.3,1.2,0l0,0c0.3,0.3,0.3,0.9,0,1.2l-1.9,1.9h7c0.5,0,0.9,0.4,0.9,0.9v0c0,0.5-0.4,0.9-0.9,0.9h-7l1.9,1.9
	c0.3,0.3,0.3,0.9,0,1.2l0,0C19.7,25.4,19.1,25.4,18.8,25z M13.1,22.9H8.9C8.4,22.9,8,22.5,8,22v0c0-0.5,0.4-0.9,0.9-0.9h4.3
	c0.5,0,0.9,0.4,0.9,0.9v0C14,22.5,13.6,22.9,13.1,22.9z M13.1,18.9H8.9C8.4,18.9,8,18.5,8,18v0c0-0.5,0.4-0.9,0.9-0.9h4.3
	c0.5,0,0.9,0.4,0.9,0.9v0C14,18.5,13.6,18.9,13.1,18.9z M23.1,14.9H8.9C8.4,14.9,8,14.5,8,14v0c0-0.5,0.4-0.9,0.9-0.9h14.3
	c0.5,0,0.9,0.4,0.9,0.9v0C24,14.5,23.6,14.9,23.1,14.9z M23.1,10.9H8.9C8.4,10.9,8,10.5,8,10v0c0-0.5,0.4-0.9,0.9-0.9h14.3
	c0.5,0,0.9,0.4,0.9,0.9v0C24,10.5,23.6,10.9,23.1,10.9z"/>
</svg>
