<?xml version="1.0" encoding="utf-8"?>
<!-- Generator: Adobe Illustrator 17.1.0, SVG Export Plug-In . SVG Version: 6.00 Build 0)  -->
<!DOCTYPE svg PUBLIC "-//W3C//DTD SVG 1.1//EN" "http://www.w3.org/Graphics/SVG/1.1/DTD/svg11.dtd">
<svg version="1.1" id="Слой_1" xmlns="http://www.w3.org/2000/svg" xmlns:xlink="http://www.w3.org/1999/xlink" x="0px" y="0px"
	 viewBox="0 0 32 32" enable-background="new 0 0 32 32" xml:space="preserve">
<path fill="#FFFFFF" d="M23,22H9c-0.5,0-1-0.4-1-1v-2c0-0.5,0.4-1,1-1h0c0.5,0,1,0.4,1,1v1h12v-1c0-0.5,0.4-1,1-1h0c0.5,0,1,0.4,1,1
	v2C24,21.6,23.6,22,23,22z M15.3,16.7L11,12.4c-0.4-0.4-0.4-1,0-1.4l0,0c0.4-0.4,1-0.4,1.4,0l2.6,2.6V9c0-0.5,0.4-1,1-1h0
	c0.5,0,1,0.4,1,1v4.6l2.6-2.6c0.4-0.4,1-0.4,1.4,0l0,0c0.4,0.4,0.4,1,0,1.4l-4.3,4.3C16.3,17.1,15.7,17.1,15.3,16.7z"/>
</svg>
