<?xml version="1.0" encoding="utf-8"?>
<!-- Generator: Adobe Illustrator 17.1.0, SVG Export Plug-In . SVG Version: 6.00 Build 0)  -->
<!DOCTYPE svg PUBLIC "-//W3C//DTD SVG 1.1//EN" "http://www.w3.org/Graphics/SVG/1.1/DTD/svg11.dtd">
<svg version="1.1" id="Слой_1" xmlns="http://www.w3.org/2000/svg" xmlns:xlink="http://www.w3.org/1999/xlink" x="0px" y="0px"
	 viewBox="0 0 32 32" enable-background="new 0 0 32 32" xml:space="preserve">
<path id="период" fill="#FFFFFF" d="M19.1,16.9H16c-0.5,0-0.9-0.4-0.9-0.9v-5.1c0-0.5,0.4-0.9,0.9-0.9h0
	c0.5,0,0.9,0.4,0.9,0.9v4.3h2.2c0.5,0,0.9,0.4,0.9,0.9v0C20,16.5,19.6,16.9,19.1,16.9z M16,24L16,24c0-0.5-0.3-0.8-0.8-0.9
	c-3.7-0.4-6.5-3.6-6.3-7.5C9.1,12,12,9.1,15.6,8.9c3.8-0.2,7.1,2.6,7.5,6.3c0.1,0.4,0.4,0.8,0.9,0.8h0c0.5,0,0.9-0.5,0.9-1
	C24.3,10.3,20,6.6,15,7.2c-4.1,0.5-7.4,3.7-7.8,7.8c-0.6,5,3.1,9.3,7.9,9.9C15.6,24.9,16,24.5,16,24z"/>
</svg>
