<?xml version="1.0" encoding="utf-8"?>
<!-- Generator: Adobe Illustrator 17.1.0, SVG Export Plug-In . SVG Version: 6.00 Build 0)  -->
<!DOCTYPE svg PUBLIC "-//W3C//DTD SVG 1.1//EN" "http://www.w3.org/Graphics/SVG/1.1/DTD/svg11.dtd">
<svg version="1.1" id="Слой_1" xmlns="http://www.w3.org/2000/svg" xmlns:xlink="http://www.w3.org/1999/xlink" x="0px" y="0px"
	 viewBox="0 0 32 32" enable-background="new 0 0 32 32" xml:space="preserve">
<path id="написать_всем_1_" fill="#FFFFFF" d="M24,22.9H12c-0.5,0-0.9-0.4-0.9-0.9v-3.1H8c-0.5,0-0.9-0.4-0.9-0.9v-8
	c0-0.5,0.4-0.9,0.9-0.9h12c0.5,0,0.9,0.4,0.9,0.9v3.1H24c0.5,0,0.9,0.4,0.9,0.9v8C24.9,22.5,24.5,22.9,24,22.9z M12.9,21.1h10.2
	v-5.2l-4.6,3.8c-0.3,0.3-0.8,0.3-1.1,0l-4.6-3.8V21.1z M14.4,14.9l3.6,3l3.6-3H14.4z M8.9,17.1h2.2v-3.4l-2.2-1.9V17.1z M13.1,13.1
	h6v-2.2h-8.7L13.1,13.1z"/>
</svg>
