<?xml version="1.0" encoding="utf-8"?>
<!-- Generator: Adobe Illustrator 15.1.0, SVG Export Plug-In . SVG Version: 6.00 Build 0)  -->
<!DOCTYPE svg PUBLIC "-//W3C//DTD SVG 1.1//EN" "http://www.w3.org/Graphics/SVG/1.1/DTD/svg11.dtd">
<svg version="1.1" id="Layer_1" xmlns="http://www.w3.org/2000/svg" xmlns:xlink="http://www.w3.org/1999/xlink" x="0px" y="0px"
	 width="359.656px" height="171.833px" viewBox="0 0 359.656 171.833" enable-background="new 0 0 359.656 171.833"
	 xml:space="preserve">
<path fill="#FFFFFF" d="M294.617,104.492c-1.411,0-2.552-1.069-2.552-2.381c0-0.029,0.003-0.06,0.003-0.089V61.833v-0.181
	l0.009-0.161c0.138-1.196,1.22-2.128,2.536-2.128c1.314,0,2.397,0.932,2.533,2.128l0.01,0.161c0.002,0.03,0.002,0.149,0,0.181
	v40.188c0.002,0.029,0.005,0.06,0.005,0.089C297.161,103.422,296.017,104.492,294.617,104.492 M299.379,51.948h-9.54
	c-8.066,0-8.543,6.512-8.543,10.711v38.527c0,4.201,0.477,10.717,8.543,10.717h9.54c8.062,0,8.553-6.516,8.553-10.717V62.659
	C307.932,58.459,307.441,51.948,299.379,51.948"/>
<polygon fill="#FFFFFF" points="119.883,51.948 141.849,51.948 141.849,59.393 131.395,59.393 131.395,111.903 119.883,111.903 "/>
<path fill="#FFFFFF" d="M143.55,111.903h11.267l1.072-15.938h5.433l1.066,15.938h11.269l-6.005-59.956h-18.095L143.55,111.903z
	 M156.295,89.375l1.982-29.992h0.652l1.975,29.992H156.295z"/>
<path fill="#FFFFFF" d="M190.141,90.909v11.282c0,1.549,1.146,1.983,1.81,1.983c1.071,0,1.811-0.949,1.811-1.983V88.252
	c0-1.884-0.33-3.934-4.613-3.934h-4.683v-6.594h4.838c3.293,0,4.458-0.781,4.458-4.449V61.351c0-1.025-0.739-1.959-1.811-1.959
	c-0.664,0-1.81,0.423-1.81,1.959v9.784h-11.519v-8.476c0-4.2,0.496-10.711,8.553-10.711h9.551c8.065,0,8.554,6.511,8.554,10.711
	v9.594c0,6.506-4.36,8.301-7.819,8.127v0.603c7.731-0.18,7.819,5.989,7.819,8.139v12.064c0,4.201-0.488,10.717-8.554,10.717h-9.551
	c-8.057,0-8.553-6.516-8.553-10.717V90.909H190.141z"/>
<polygon fill="#FFFFFF" points="212.852,51.948 239.505,51.948 239.505,111.903 228.764,111.903 228.764,59.393 223.594,59.393 
	223.594,111.903 212.852,111.903 "/>
<path fill="#FFFFFF" d="M247.846,111.902h11.517V91.516h6.578c8.062,0,9.341-6.511,9.341-10.713V62.659
	c0-4.199-1.278-10.712-9.341-10.712h-18.095V111.902z M259.362,84.913v-25.52h3.023c1.244,0,2.146,1.109,2.146,2.981v19.555
	c0,1.88-0.901,2.984-2.146,2.984H259.362z"/>
<polygon fill="#FFFFFF" points="344.686,51.948 359.656,51.948 359.656,111.903 348.133,111.903 348.133,74.303 347.73,74.303 
	341.798,111.903 332.596,111.903 326.67,74.303 326.261,74.303 326.261,111.903 314.739,111.903 314.739,51.948 329.707,51.948 
	337.186,94.085 "/>
<path fill="#FFFFFF" d="M95.32,58.043c-0.137,6.075-0.865,12.495-1.787,16.323c0.33-6.606-0.463-15.926-1.988-23.204
	c-1.519-7.282-5.817-19.421-9.253-25.054c-3.167,5.356-7.077,15.871-9.12,24.988c-2.059,9.131-2.118,20.171-2.118,23.48
	c-0.544-2.803-1.91-12.745-1.52-22.748c0.317-8.257,2.249-16.729,3.308-20.633c4.03-13.028,8.594-21.347,9.45-22.666
	c0.86,1.319,6.61,11.565,9.591,22.337C94.852,41.652,95.447,51.96,95.32,58.043 M82.361,104.565
	c-1.786-3.367-4.564-9.78-4.829-19.68c-0.066-9.581,3.765-17.794,4.884-19.505c1.002,1.711,4.306,8.864,4.699,18.643
	C87.379,93.592,84.211,101.125,82.361,104.565 M96.372,31.002C92.74,15.068,83.618,2.118,82.361,0
	c-1.986,2.976-9.267,14.407-12.957,27.104c-4.038,14.151-4.633,26.704-3.239,39.07c1.383,12.357,6.609,25.047,6.609,25.047
	c2.777,6.664,6.938,13.8,9.642,17.306c3.97-5.156,13.102-20.537,15.94-40.638C99.939,56.723,100.007,46.933,96.372,31.002"/>
<path fill="#FFFFFF" d="M60.037,111.889v18.85c0.024-0.028,0.045-0.053,0.076-0.086c6.586-6.555,17.275-6.555,23.864,0
	c6.589,6.563,6.589,17.222,0,23.771c-0.03,0.035-0.055,0.059-0.089,0.083c0,0.007,0,0.007-0.001,0.007
	c-0.027,0.031-0.065,0.061-0.097,0.094c-6.568,6.49-15.16,9.754-23.754,9.754c-8.629,0-17.256-3.295-23.845-9.834
	c-11.594-11.557-12.971-29.437-4.129-42.486c1.194-1.77,2.564-3.441,4.129-5c6.589-6.557,15.216-9.82,23.845-9.82V52.267
	C26.884,52.267,0,79.041,0,112.042c0,33.02,26.884,59.792,60.037,59.792c17.293,0,32.862-7.289,43.813-18.923v-41.021H60.037z"/>
<path fill="#FFFFFF" d="M348.909,157.678c0,5.7-2.604,6.707-9.204,6.707h-6.08v-26.023h6.08v10.041h1.008
	c5.977,0,8.196,1.39,8.196,6.597V157.678z M298.183,143.278h-4.613v21.127h-5.771v-21.127h-4.938v-4.941h15.322V143.278z
	 M251.424,155.104c0,5.283-2.703,6.711-8.681,6.711v2.57h-5.91v-2.57c-5.998,0-8.717-1.428-8.717-6.711v-8.127
	c0-5.314,2.603-6.666,8.717-6.666v-1.949h5.91v1.949c6.079,0,8.681,1.352,8.681,6.666V155.104z M196.318,143.278h-8.311v5.117h7.438
	v4.94h-7.438v6.131h8.311v4.938h-14.591v-26.068h14.591V143.278z M145.915,164.385h-6.076v-11.391h-3.129v11.391h-6.078v-26.023
	h6.078v10.041h3.129v-10.041h6.076V164.385z M359.656,131.869H119.883v39.965h239.773V131.869z M234.027,146.805v8.338
	c0,1.525,0.484,1.873,1.835,1.873h0.971v-12.125h-0.971C234.512,144.891,234.027,145.278,234.027,146.805 M341.053,152.995h-1.348
	v6.801h1.348c1.364,0,1.777-0.35,1.777-1.839v-3.132C342.83,153.335,342.417,152.995,341.053,152.995 M243.678,144.891h-0.935
	v12.125h0.935c1.355,0,1.847-0.379,1.847-1.912v-8.371C245.524,145.2,245.033,144.891,243.678,144.891"/>
</svg>
